<svg width="18" height="20" viewBox="0 0 18 20" fill="none" xmlns="http://www.w3.org/2000/svg">
<path d="M17.8301 18.0628L13.4343 13.667C14.595 12.3088 15.3112 10.5554 15.3112 8.65387C15.3112 4.43095 11.8538 0.998291 7.65558 0.998291C3.45736 0.998291 0 4.43095 0 8.65387C0 12.8768 3.43266 16.3094 7.65558 16.3094C9.58182 16.3094 11.3105 15.618 12.6687 14.4573L17.0645 18.8531C17.188 18.9765 17.3362 19.0012 17.4597 19.0012C17.5831 19.0012 17.756 18.9519 17.8548 18.8531C18.0523 18.6555 18.0523 18.2851 17.8301 18.0628ZM7.63088 15.1735C4.02535 15.1735 1.0866 12.2347 1.0866 8.62917C1.0866 5.02364 4.02535 2.08489 7.63088 2.08489C11.2364 2.08489 14.1752 5.02364 14.1752 8.62917C14.1752 12.2347 11.2364 15.1735 7.63088 15.1735Z" fill="black"/>
</svg>
