<svg width="451" height="431" viewBox="0 0 451 431" fill="none" xmlns="http://www.w3.org/2000/svg">
<path opacity="0.1" d="M404.94 238.146C430.384 156.387 389.102 156.165 309.778 77.43C230.454 -1.30512 106.129 31.2087 82.9054 122.408C59.6813 213.606 85.8454 414.116 237.479 374.9C389.113 335.684 379.496 319.905 404.94 238.146Z" fill="url(#paint0_linear)"/>
<path d="M362.862 317.545C331.101 317.545 299.341 317.545 267.58 317.545C235.924 317.545 204.267 317.545 172.646 317.545C154.754 317.545 136.828 317.545 118.937 317.545C118.278 317.545 118.278 316.503 118.937 316.503C150.698 316.503 182.458 316.503 214.218 316.503C245.875 316.503 277.531 316.503 309.153 316.503C327.044 316.503 344.97 316.503 362.862 316.503C363.52 316.503 363.52 317.545 362.862 317.545Z" fill="#E8E8E8"/>
<path d="M112.523 295.952C112.8 305.95 111.794 315.948 109.506 325.703C109.367 326.363 108.362 326.085 108.501 325.425C110.754 315.775 111.76 305.881 111.448 295.952C111.482 295.293 112.523 295.293 112.523 295.952Z" fill="#E8E8E8"/>
<path d="M71.227 296.751C70.2561 305.985 70.8456 315.323 72.9606 324.349C73.0993 325.009 72.1285 325.286 71.9551 324.627C69.8054 315.497 69.1813 306.089 70.1868 296.751C70.2561 296.091 71.2963 296.091 71.227 296.751Z" fill="#E8E8E8"/>
<path d="M109.09 326.675C97.093 329.73 84.4027 329.313 72.6486 325.425C72.0244 325.217 72.3018 324.21 72.9259 324.418C84.5414 328.237 96.989 328.688 108.812 325.668C109.471 325.529 109.749 326.536 109.09 326.675Z" fill="#E8E8E8"/>
<path d="M112.037 296.438C98.5493 299.32 84.5761 299.25 71.123 296.265C70.4642 296.126 70.7416 295.119 71.4004 295.258C84.6801 298.209 98.48 298.243 111.76 295.432C112.419 295.293 112.696 296.299 112.037 296.438Z" fill="#E8E8E8"/>
<path d="M103.82 296.82C105.623 292.759 103.993 287.794 102.641 283.802C101.254 279.671 99.2775 275.748 96.8504 272.138C97.1278 272.173 97.4052 272.207 97.6826 272.242C96.8851 273.145 96.0182 273.77 94.9434 274.29C94.5273 274.464 94.0766 274.186 94.1806 273.7C94.5967 271.826 95.3248 269.986 94.4927 268.111C93.9032 266.792 93.071 265.473 92.3776 264.223C92.6203 264.292 92.863 264.362 93.1057 264.397C92.3776 264.848 91.6495 265.264 90.9213 265.716C90.4359 266.028 90.0198 265.438 90.1932 264.987C90.9213 263.39 91.4067 261.793 90.4012 260.196C89.8118 259.224 89.049 258.356 88.3902 257.454C86.9339 255.51 85.4083 253.566 83.8827 251.656C80.9702 248.011 77.9536 244.47 74.833 240.999C75.1104 240.964 75.3878 240.929 75.6652 240.895C71.2271 246.727 68.4186 253.704 67.6557 260.994C67.2743 264.501 67.3784 268.111 68.0025 271.583C68.3145 273.353 68.7653 275.089 69.32 276.79C69.424 277.137 69.5627 277.484 69.6668 277.796C70.0482 278.768 70.6723 279.185 71.6778 279.393C72.3713 279.532 72.7527 279.428 73.3421 279.879C73.6195 280.088 73.6888 280.435 73.4461 280.713C72.6833 281.511 72.3713 281.65 72.6487 282.726C72.822 283.42 73.2381 284.149 73.5502 284.844C74.1743 286.232 74.8677 287.586 75.5959 288.905C77.0868 291.613 78.7858 294.182 80.6928 296.612C81.1089 297.133 80.3807 297.862 79.9647 297.341C76.2893 292.62 73.3768 287.447 71.1924 281.893C71.123 281.719 71.1924 281.511 71.3311 281.372C71.7818 280.921 72.2326 280.435 72.718 279.983C72.7527 280.261 72.7874 280.539 72.822 280.817C72.0246 280.261 71.123 280.643 70.2909 280.296C69.6321 280.053 69.2854 279.567 69.008 278.942C68.2452 277.31 67.7598 275.436 67.3437 273.7C66.4769 269.881 66.1995 265.959 66.4769 262.071C67.0663 254.225 69.9442 246.623 74.729 240.374C74.9024 240.131 75.2838 239.992 75.5612 240.27C79.4099 244.54 83.1199 248.948 86.6565 253.461C88.2515 255.475 89.9505 257.488 91.3374 259.675C92.5856 261.654 91.9962 263.529 91.1294 265.542C90.8866 265.299 90.6439 265.056 90.4012 264.813C91.1294 264.362 91.8575 263.945 92.5856 263.494C92.8284 263.355 93.1751 263.425 93.3138 263.668C94.1806 265.264 95.5328 267.035 96.0182 268.805C96.4343 270.367 95.5675 272.416 95.2208 273.943C94.9781 273.735 94.7007 273.561 94.458 273.353C95.4635 272.902 96.261 272.312 96.9891 271.478C97.2318 271.201 97.6479 271.305 97.8213 271.583C100.526 275.609 102.641 280.018 104.097 284.67C105.345 288.697 106.559 293.279 104.791 297.306C104.444 297.931 103.542 297.41 103.82 296.82Z" fill="#E8E8E8"/>
<path d="M75.5959 248.879C76.9828 264.605 87.7314 277.206 92.2042 291.995C92.4123 292.654 91.4068 292.897 91.1988 292.273C86.7259 277.38 75.9426 264.744 74.5557 248.879C74.4864 248.185 75.5612 248.219 75.5959 248.879Z" fill="#E8E8E8"/>
<path d="M88.7022 257.245C87.5926 262.973 86.3098 268.632 84.8535 274.255C84.6801 274.915 83.6746 274.637 83.848 273.978C85.3042 268.354 86.5871 262.661 87.6967 256.968C87.8007 256.308 88.8062 256.586 88.7022 257.245Z" fill="#E8E8E8"/>
<path d="M76.9827 260.925C73.9662 258.738 71.3657 256.134 69.1119 253.114C68.6959 252.594 69.5974 252.073 70.0134 252.594C72.1285 255.44 74.625 257.94 77.5028 260.023C78.0229 260.439 77.5028 261.342 76.9827 260.925Z" fill="#E8E8E8"/>
<path d="M80.2074 246.067C79.2712 249.053 78.7164 252.698 76.428 254.954C75.9426 255.44 75.2145 254.676 75.6999 254.225C77.815 252.107 78.3698 248.532 79.2366 245.789C79.4099 245.165 80.4154 245.442 80.2074 246.067Z" fill="#E8E8E8"/>
<path d="M105.9 296.543C108.015 294.876 109.298 292.55 110.373 290.12C111.586 287.274 112.627 284.358 113.563 281.407C115.331 275.748 116.614 269.916 117.377 264.049C118.937 251.76 117.689 239.333 119.18 227.009C119.492 227.113 119.839 227.182 120.151 227.286C116.267 236.035 107.183 241.277 99.6243 246.484C99.6936 246.241 99.7629 245.998 99.7976 245.755C100.838 247.248 101.878 248.74 102.918 250.233C103.161 250.58 102.849 251.031 102.467 251.031C101.115 251.031 99.9363 250.858 98.6534 250.407C98.8615 250.337 99.0348 250.233 99.2429 250.164C97.96 252.142 96.6771 254.121 95.3942 256.1C95.3595 255.891 95.3248 255.683 95.3248 255.475C95.9489 256.065 96.469 256.725 96.9891 257.454C97.1625 257.697 96.9891 258.183 96.6771 258.217C93.8339 258.634 92.8284 261.342 92.1002 263.772C91.8922 264.397 90.8867 264.154 91.0947 263.494C91.9615 260.752 93.2098 257.662 96.3997 257.211C96.2957 257.454 96.1916 257.731 96.0876 257.974C95.6369 257.28 95.1861 256.794 94.5967 256.239C94.4233 256.1 94.3887 255.787 94.5273 255.614C95.8102 253.635 97.0931 251.656 98.376 249.678C98.4801 249.504 98.7227 249.365 98.9655 249.435C100.144 249.816 101.289 250.025 102.502 249.99C102.363 250.268 102.19 250.511 102.051 250.788C101.011 249.296 99.971 247.803 98.9308 246.31C98.7574 246.067 98.8961 245.755 99.1042 245.581C106.524 240.478 115.435 235.375 119.249 226.766C119.457 226.314 120.289 226.523 120.22 227.043C118.694 239.819 120.047 252.732 118.244 265.473C117.377 271.617 115.955 277.658 113.979 283.524C112.384 288.28 110.72 294.078 106.663 297.306C106.108 297.688 105.38 296.959 105.9 296.543Z" fill="#E8E8E8"/>
<path d="M119.943 228.05C117.134 235.826 114.776 244.019 110.997 251.413C109.125 255.058 107.079 258.634 105.311 262.349C103.404 266.375 101.705 270.472 99.971 274.533C99.7283 275.158 98.8268 274.603 99.0695 274.013C100.699 270.125 102.363 266.237 104.132 262.418C105.865 258.669 107.876 255.093 109.818 251.448C113.702 244.019 116.094 235.688 118.972 227.807C119.18 227.148 120.185 227.425 119.943 228.05Z" fill="#E8E8E8"/>
<path d="M118.625 254.433C114.88 254.885 110.789 255.093 107.946 257.905C107.46 258.391 106.732 257.627 107.218 257.176C110.269 254.19 114.603 253.913 118.625 253.427C119.284 253.323 119.284 254.364 118.625 254.433Z" fill="#E8E8E8"/>
<path d="M108.605 240.374C109.229 242.631 109.645 244.956 109.818 247.317C109.957 249.33 110.2 251.691 109.506 253.635C109.298 254.26 108.293 253.982 108.501 253.357C109.159 251.518 108.917 249.226 108.778 247.282C108.605 245.026 108.189 242.804 107.599 240.617C107.426 239.992 108.431 239.714 108.605 240.374Z" fill="#E8E8E8"/>
<path d="M116.267 273.353C113.563 273.422 110.962 273.457 108.327 274.186C105.727 274.915 103.161 275.679 100.56 276.443C99.9015 276.616 99.6241 275.609 100.283 275.436C103.057 274.637 105.796 273.77 108.604 273.041C111.136 272.381 113.667 272.416 116.267 272.346C116.926 272.277 116.926 273.318 116.267 273.353Z" fill="#E8E8E8"/>
<path d="M78.335 295.57C76.0119 295.258 73.7235 295.258 71.4004 295.57C71.5044 295.327 71.6085 295.05 71.7125 294.807C71.9205 295.119 74.0009 295.154 74.417 295.189C75.3532 295.327 76.324 295.466 77.2602 295.675C77.3989 295.709 78.3351 295.813 78.3697 295.918C78.3004 295.744 76.9135 295.779 76.7054 295.779C75.6999 295.779 74.6944 295.883 73.6889 295.952C73.6889 295.605 73.6889 295.258 73.6889 294.911C74.5557 294.876 75.3185 294.98 76.1853 295.223C76.7401 295.362 76.6361 296.23 76.0466 296.23C74.6944 296.23 73.4808 295.952 72.1633 295.605C71.5045 295.432 71.7818 294.425 72.4406 294.598C73.6195 294.911 74.7984 295.189 76.0466 295.189C76.0119 295.536 75.9426 295.883 75.9079 296.195C75.1798 295.987 74.4517 295.918 73.6889 295.918C73.0301 295.918 73.0301 294.911 73.6889 294.876C75.2145 294.807 77.4335 294.251 78.8205 295.119C79.3752 295.466 80.1727 296.369 79.4446 296.924C79.1325 297.167 78.7858 297.028 78.4044 296.994C77.3642 296.785 76.3587 296.542 75.3185 296.369C74.1049 296.161 71.6778 296.473 70.8457 295.327C70.6723 295.084 70.8457 294.598 71.1577 294.564C73.5848 294.217 75.9426 294.217 78.3697 294.529C78.9939 294.598 78.9938 295.64 78.335 295.57Z" fill="#E8E8E8"/>
<path d="M111.587 296.23C111.101 296.091 110.616 295.987 110.13 295.952C109.888 295.952 109.68 295.918 109.437 295.952C109.333 295.952 108.847 295.918 108.813 295.952C108.847 295.779 108.917 295.605 108.951 295.432C108.951 295.466 108.986 295.501 108.986 295.501C108.778 295.397 108.57 295.258 108.362 295.154C108.397 295.154 108.431 295.154 108.431 295.154C108.327 295.258 108.189 295.397 108.085 295.501C108.085 295.466 108.085 295.432 108.119 295.432C108.293 294.772 109.263 295.05 109.125 295.709C109.125 295.744 109.125 295.779 109.09 295.779C109.055 295.952 108.882 296.091 108.743 296.126C108.709 296.126 108.674 296.126 108.674 296.126C108.397 296.195 108.154 296.056 108.05 295.779C108.05 295.744 108.015 295.709 108.015 295.709C107.946 295.536 108.015 295.327 108.154 295.189C108.535 294.807 109.367 294.876 109.853 294.876C110.546 294.876 111.274 295.015 111.933 295.189C112.488 295.397 112.211 296.404 111.587 296.23Z" fill="#E8E8E8"/>
<path d="M110.789 303.208C98.1334 305.395 84.9924 306.436 72.5101 302.687C71.886 302.479 72.1287 301.507 72.7874 301.68C85.0617 305.36 98.0294 304.353 110.512 302.201C111.17 302.097 111.448 303.104 110.789 303.208Z" fill="#E8E8E8"/>
<path d="M67.205 317.476C44.9796 317.476 22.7195 317.476 0.494141 317.476C-0.16465 317.476 -0.16465 316.434 0.494141 316.434C22.7195 316.434 44.9796 316.434 67.205 316.434C67.8985 316.434 67.8985 317.476 67.205 317.476Z" fill="#E8E8E8"/>
<path d="M84.0213 339.797C63.0788 339.797 42.1017 339.797 21.1592 339.797C20.5004 339.797 20.5004 338.756 21.1592 338.756C42.1017 338.756 63.0788 338.756 84.0213 338.756C84.6801 338.756 84.6801 339.797 84.0213 339.797Z" fill="#E8E8E8"/>
<path d="M74.4862 339.693C76.9827 341.776 79.4792 343.824 81.9409 345.907C82.461 346.324 81.7329 347.053 81.2128 346.636C78.7164 344.553 76.2199 342.505 73.7581 340.422C73.238 340.006 74.0008 339.242 74.4862 339.693Z" fill="#E8E8E8"/>
<path d="M81.629 347.018C80.9702 347.018 80.9702 345.976 81.629 345.976C82.2877 345.976 82.2877 347.018 81.629 347.018Z" fill="#E8E8E8"/>
<path d="M71.0538 345.976C92.1697 345.976 113.286 345.976 134.401 345.976C135.06 345.976 135.06 347.018 134.401 347.018C113.286 347.018 92.1697 347.018 71.0538 347.018C70.395 347.018 70.395 345.976 71.0538 345.976Z" fill="#E8E8E8"/>
<path d="M134.505 356.738C130.761 353.614 126.912 350.628 122.959 347.747C122.439 347.365 122.925 346.463 123.479 346.844C127.501 349.76 131.419 352.815 135.233 355.974C135.754 356.426 135.025 357.155 134.505 356.738Z" fill="#E8E8E8"/>
<path d="M450.168 337.784C425.689 337.784 401.21 337.784 376.731 337.784C369.796 337.784 362.862 337.784 355.927 337.784C355.268 337.784 355.268 336.742 355.927 336.742C380.406 336.742 404.885 336.742 429.364 336.742C436.299 336.742 443.234 336.742 450.168 336.742C450.827 336.742 450.827 337.784 450.168 337.784Z" fill="#E8E8E8"/>
<path d="M437.374 346.844C434.08 344.032 430.751 341.22 427.457 338.409C426.937 337.957 427.7 337.228 428.186 337.68C431.479 340.491 434.808 343.303 438.102 346.115C438.622 346.532 437.859 347.296 437.374 346.844Z" fill="#E8E8E8"/>
<path d="M449.302 347.851C426.556 347.851 403.811 347.851 381.065 347.851C380.406 347.851 380.406 346.809 381.065 346.809C403.811 346.809 426.556 346.809 449.302 346.809C449.96 346.809 449.96 347.851 449.302 347.851Z" fill="#E8E8E8"/>
<path d="M389.005 347.643C391.606 350.559 394.275 353.405 396.98 356.252C397.431 356.738 396.703 357.467 396.252 356.981C393.547 354.134 390.912 351.288 388.277 348.372C387.792 347.886 388.554 347.157 389.005 347.643Z" fill="#E8E8E8"/>
<path d="M406.758 357.918C386.751 357.918 366.78 357.918 346.773 357.918C346.115 357.918 346.115 356.877 346.773 356.877C366.78 356.877 386.751 356.877 406.758 356.877C407.416 356.877 407.416 357.918 406.758 357.918Z" fill="#E8E8E8"/>
<path d="M420.939 320.322C412.479 320.322 404.018 320.322 395.523 320.322C394.865 320.322 394.865 319.281 395.523 319.281C403.984 319.281 412.444 319.281 420.939 319.281C421.598 319.281 421.598 320.322 420.939 320.322Z" fill="#E8E8E8"/>
<path d="M389.109 323.724C386.509 323.724 383.873 323.724 381.273 323.724C380.614 323.724 380.614 322.683 381.273 322.683C383.873 322.683 386.509 322.683 389.109 322.683C389.803 322.683 389.803 323.724 389.109 323.724Z" fill="#E8E8E8"/>
<path d="M407.937 138.104C407.937 143.763 407.937 149.456 407.937 155.114C407.937 155.774 406.896 155.774 406.896 155.114C406.896 149.456 406.896 143.763 406.896 138.104C406.896 137.445 407.937 137.445 407.937 138.104Z" fill="#E8E8E8"/>
<path d="M425.377 155.948C411.438 155.948 397.5 155.948 383.561 155.948C382.903 155.948 382.903 154.906 383.561 154.906C397.5 154.906 411.438 154.906 425.377 154.906C426.036 154.906 426.036 155.948 425.377 155.948Z" fill="#E8E8E8"/>
<path d="M396.182 156.433C396.182 160.808 396.182 165.147 396.182 169.521C396.182 170.181 395.142 170.181 395.142 169.521C395.142 165.147 395.142 160.808 395.142 156.433C395.142 155.739 396.182 155.739 396.182 156.433Z" fill="#E8E8E8"/>
<path d="M407.729 171.326C396.633 171.326 385.503 171.326 374.408 171.326C373.749 171.326 373.749 170.285 374.408 170.285C385.503 170.285 396.633 170.285 407.729 170.285C408.422 170.285 408.422 171.326 407.729 171.326Z" fill="#E8E8E8"/>
<path d="M127.917 125.919C127.917 127.308 127.917 128.662 127.917 130.05C127.917 130.71 126.877 130.71 126.877 130.05C126.877 128.662 126.877 127.308 126.877 125.919C126.877 125.26 127.917 125.26 127.917 125.919Z" fill="#E8E8E8"/>
<path d="M127.085 126.752C103.23 126.752 79.3752 126.752 55.5202 126.752C54.8614 126.752 54.8614 125.711 55.5202 125.711C79.3752 125.711 103.23 125.711 127.085 125.711C127.744 125.711 127.744 126.752 127.085 126.752Z" fill="#E8E8E8"/>
<path d="M126.426 130.566C102.779 130.566 79.1323 130.566 55.52 130.566C54.8612 130.566 54.8612 129.525 55.52 129.525C79.167 129.525 102.814 129.525 126.426 129.525C127.085 129.525 127.085 130.566 126.426 130.566Z" fill="#E8E8E8"/>
<path d="M55.6935 125.919C55.8322 127.342 55.7628 128.766 55.5201 130.189C55.4161 130.849 54.4106 130.571 54.5146 129.911C54.7573 128.592 54.792 127.238 54.6533 125.919C54.5839 125.26 55.6241 125.26 55.6935 125.919Z" fill="#E8E8E8"/>
<path d="M122.196 125.954C122.196 116.269 122.196 106.583 122.196 96.8977C122.196 96.2381 123.237 96.2381 123.237 96.8977C123.237 106.583 123.237 116.269 123.237 125.954C123.237 126.648 122.196 126.648 122.196 125.954Z" fill="#E8E8E8"/>
<path d="M122.196 97.0711C119.249 95.8908 116.129 96.0644 113.39 97.696C112.8 98.0431 112.28 97.1405 112.869 96.7934C115.817 95.0577 119.319 94.7799 122.474 96.0644C123.098 96.3074 122.821 97.3141 122.196 97.0711Z" fill="#E8E8E8"/>
<path d="M113.563 97.4531C113.563 106.757 113.563 116.095 113.563 125.399C113.563 126.058 112.523 126.058 112.523 125.399C112.523 116.095 112.523 106.757 112.523 97.4531C112.523 96.7935 113.563 96.7935 113.563 97.4531Z" fill="#E8E8E8"/>
<path d="M112.384 105.229C110.269 104.361 108.05 104.5 106.074 105.715C105.484 106.062 104.964 105.16 105.553 104.813C107.738 103.493 110.304 103.25 112.661 104.222C113.285 104.465 113.008 105.472 112.384 105.229Z" fill="#E8E8E8"/>
<path d="M106.281 105.681C106.281 112.207 106.281 118.699 106.281 125.225C106.281 125.885 105.241 125.885 105.241 125.225C105.241 118.699 105.241 112.207 105.241 105.681C105.241 105.021 106.281 105.021 106.281 105.681Z" fill="#E8E8E8"/>
<path d="M122.058 105.056C119.11 104.396 116.198 104.604 113.355 105.611C112.731 105.819 112.453 104.813 113.077 104.604C116.094 103.528 119.214 103.389 122.335 104.049C122.959 104.188 122.682 105.195 122.058 105.056Z" fill="#E8E8E8"/>
<path d="M113.112 117.102C110.893 116.512 108.674 116.442 106.42 116.928C105.761 117.067 105.484 116.06 106.143 115.921C108.57 115.401 110.962 115.435 113.389 116.095C114.013 116.269 113.771 117.275 113.112 117.102Z" fill="#E8E8E8"/>
<path d="M93.1751 125.607C93.1751 123.663 93.1751 121.719 93.1751 119.775C93.1751 119.115 94.2153 119.115 94.2153 119.775C94.2153 121.719 94.2153 123.663 94.2153 125.607C94.2153 126.266 93.1751 126.266 93.1751 125.607Z" fill="#E8E8E8"/>
<path d="M93.6952 120.087C82.4265 120.087 71.1924 120.087 59.9237 120.087C59.2649 120.087 59.2649 119.046 59.9237 119.046C71.1924 119.046 82.4265 119.046 93.6952 119.046C94.3887 119.046 94.3887 120.087 93.6952 120.087Z" fill="#E8E8E8"/>
<path d="M59.5771 120.643C58.9183 120.643 58.9183 119.601 59.5771 119.601C60.2705 119.601 60.2705 120.643 59.5771 120.643Z" fill="#E8E8E8"/>
<path d="M60.0972 120.122C60.0972 121.892 60.0972 123.663 60.0972 125.433C60.0972 126.093 59.057 126.093 59.057 125.433C59.057 123.663 59.057 121.892 59.057 120.122C59.057 119.462 60.0972 119.462 60.0972 120.122Z" fill="#E8E8E8"/>
<path d="M86.6219 119.393C86.6219 117.553 86.6219 115.748 86.6219 113.908C86.6219 113.248 87.6621 113.248 87.6621 113.908C87.6621 115.748 87.6621 117.553 87.6621 119.393C87.6621 120.052 86.6219 120.052 86.6219 119.393Z" fill="#E8E8E8"/>
<path d="M87.1419 114.255C76.0812 114.255 65.0205 114.255 53.9252 114.255C53.2664 114.255 53.2664 113.214 53.9252 113.214C64.9859 113.214 76.0465 113.214 87.1419 113.214C87.8007 113.214 87.8007 114.255 87.1419 114.255Z" fill="#E8E8E8"/>
<path d="M54.272 113.734C54.272 115.262 54.272 116.789 54.272 118.317C54.272 118.976 53.2318 118.976 53.2318 118.317C53.2318 116.789 53.2318 115.262 53.2318 113.734C53.2318 113.04 54.272 113.04 54.272 113.734Z" fill="#E8E8E8"/>
<path d="M60.3049 120.261C58.2938 120.261 56.2828 120.261 54.2718 120.261C53.613 120.261 53.613 119.219 54.2718 119.219C56.2828 119.219 58.2938 119.219 60.3049 119.219C60.9983 119.219 60.9983 120.261 60.3049 120.261Z" fill="#E8E8E8"/>
<path d="M54.3413 118.351C54.4107 118.733 54.4107 119.08 54.3067 119.427C54.2373 119.705 53.9252 119.879 53.6825 119.775C53.4051 119.705 53.2318 119.393 53.3358 119.15C53.3705 118.976 53.4051 118.768 53.3705 118.629C53.3358 118.351 53.4398 118.039 53.7172 118.004C53.9599 117.935 54.3066 118.074 54.3413 118.351Z" fill="#E8E8E8"/>
<path d="M79.2366 113.977C78.7858 115.748 78.6818 117.553 78.9245 119.393C78.9939 120.052 77.9537 120.052 77.8843 119.393C77.6416 117.483 77.7803 115.574 78.2311 113.7C78.4044 113.075 79.41 113.352 79.2366 113.977Z" fill="#E8E8E8"/>
<path d="M71.4003 120.018C71.1576 121.753 71.2963 123.454 71.7124 125.121C71.8858 125.78 70.8803 126.058 70.7069 125.398C70.2215 123.524 70.1175 121.649 70.3949 119.74C70.4642 119.08 71.4697 119.358 71.4003 120.018Z" fill="#E8E8E8"/>
<path d="M78.1963 162.266C78.1963 165.008 78.1963 167.716 78.1963 170.458C78.1963 171.118 77.1561 171.118 77.1561 170.458C77.1561 167.716 77.1561 165.008 77.1561 162.266C77.1561 161.571 78.1963 161.571 78.1963 162.266Z" fill="#E8E8E8"/>
<path d="M86.2403 170.597C79.3057 170.597 72.3711 170.597 65.4365 170.597C64.7777 170.597 64.7777 169.556 65.4365 169.556C72.3711 169.556 79.3057 169.556 86.2403 169.556C86.8991 169.556 86.8991 170.597 86.2403 170.597Z" fill="#E8E8E8"/>
<path d="M98.064 53.8166C98.064 60.0653 98.064 66.3487 98.064 72.5973C98.064 73.2569 97.0238 73.2569 97.0238 72.5973C97.0238 66.3487 97.0238 60.0653 97.0238 53.8166C97.0238 53.157 98.064 53.157 98.064 53.8166Z" fill="#E8E8E8"/>
<path d="M96.7461 53.7818C88.8407 53.7818 80.9699 53.7818 73.0645 53.7818C72.4057 53.7818 72.4057 52.7404 73.0645 52.7404C80.9699 52.7404 88.8407 52.7404 96.7461 52.7404C97.4049 52.7404 97.4049 53.7818 96.7461 53.7818Z" fill="#E8E8E8"/>
<path d="M73.03 53.643C73.03 59.6834 73.03 65.7238 73.03 71.7295C73.03 72.389 71.9898 72.389 71.9898 71.7295C71.9898 65.6891 71.9898 59.6487 71.9898 53.643C71.9898 52.9835 73.03 52.9835 73.03 53.643Z" fill="#E8E8E8"/>
<path d="M97.6824 73.1875C89.2916 73.1875 80.9007 73.1875 72.5098 73.1875C71.851 73.1875 71.851 72.146 72.5098 72.146C80.9007 72.146 89.2916 72.146 97.6824 72.146C98.3412 72.146 98.3412 73.1875 97.6824 73.1875Z" fill="#E8E8E8"/>
<path d="M95.7407 55.969C95.7407 60.7249 95.7407 65.4461 95.7407 70.202C95.7407 70.8616 94.7005 70.8616 94.7005 70.202C94.7005 65.4461 94.7005 60.7249 94.7005 55.969C94.7005 55.3094 95.7407 55.3094 95.7407 55.969Z" fill="#E8E8E8"/>
<path d="M94.9781 56.3853C88.4942 56.3853 81.9757 56.3853 75.4919 56.3853C74.8331 56.3853 74.8331 55.3439 75.4919 55.3439C81.9757 55.3439 88.4942 55.3439 94.9781 55.3439C95.6369 55.3439 95.6369 56.3853 94.9781 56.3853Z" fill="#E8E8E8"/>
<path d="M75.8733 55.969C75.8733 60.3777 75.8733 64.7518 75.8733 69.1606C75.8733 69.8202 74.8331 69.8202 74.8331 69.1606C74.8331 64.7518 74.8331 60.3777 74.8331 55.969C74.8331 55.3094 75.8733 55.3094 75.8733 55.969Z" fill="#E8E8E8"/>
<path d="M94.9781 70.7225C88.5289 70.7225 82.0798 70.7225 75.5959 70.7225C74.9371 70.7225 74.9371 69.6811 75.5959 69.6811C82.0451 69.6811 88.4942 69.6811 94.9781 69.6811C95.6369 69.6811 95.6369 70.7225 94.9781 70.7225Z" fill="#E8E8E8"/>
<path d="M82.7041 64.4739C85.4432 62.391 81.3518 58.0517 79.4448 60.6553C77.6765 63.0159 80.5543 65.8625 83.0161 64.5434C83.6055 64.2309 84.1256 65.1335 83.5362 65.4459C81.9412 66.3138 79.8262 66.0708 78.682 64.5781C77.5031 63.0853 77.6418 60.7247 79.1327 59.475C80.693 58.1905 82.9121 59.0584 83.9869 60.5164C85.1312 62.1133 84.7844 64.1962 83.2242 65.3765C82.6694 65.7584 82.184 64.8558 82.7041 64.4739Z" fill="#E8E8E8"/>
<path d="M85.9977 69.6118C86.1364 66.8693 82.7731 65.8279 80.6581 65.8279C78.0576 65.8279 77.2255 68.1537 76.1506 70.1325C75.8385 70.7226 74.9371 70.2019 75.2491 69.6118C75.9772 68.2926 76.6707 66.5569 77.8842 65.5849C78.9938 64.717 80.3807 64.7517 81.6983 64.8906C84.1254 65.1683 87.2113 66.661 87.0379 69.6118C87.0033 70.2713 85.9631 70.2713 85.9977 69.6118Z" fill="#E8E8E8"/>
<path d="M94.5272 67.1123C93.7644 65.689 90.9559 66.2444 89.9157 66.7999C88.8408 67.39 88.2167 68.362 87.9394 69.5423C87.8007 70.2019 86.7951 69.9242 86.9338 69.2646C87.3499 67.4594 88.5981 66.0361 90.4011 65.446C91.9267 64.96 94.5272 64.9253 95.394 66.5569C95.7408 67.1817 94.8393 67.7024 94.5272 67.1123Z" fill="#E8E8E8"/>
<path d="M92.5163 64.5435C93.6605 64.5088 93.3831 62.8078 92.8977 62.2176C92.2736 61.4539 91.0254 61.3497 90.2972 62.0788C89.7078 62.6342 89.5345 63.6756 90.0199 64.3352C90.3666 64.8212 90.8867 64.9254 91.4415 64.9254C91.6495 64.9254 92.5163 64.9601 92.655 64.7865C93.0364 64.2311 93.9379 64.7518 93.5565 65.3072C93.1404 65.9321 92.2736 65.9668 91.5802 65.9668C90.748 66.0015 89.9505 65.7932 89.3611 65.1684C88.2515 63.9534 88.6329 61.9052 89.9505 61.0026C91.3721 60.0653 93.3485 60.586 94.0766 62.1135C94.7007 63.4673 94.25 65.5155 92.5163 65.5502C91.8229 65.6197 91.8229 64.5782 92.5163 64.5435Z" fill="#E8E8E8"/>
<path d="M304.715 146.089C303.085 147.408 301.074 146.852 299.549 145.568C297.399 143.797 296.324 140.777 295.908 138.104C294.833 131.3 297.572 124.843 298.647 118.247C300.589 105.993 295.249 92.8707 285.333 85.5112C280.513 81.9009 272.573 78.0475 274.445 70.6533C274.619 69.9937 275.624 70.2714 275.451 70.931C273.683 77.9781 281.866 81.5537 286.338 84.9558C290.36 88.0454 293.62 92.0376 295.943 96.5158C298.231 100.855 299.618 105.681 300 110.575C300.45 116.512 298.89 122.031 297.607 127.759C296.844 131.231 296.359 134.876 297.018 138.417C297.33 140.048 297.884 141.645 298.751 143.068C299.722 144.596 302.045 146.956 303.987 145.394C304.472 144.943 305.235 145.672 304.715 146.089Z" fill="#E8E8E8"/>
<path d="M274.827 70.2366C278.745 70.4102 282.178 67.3553 281.969 63.3284C281.761 59.1279 276.803 55.2398 272.608 56.3507C268.863 57.3574 265.985 61.4885 266.921 65.3418C267.858 69.1952 272.192 70.0283 275.52 70.5838C276.179 70.6879 275.902 71.6946 275.243 71.5905C270.943 70.8962 265.951 69.3687 265.673 64.1615C265.465 59.9263 269.244 55.344 273.579 55.1704C278.155 54.9621 282.767 58.7113 283.01 63.3631C283.218 67.9454 279.3 71.4863 274.827 71.3128C274.168 71.2433 274.168 70.2019 274.827 70.2366Z" fill="#E8E8E8"/>
<path d="M279.958 67.5288C278.294 63.3283 269.418 62.634 268.378 67.633C268.239 68.2925 267.233 68.0148 267.372 67.3552C268.655 61.2454 278.953 62.148 280.964 67.2511C281.207 67.876 280.201 68.119 279.958 67.5288Z" fill="#E8E8E8"/>
<path d="M274.757 62.8424C275.486 62.3217 275.763 61.315 275.278 60.5513C274.723 59.614 273.544 59.5098 272.642 59.9958C271.949 60.3777 271.81 61.2456 272.226 61.9051C272.746 62.7036 273.856 62.8077 274.723 62.5994C275.382 62.4606 275.659 63.4673 275 63.6062C273.613 63.9186 271.949 63.6062 271.255 62.2523C270.631 61.0373 271.082 59.5792 272.33 58.9891C273.717 58.3642 275.382 58.6419 276.179 59.9958C276.977 61.2803 276.456 62.8772 275.278 63.7103C274.723 64.1616 274.203 63.259 274.757 62.8424Z" fill="#E8E8E8"/>
<path d="M260.056 52.1501C256.416 42.4994 245.944 37.5699 236.201 36.9103C229.752 36.459 223.303 37.4657 216.992 38.6808C211.029 39.8611 204.822 41.7357 198.72 41.5274C193.692 41.3538 188.526 39.2709 186.168 34.5844C185.856 33.9943 186.757 33.4735 187.07 34.0637C189.809 39.4792 196.119 40.8678 201.702 40.4165C208.22 39.8958 214.635 37.9517 221.049 36.8756C231.451 35.1398 242.546 34.8968 251.804 40.7636C255.999 43.4367 259.328 47.1859 261.096 51.8724C261.304 52.4972 260.299 52.775 260.056 52.1501Z" fill="#E8E8E8"/>
<path d="M181.973 33.9943C172.819 33.9943 163.631 33.9943 154.477 33.9943C153.818 33.9943 153.818 32.9529 154.477 32.9529C163.631 32.9529 172.819 32.9529 181.973 32.9529C182.666 32.9529 182.666 33.9943 181.973 33.9943Z" fill="#E8E8E8"/>
<path d="M182.354 32.8835C183.984 31.2866 182.215 28.5789 180.932 27.3639C179.372 25.8364 177.222 25.2463 175.142 26.0794C174.969 26.1488 174.622 26.0447 174.553 25.8364C173.304 22.9204 170.357 20.8028 167.133 20.9416C163.769 21.0805 160.926 23.6147 160.094 26.8084C160.025 27.1209 159.609 27.2944 159.331 27.1209C157.806 26.1836 156.245 27.2944 155.621 28.7177C155.066 30.0369 155.205 31.5296 155.344 32.9529C155.413 33.6125 154.373 33.6125 154.304 32.9529C154.096 30.8701 153.957 28.4053 155.621 26.8084C156.8 25.6975 158.43 25.3504 159.817 26.2183C159.574 26.3224 159.296 26.4266 159.054 26.5307C159.99 23.0592 162.972 20.282 166.613 19.9349C170.357 19.553 173.963 21.8789 175.419 25.3157C175.211 25.2463 175.038 25.1421 174.83 25.0727C177.604 23.9618 180.516 25.1421 182.319 27.4333C183.672 29.1343 184.85 31.8768 183.013 33.6472C182.597 34.0985 181.869 33.3695 182.354 32.8835Z" fill="#E8E8E8"/>
<path d="M162.625 37.9865C158.361 37.5005 155.864 41.9787 155.205 45.5891C154.512 49.3035 155.171 53.018 155.552 56.7325C156.141 62.3216 155.76 69.0563 150.455 72.3195C149.9 72.6666 149.345 71.764 149.935 71.4169C157.182 66.9734 154.165 57.0797 153.888 50.2756C153.68 45.1031 155.725 36.1813 162.625 36.9451C163.284 37.0145 163.284 38.0559 162.625 37.9865Z" fill="#E8E8E8"/>
<path d="M144.699 66.4526C147.82 74.3329 150.906 82.2132 154.026 90.0587C154.269 90.6836 153.263 90.9613 153.021 90.3364C149.9 82.4562 146.814 74.5759 143.694 66.7304C143.451 66.1055 144.456 65.8625 144.699 66.4526Z" fill="#E8E8E8"/>
<path d="M144.214 67.1123C138.805 66.8346 133.43 66.9734 128.056 67.5983C128.229 67.39 128.403 67.147 128.541 66.9387C131.107 75.1661 133.188 83.4977 134.852 91.9334C134.991 92.593 133.985 92.8707 133.846 92.2111C132.182 83.7754 130.067 75.4438 127.536 67.2164C127.432 66.8693 127.709 66.5916 128.021 66.5568C133.396 65.932 138.77 65.7931 144.179 66.0708C144.872 66.1056 144.872 67.147 144.214 67.1123Z" fill="#E8E8E8"/>
<path d="M153.783 91.0655C150.594 91.2043 147.438 91.3779 144.248 91.5862C141.163 91.7598 137.869 91.6903 134.956 92.8706C134.332 93.1136 134.055 92.1069 134.679 91.8639C137.452 90.7183 140.608 90.7878 143.555 90.6142C146.953 90.4059 150.351 90.2323 153.783 90.0587C154.442 89.9893 154.442 91.0308 153.783 91.0655Z" fill="#E8E8E8"/>
<path d="M143.728 70.5837C140.4 70.6532 137.071 70.8962 133.777 71.3474C133.118 71.4516 132.841 70.4449 133.5 70.3407C136.898 69.8547 140.296 69.577 143.728 69.5076C144.422 69.5076 144.422 70.549 143.728 70.5837Z" fill="#E8E8E8"/>
<path d="M144.734 72.9444C142.862 72.875 140.989 72.9097 139.117 73.0832C138.458 73.1527 138.458 72.1112 139.117 72.0418C140.989 71.8682 142.862 71.7988 144.734 71.9029C145.393 71.9377 145.393 72.9791 144.734 72.9444Z" fill="#E8E8E8"/>
<path d="M147.022 77.6308C143.035 77.3878 139.256 77.0407 135.338 78.0127C134.679 78.1863 134.401 77.1795 135.06 77.006C139.082 76.0339 142.931 76.3464 147.022 76.5894C147.716 76.6241 147.716 77.6655 147.022 77.6308Z" fill="#E8E8E8"/>
<path d="M146.849 80.6858C144.56 80.5122 142.272 80.5122 139.984 80.7205C139.325 80.7899 139.325 79.7485 139.984 79.679C142.272 79.4708 144.56 79.4708 146.849 79.6443C147.508 79.7138 147.542 80.7552 146.849 80.6858Z" fill="#E8E8E8"/>
<path d="M148.652 84.7126C145.531 84.5043 142.48 84.6085 139.394 85.025C138.735 85.1292 138.735 84.0877 139.394 83.9836C142.48 83.567 145.566 83.4629 148.652 83.6712C149.311 83.7059 149.311 84.7473 148.652 84.7126Z" fill="#E8E8E8"/>
<path d="M321.185 38.1253C319.798 39.9999 317.787 40.7637 315.741 41.701C313.314 42.8118 311.095 44.3046 309.292 46.2833C305.2 50.6921 303.848 56.6283 303.744 62.4951C303.501 73.4997 307.212 85.025 302.219 95.4395C301.941 96.0296 301.04 95.5089 301.317 94.9188C306.553 83.9489 301.907 71.6598 302.808 60.1345C303.189 55.1356 304.611 50.2408 307.836 46.3527C309.361 44.5129 311.234 42.916 313.314 41.7357C315.637 40.4165 318.654 39.8264 320.283 37.6046C320.665 37.0839 321.566 37.6046 321.185 38.1253Z" fill="#E8E8E8"/>
<path d="M333.043 23.4411C333.944 22.2955 333.875 21.4971 332.835 21.0458C332.384 20.8028 331.933 20.6292 331.413 20.5251C330.754 20.3862 330.026 20.3515 329.333 20.3862C327.252 20.4904 325.137 21.0458 325.241 23.58C325.345 26.5654 325.9 29.5162 326.628 32.3975C327.391 35.3483 328.327 38.2296 329.333 41.111C329.541 41.7358 329.714 42.4648 330.026 43.055C330.65 44.1311 331.621 44.0964 332.661 44.0964C333.944 44.0964 335.574 44.27 336.822 43.9228C338.209 43.541 338.521 42.1524 337.169 41.2498C336.545 40.8332 335.678 40.7638 334.95 40.7638C334.014 40.7638 333.182 40.9721 332.384 40.3472C330.858 39.1669 330.616 35.9732 330.269 34.2721C329.749 31.8074 328.882 28.7872 329.055 26.2877C329.194 24.3784 331.067 24.309 332.419 23.5105C333.008 23.1634 333.528 24.066 332.939 24.4131C331.864 25.038 330.304 25.1074 330.096 26.5307C329.853 28.197 330.546 30.4535 330.858 32.1198C331.171 33.7167 331.517 35.3136 331.933 36.8757C332.245 38.056 332.384 39.4794 333.944 39.7918C334.569 39.9306 335.331 39.7224 335.99 39.8265C337.654 40.0695 339.284 41.2498 339.041 43.1244C338.729 45.485 335.921 45.0684 334.187 45.1379C332.037 45.2073 329.888 45.5197 328.917 43.2286C327.703 40.3819 326.836 37.2576 326.004 34.3068C325.137 31.2519 324.479 28.0929 324.236 24.9338C324.028 22.4691 323.924 20.4904 326.663 19.8308C329.055 19.2406 332.349 18.9629 334.222 20.9069C335.47 22.1914 335.158 24.7256 333.008 24.552C332.384 24.4131 332.384 23.3717 333.043 23.4411Z" fill="#E8E8E8"/>
<path d="M337.238 27.1556C337.273 27.1208 337.308 27.0861 337.342 27.0514C337.481 26.9125 337.689 26.8778 337.863 26.9125C338.868 27.2597 339.249 28.8913 339.527 29.7939C340.012 31.4602 340.116 33.1612 339.874 34.8969C339.804 35.5565 338.764 35.5565 338.833 34.8969C338.972 33.6819 339.007 32.5016 338.799 31.2866C338.695 30.6617 337.62 28.2317 338.001 27.8846C337.516 28.3706 336.788 27.6416 337.238 27.1556Z" fill="#E8E8E8"/>
<path d="M340.74 23.3369C343.93 27.3985 345.976 32.2933 344.624 37.5005C344.45 38.1601 343.445 37.8824 343.618 37.2228C344.866 32.4321 342.925 27.8151 340.012 24.0659C339.596 23.5451 340.324 22.8161 340.74 23.3369Z" fill="#E8E8E8"/>
<path d="M345.109 18.6504C350.414 25.6281 352.91 34.4456 352.009 43.1938C351.94 43.8533 350.899 43.8533 350.969 43.1938C351.836 34.6192 349.443 26.0446 344.207 19.1711C343.826 18.6504 344.728 18.1297 345.109 18.6504Z" fill="#E8E8E8"/>
<path d="M352.494 54.1289C355.164 55.4134 357.661 57.1838 359.637 59.4056C361.648 61.6968 362.272 64.1615 362.584 67.147C363.278 73.9858 365.809 81.4842 372.674 84.3655C373.298 84.6085 373.021 85.6153 372.397 85.3723C366.918 83.0811 363.728 77.8739 362.376 72.2501C361.579 68.8827 361.96 64.8905 360.192 61.8703C358.389 58.7807 355.13 56.5243 351.974 54.9968C351.35 54.7538 351.87 53.8512 352.494 54.1289Z" fill="#E8E8E8"/>
<path d="M387.341 102.799C389.629 102.868 392.23 101.896 393.062 99.5359C394.033 96.7587 391.952 94.0509 389.733 92.6276C385.434 89.8504 379.643 88.7743 374.65 88.7048C372.119 88.6701 369.241 88.7048 367.022 90.0587C364.179 91.7945 363.694 95.0576 365.913 97.5224C369.276 101.272 375.066 101.653 379.713 102.001C380.371 102.035 380.371 103.077 379.713 103.042C375.066 102.695 369.866 102.278 366.121 99.154C362.688 96.3074 362.446 91.5862 366.468 89.1214C370.628 86.5872 376.974 87.4204 381.481 88.3924C385.815 89.3297 391.744 91.0307 393.686 95.5089C395.697 100.091 391.848 103.91 387.271 103.771C386.647 103.806 386.647 102.764 387.341 102.799Z" fill="#E8E8E8"/>
<path d="M387.514 103.216C388.381 104.604 389.213 105.993 390.08 107.347C390.357 107.798 389.803 108.284 389.352 108.076C387.237 106.93 384.948 106.201 382.799 105.194C381.62 104.674 380.476 104.049 379.366 103.354C378.985 103.111 378.534 102.973 378.43 102.487C378.361 102.244 378.499 101.896 378.777 101.862C378.811 101.862 378.846 101.862 378.881 101.827C379.123 101.792 379.47 101.896 379.505 102.174C379.505 102.209 379.505 102.209 379.505 102.244C379.644 102.903 378.638 103.181 378.499 102.521C378.499 102.487 378.499 102.487 378.499 102.452C378.707 102.556 378.915 102.695 379.123 102.799C379.089 102.799 379.054 102.799 379.019 102.834C379.123 102.625 379.262 102.417 379.366 102.209C379.47 102.556 381.412 103.354 381.828 103.597C382.868 104.153 383.943 104.604 385.053 105.055C386.682 105.715 388.277 106.34 389.803 107.173C389.56 107.416 389.317 107.659 389.075 107.902C388.208 106.513 387.376 105.125 386.509 103.771C386.266 103.181 387.168 102.66 387.514 103.216Z" fill="#E8E8E8"/>
<path d="M386.37 97.2099C386.405 97.1405 386.405 97.0016 386.301 97.0016C386.023 97.0016 386.335 97.3488 386.37 97.3835C386.544 97.4877 387.133 97.6265 387.098 97.2794C387.064 96.8628 386.266 96.4115 386.127 97.0364C386.093 97.2099 386.231 97.4182 386.405 97.4529C386.509 97.4877 386.578 97.4877 386.648 97.4182C386.682 97.3835 386.752 97.3488 386.682 97.3488C386.023 97.3835 386.023 96.3421 386.682 96.3074C387.376 96.2379 387.896 96.9669 387.722 97.6265C387.549 98.2861 386.786 98.6332 386.162 98.4597C385.538 98.2861 385.053 97.7307 385.053 97.0711C385.053 96.4115 385.573 95.8561 386.162 95.7172C387.445 95.4048 388.797 97.2794 387.688 98.2167C386.786 98.9804 384.983 98.2861 385.087 97.0016C385.157 96.3074 385.919 95.7519 386.613 95.9949C387.306 96.2379 387.584 97.1058 387.237 97.7307C386.96 98.3208 386.058 97.8001 386.37 97.2099Z" fill="#E8E8E8"/>
<path d="M378.707 96.2727C378.742 96.0644 378.846 95.7867 378.638 95.6131C378.534 95.509 378.361 95.509 378.222 95.509C377.875 95.5784 377.944 95.9603 378.187 96.1338C378.326 96.238 378.465 96.238 378.569 96.0991C378.673 95.9603 378.638 95.9256 378.534 95.8561C378.465 95.8214 378.673 95.8561 378.499 95.8214C378.083 95.752 378.777 96.238 378.673 95.8908C378.881 96.5504 377.875 96.7934 377.667 96.1686C377.494 95.5437 378.083 94.9188 378.707 95.023C379.435 95.1618 379.609 96.0297 379.158 96.5504C378.742 97.0364 377.979 96.9323 377.667 96.3769C377.355 95.8214 377.563 95.0924 378.187 94.8841C378.811 94.6758 379.505 95.0577 379.643 95.6826C379.817 96.3769 379.331 97.0712 378.638 97.2447C377.39 97.5224 376.35 95.8214 377.251 94.8841C377.702 94.4328 378.43 94.3981 378.985 94.6411C379.747 95.023 379.782 95.8214 379.643 96.5504C379.609 97.21 378.603 96.9323 378.707 96.2727Z" fill="#E8E8E8"/>
<path d="M371.01 93.9469C370.871 93.9469 370.732 93.9816 370.559 93.9816V93.9469C370.524 93.9122 370.524 93.8428 370.49 93.808C370.455 93.7386 370.351 93.6692 370.282 93.6345C370.108 93.565 369.935 93.565 369.831 93.7386C369.692 94.0163 369.935 94.537 370.282 94.3288C370.49 94.1899 370.524 93.8427 370.212 93.9122C370.143 93.9122 370.108 93.9469 370.074 93.9816C370.074 93.9816 370.074 94.051 370.074 93.9816C370.074 93.9122 370.074 94.0163 370.108 94.0163C370.212 94.0858 370.247 94.1552 370.351 94.0858C370.594 93.9122 370.94 94.051 371.079 94.2593C371.218 94.537 371.114 94.8148 370.906 94.9883C369.9 95.7174 368.548 94.2593 369.345 93.2873C370.074 92.4194 371.634 92.9749 371.565 94.1205C371.53 94.7106 371.079 95.2313 370.524 95.3702C369.97 95.5091 369.38 95.2313 369.068 94.7453C368.375 93.6692 369.345 92.1764 370.628 92.593C371.218 92.8013 371.738 93.3915 371.669 94.051C371.599 94.78 370.559 95.1619 370.178 94.4329C369.831 93.8775 370.698 93.3567 371.01 93.9469Z" fill="#E8E8E8"/>
<path d="M350.067 63.6755C345.803 61.3149 342.092 58.1906 339.007 54.4067C338.591 53.886 339.319 53.157 339.735 53.6777C342.751 57.3922 346.392 60.4471 350.587 62.773C351.177 63.0854 350.657 63.988 350.067 63.6755Z" fill="#E8E8E8"/>
<path d="M298.196 64.5782C298.959 68.9523 299.271 73.361 299.063 77.8045C299.029 78.4641 297.988 78.4641 298.023 77.8045C298.231 73.4652 297.954 69.1258 297.191 64.8559C297.087 64.1963 298.092 63.9186 298.196 64.5782Z" fill="#E8E8E8"/>
<path d="M303.501 166.049C303.501 160.738 301.005 155.704 296.74 152.511C296.22 152.129 296.74 151.226 297.26 151.608C301.837 155.01 304.507 160.322 304.507 166.049C304.542 166.709 303.501 166.709 303.501 166.049Z" fill="#E8E8E8"/>
<path d="M245.424 306.228C244.869 311.227 244.002 316.712 242.615 322.648C240.743 330.667 238.351 337.679 235.958 343.581C236.617 344.171 238.593 345.733 241.506 345.942C243.344 346.08 244.8 345.629 245.632 345.317C246.88 340.977 248.094 336.464 249.203 331.778C251.492 322.127 253.156 312.928 254.37 304.353C251.353 304.978 248.371 305.603 245.424 306.228Z" fill="#191919"/>
<path d="M167.583 302.965C168.034 307.929 168.797 313.449 170.08 319.385C171.883 327.786 174.275 335.076 176.702 341.22C176.356 341.533 174.379 343.407 171.328 343.269C168.693 343.164 166.994 341.602 166.578 341.22C165.78 337.02 165.018 332.785 164.255 328.549C162.59 319.281 161.1 310.151 159.678 301.125C162.313 301.715 164.948 302.34 167.583 302.965Z" fill="#191919"/>
<path d="M229.579 289.114C228.781 294.425 227.845 299.91 226.77 305.534C225.21 313.692 223.441 321.468 221.569 328.827C222.367 329.313 223.962 330.112 226.146 330.251C227.984 330.355 229.44 329.938 230.272 329.626C231.312 324.696 232.318 319.697 233.323 314.698C235.161 305.43 236.86 296.3 238.49 287.274C235.508 287.864 232.56 288.489 229.579 289.114Z" fill="#191919"/>
<path d="M180.655 288.072C181.591 293.314 182.423 298.799 183.152 304.492C184.157 312.338 184.851 319.836 185.267 326.987C184.677 327.369 183.29 328.168 181.314 328.272C179.199 328.341 177.639 327.508 177.049 327.161C177.396 323.065 177.535 318.517 177.326 313.657C176.91 302.861 174.934 293.557 172.75 286.232C175.385 286.822 178.02 287.447 180.655 288.072Z" fill="#191919"/>
<path d="M119.041 171.916C112.973 182.747 117.654 194.724 129.027 224.475C134.505 238.777 144.526 265.056 158.672 302.513C172.576 307.582 195.599 313.83 224.066 311.852C240.605 310.706 254.474 307.13 264.98 303.451C266.54 300.639 271.949 290.12 267.892 279.914C265.639 274.256 261.096 270.194 251.457 265.403C241.957 260.682 225.21 254.052 200.869 252.837C210.404 205.312 194.073 166.362 168.658 157.371C151.98 151.504 127.397 157.024 119.041 171.916Z" fill="white" stroke="#191919" stroke-width="2" stroke-miterlimit="10"/>
<path d="M121.26 175.839C131.315 188.579 133.604 205.694 137.453 221.003C141.579 237.388 146.329 253.739 153.437 269.118C157.355 277.553 161.966 285.677 167.479 293.175C167.861 293.731 166.959 294.251 166.578 293.696C156.904 280.504 150.074 265.542 144.803 250.129C139.464 234.438 135.927 218.261 131.766 202.257C129.408 193.162 126.392 184.066 120.497 176.603C120.116 176.047 120.844 175.318 121.26 175.839Z" fill="#191919"/>
<path d="M264.771 295.918C241.645 304.423 216.437 306.922 192.097 303.138C185.128 302.062 178.228 300.465 171.466 298.382C170.842 298.174 171.085 297.167 171.744 297.376C195.321 304.666 220.633 305.777 244.765 300.639C251.457 299.215 258.08 297.271 264.494 294.911C265.118 294.668 265.396 295.675 264.771 295.918Z" fill="#191919"/>
<path d="M183.359 268.632C177.534 270.541 172.576 274.394 169.247 279.602C168.901 280.157 167.999 279.636 168.346 279.081C171.813 273.665 176.98 269.638 183.082 267.625C183.741 267.417 184.018 268.423 183.359 268.632Z" fill="#191919"/>
<path d="M287.656 313.587C284.882 317.753 282.108 321.954 279.369 326.119C297.122 342.088 299.41 346.636 298.092 347.747C295.457 349.934 276.561 340.214 274.619 339.207C267.58 335.597 262.275 332.09 258.739 329.591C259.987 326.189 261.651 322.37 263.94 318.343C266.956 313.032 270.285 308.554 273.44 304.909C278.19 307.755 282.94 310.671 287.656 313.587Z" fill="#191919"/>
<path d="M183.914 231.765C182.666 234.472 181.348 238.326 181.14 242.977C180.828 249.99 183.117 255.579 184.85 258.807C185.787 260.022 187.451 262.036 189.913 264.223C189.913 264.223 195.495 269.152 204.371 272.936C213.421 276.824 239.738 281.511 275.486 282.413C274.445 286.857 272.573 292.307 269.245 298.174C267.407 301.402 265.396 304.249 263.419 306.714C264.737 308.45 268.482 312.858 275.936 315.635C283.114 318.309 289.702 317.996 292.302 317.788C296.047 314.351 299.895 310.255 303.467 305.36C313.973 290.884 316.435 276.894 316.885 267.903C314.285 266.028 310.471 263.459 305.478 260.717C295.076 254.989 285.541 251.864 277.705 249.539C264.217 245.581 251.319 242.839 221.639 237.805C212.346 236.243 199.482 234.09 183.914 231.765Z" fill="white" stroke="#191919" stroke-width="2" stroke-miterlimit="10"/>
<path opacity="0.19" d="M216.854 237.736C217.859 244.366 220.702 252.975 229.509 258.321C238.073 263.529 245.251 261.411 262.414 265.577C274.758 268.562 291.089 272.52 295.631 281.303C300.381 290.537 291.401 303.555 275.694 314.247C274.376 314.073 272.712 313.726 270.943 313.032C266.401 311.227 264.182 308.276 263.35 306.992C265.361 304.562 267.442 301.75 269.349 298.521C272.955 292.481 274.896 286.857 276.006 282.309C257.629 281.546 242.2 279.949 230.48 278.421C216.368 276.581 206.59 274.742 197.263 269.465C189.462 265.056 186.341 260.717 185.232 259.05C181.869 253.947 181.591 249.296 181.452 246.692C181.106 240.339 183.186 235.167 184.92 231.903C195.564 233.847 206.209 235.791 216.854 237.736Z" fill="#6C6D6D"/>
<path opacity="0.19" d="M184.573 232.632C185.267 239.089 187.728 249.296 197.541 257.349C203.574 262.314 210.058 264.535 235.508 271.409C246.742 274.429 260.334 278.005 275.798 281.893C256.138 281.684 240.154 280.053 228.677 278.491C216.784 276.859 210.959 275.436 204.926 272.832C199.205 270.367 187.659 265.369 182.944 254.85C178.401 244.644 182.978 235.479 184.573 232.632Z" fill="#6C6D6D"/>
<path opacity="0.22" d="M275.694 282.413C275.832 286.996 275.624 292.238 274.758 298C273.925 303.694 272.573 308.797 271.117 313.24C269.938 312.546 268.586 311.609 267.268 310.463C265.673 309.074 264.494 307.755 263.628 306.61C265.639 303.971 267.684 300.916 269.591 297.48C272.677 291.925 274.515 286.788 275.694 282.413Z" fill="#6C6D6D"/>
<path d="M277.289 333.514C274.619 338.756 271.984 343.998 269.314 349.274C286.373 369.339 288.592 375.033 287.309 376.421C284.778 379.198 266.609 366.944 264.737 365.694C257.976 361.147 252.844 356.738 249.446 353.614C250.66 349.344 252.255 344.553 254.474 339.45C257.352 332.785 260.576 327.161 263.593 322.544C268.17 326.224 272.746 329.869 277.289 333.514Z" fill="#191919"/>
<path d="M177.569 230.688C176.356 234.125 175.107 238.916 174.899 244.783C174.587 253.6 176.806 260.613 178.471 264.674C179.372 266.202 180.967 268.736 183.325 271.513C183.325 271.513 188.664 277.727 197.194 282.483C205.897 287.343 231.208 293.279 265.535 294.39C264.529 299.979 262.761 306.818 259.536 314.178C257.768 318.239 255.826 321.815 253.919 324.904C255.167 327.091 258.773 332.611 265.951 336.117C272.851 339.485 279.161 339.103 281.692 338.79C285.298 334.486 289.008 329.313 292.406 323.169C302.531 304.978 304.888 287.378 305.304 276.095C302.808 273.77 299.133 270.506 294.348 267.07C284.327 259.884 275.208 255.926 267.65 253.01C254.717 248.046 242.269 244.609 213.733 238.256C204.926 236.278 192.513 233.605 177.569 230.688Z" fill="white" stroke="#191919" stroke-width="2" stroke-miterlimit="10"/>
<path opacity="0.19" d="M209.225 238.187C210.196 246.518 212.935 257.315 221.396 264.049C229.613 270.61 236.548 267.937 253.017 273.179C264.876 276.929 280.582 281.927 284.951 292.967C289.528 304.562 280.895 320.947 265.812 334.347C264.529 334.139 262.934 333.687 261.235 332.819C256.866 330.563 254.751 326.848 253.954 325.217C255.895 322.162 257.906 318.621 259.744 314.559C263.211 306.957 265.084 299.91 266.124 294.182C248.441 293.21 233.635 291.231 222.332 289.322C208.74 287.031 199.378 284.705 190.398 278.074C182.909 272.52 179.892 267.07 178.852 264.987C175.627 258.564 175.35 252.732 175.211 249.469C174.899 241.485 176.875 234.993 178.54 230.897C188.768 233.292 198.997 235.722 209.225 238.187Z" fill="#6C6D6D"/>
<path opacity="0.19" d="M178.228 231.765C178.887 239.853 181.245 252.698 190.676 262.834C196.501 269.083 202.707 271.86 227.152 280.504C237.97 284.323 251.007 288.801 265.881 293.696C246.985 293.418 231.59 291.405 220.564 289.426C209.122 287.378 203.505 285.607 197.749 282.344C192.236 279.22 181.175 272.971 176.598 259.71C172.264 246.865 176.668 235.375 178.228 231.765Z" fill="#6C6D6D"/>
<path opacity="0.22" d="M265.777 294.355C265.916 300.118 265.708 306.714 264.876 313.935C264.044 321.12 262.795 327.508 261.374 333.062C260.23 332.16 258.947 331.014 257.664 329.556C256.138 327.82 254.994 326.154 254.162 324.731C256.104 321.398 258.08 317.58 259.883 313.24C262.865 306.297 264.668 299.806 265.777 294.355Z" fill="#6C6D6D"/>
<path d="M279.265 176.742C279.924 176.429 281.241 175.839 281.207 175.179C281.137 174.103 277.566 173.374 274.896 173.409C273.093 173.409 269.765 173.791 265.881 176.499C269.522 177.644 274.896 178.686 279.265 176.742Z" fill="white" stroke="#191919" stroke-width="2" stroke-miterlimit="10"/>
<path d="M195.877 131.716C202.464 130.849 208.393 140.742 208.948 141.645C210.959 145.082 211.202 147.373 212.589 153.656C215.952 168.965 217.755 176.742 222.748 181.428C227.256 185.629 232.526 186.635 233.913 186.844C239.842 187.781 245.216 185.559 255.687 181.081C264.529 177.297 265.604 175.908 270.423 175.353C272.885 175.075 280.063 174.277 284.813 178.894C287.864 181.845 289.216 186.566 288.107 187.538C286.685 188.788 280.86 184.379 280.791 184.483C280.756 184.552 282.524 185.386 283.981 187.191C284.709 188.059 285.957 189.933 285.506 190.419C284.709 191.391 279.82 185.49 274.446 186.531C270.77 187.225 270.077 190.558 265.812 191.183C263.315 191.565 261.131 190.801 259.744 190.141C257.317 192.78 253.364 196.529 247.643 199.584C244.245 201.389 232.248 207.603 217.582 203.993C202.014 200.174 194.178 187.989 191.716 184.171C190.329 181.984 180.135 165.668 185.059 147.373C185.925 144.422 189.081 132.619 195.877 131.716Z" fill="white" stroke="#191919" stroke-width="2" stroke-miterlimit="10"/>
<path opacity="0.25" d="M196.57 131.821C198.824 133.001 194.455 141.194 195.01 152.927C195.53 164.209 200.349 172.541 202.499 176.36C205.412 181.463 209.26 188.128 216.923 192.467C227.221 198.299 239.981 197.432 249.065 193.474C251.769 192.294 254.509 188.475 260.472 186.149C263.073 185.142 265.119 184.726 267.511 184.24C273.371 183.094 278.572 182.053 283.391 184.483C285.68 185.663 287.587 187.468 287.448 187.711C287.309 187.954 284.639 186.6 282.282 185.316C285.125 189.1 285.576 190.176 285.368 190.384C285.125 190.593 284.258 189.794 282.039 188.545C279.647 187.225 277.913 186.288 275.798 186.462C274.723 186.566 273.891 186.913 273.405 187.121C271.498 187.954 271.048 188.926 269.141 189.898C267.962 190.489 266.991 190.732 266.471 190.836C265.361 191.079 263.073 191.391 260.056 190.315C257.421 193.092 245.32 205.381 227.602 205.138C218.483 204.999 211.791 201.597 209.156 200.243C194.698 192.71 188.942 179.345 187.486 175.665C182.978 164.279 181.383 147.407 189.635 136.819C191.612 134.251 195.01 131.022 196.57 131.821Z" fill="#6C6D6D"/>
<path d="M287.482 187.538C286.13 185.524 284.362 183.928 282.247 182.782C281.796 182.539 282.212 181.879 282.628 182.122C284.847 183.337 286.72 185.038 288.141 187.156C288.453 187.573 287.76 187.954 287.482 187.538Z" fill="#191919"/>
<path d="M287.066 183.06C285.713 180.942 283.529 179.831 281.345 178.755C280.894 178.547 281.275 177.852 281.726 178.095C284.049 179.206 286.337 180.421 287.759 182.678C288.002 183.094 287.343 183.476 287.066 183.06Z" fill="#191919"/>
<path opacity="0.29" d="M186.619 144.318C187.139 147.824 188.075 152.893 189.739 158.863C192.999 170.667 195.946 181.289 203.643 189.725C213.178 200.139 226.111 202.986 233.531 203.854C228.018 205.138 223.684 204.895 220.945 204.513C200.141 201.597 188.907 179.206 185.856 169.417C185.336 167.681 184.226 164.105 184.088 159.211C183.845 152.684 185.44 147.442 186.619 144.318Z" fill="#6C6D6D"/>
<path opacity="0.26" d="M273.752 186.115C271.776 187.087 269.071 188.163 265.743 188.788C263.108 189.274 260.75 189.378 258.877 189.308C263.628 191.843 266.089 191.53 267.476 190.697C268.343 190.176 269.314 189.135 271.984 187.295C272.712 186.774 273.336 186.358 273.752 186.115Z" fill="#6C6D6D"/>
<path d="M343.861 243.186C343.861 259.849 343.861 276.547 343.861 293.21C343.861 295.223 340.74 295.223 340.74 293.21C340.74 276.547 340.74 259.849 340.74 243.186C340.74 241.207 343.861 241.172 343.861 243.186Z" fill="#161616"/>
<path d="M287.136 242.526C287.136 245.199 287.136 247.872 287.136 250.545C287.136 252.559 284.015 252.559 284.015 250.545C284.015 247.872 284.015 245.199 284.015 242.526C284.015 240.513 287.136 240.513 287.136 242.526Z" fill="#161616"/>
<path d="M386.925 241.138C370.108 225.273 353.292 209.374 336.441 193.509C309.222 193.995 282.039 194.481 254.82 194.967C259.259 210.38 263.697 225.759 268.135 241.172C307.731 241.138 347.328 241.138 386.925 241.138Z" fill="white" stroke="#191919" stroke-width="2" stroke-miterlimit="10"/>
<path d="M385.919 242.943C355.511 242.943 325.137 242.943 294.729 242.943C286.2 242.943 277.705 242.943 269.175 242.943C267.164 242.943 267.164 234.577 269.175 234.577C299.583 234.577 329.957 234.577 360.365 234.577C368.895 234.577 377.39 234.577 385.919 234.577C387.93 234.577 387.93 242.943 385.919 242.943Z" fill="#161616"/>
<path d="M377.008 242.422C377.008 276.963 377.008 311.504 377.008 346.011C377.008 355.696 377.008 365.347 377.008 375.033C377.008 377.046 373.888 377.046 373.888 375.033C373.888 340.491 373.888 305.95 373.888 271.444C373.888 261.758 373.888 252.107 373.888 242.422C373.888 240.409 377.008 240.409 377.008 242.422Z" fill="#161616"/>
<path d="M281.9 242.422C281.9 276.963 281.9 311.504 281.9 346.011C281.9 355.696 281.9 365.347 281.9 375.033C281.9 377.046 278.78 377.046 278.78 375.033C278.78 340.491 278.78 305.95 278.78 271.444C278.78 261.758 278.78 252.107 278.78 242.422C278.78 240.409 281.9 240.409 281.9 242.422Z" fill="#161616"/>
<path d="M375.448 306.888C350.969 306.888 326.49 306.888 302.011 306.888C295.076 306.888 288.141 306.888 281.207 306.888C279.196 306.888 279.196 303.763 281.207 303.763C305.686 303.763 330.165 303.763 354.644 303.763C361.579 303.763 368.513 303.763 375.448 303.763C377.459 303.763 377.459 306.888 375.448 306.888Z" fill="#161616"/>
<path d="M255.237 194.967C259.189 210.415 263.731 225.724 268.932 240.79C269.383 242.075 267.372 242.596 266.921 241.346C261.72 226.245 257.178 210.97 253.226 195.522C252.913 194.238 254.89 193.682 255.237 194.967Z" fill="#161616"/>
<path d="M421.251 378.435C402.84 378.435 384.463 378.435 366.052 378.435C364.041 378.435 364.041 375.31 366.052 375.31C384.463 375.31 402.84 375.31 421.251 375.31C423.262 375.31 423.262 378.435 421.251 378.435Z" fill="#161616"/>
<path d="M358.319 377.74C354.089 377.74 349.824 377.74 345.594 377.74C343.583 377.74 343.583 374.616 345.594 374.616C349.824 374.616 354.089 374.616 358.319 374.616C360.33 374.616 360.33 377.74 358.319 377.74Z" fill="#161616"/>
<path d="M303.12 378.192C286.546 378.192 269.973 378.192 253.364 378.192C251.353 378.192 251.353 375.067 253.364 375.067C269.938 375.067 286.512 375.067 303.12 375.067C305.131 375.067 305.131 378.192 303.12 378.192Z" fill="#161616"/>
<path d="M242.026 377.081C239.079 377.081 236.132 377.081 233.15 377.081C231.139 377.081 231.139 373.956 233.15 373.956C236.097 373.956 239.044 373.956 242.026 373.956C244.037 373.956 244.037 377.081 242.026 377.081Z" fill="#161616"/>
<path d="M437.963 367.43C430.786 367.43 423.609 367.43 416.466 367.43C414.455 367.43 414.455 364.306 416.466 364.306C423.643 364.306 430.821 364.306 437.963 364.306C439.974 364.306 439.974 367.43 437.963 367.43Z" fill="#161616"/>
<path d="M286.304 234.577C307.697 234.021 329.125 233.5 350.518 232.945C337.828 220.795 325.172 208.61 312.482 196.46C297.85 197.223 283.183 197.987 268.551 198.751C274.48 210.728 280.375 222.635 286.304 234.577Z" fill="white" stroke="#191919" stroke-width="2" stroke-miterlimit="10"/>
<path d="M313.21 196.217C325.658 208.263 338.105 220.343 350.553 232.39C351.107 213.088 351.697 193.752 352.252 174.451C339.631 166.466 327.01 158.482 314.389 150.497C314.042 165.737 313.626 180.977 313.21 196.217Z" fill="white" stroke="#191919" stroke-width="2" stroke-miterlimit="10"/>
<path d="M351.107 176.29C350.102 193.474 349.443 210.693 349.096 227.911C349.096 228.258 348.576 228.258 348.576 227.911C348.923 210.693 349.582 193.474 350.587 176.29C350.622 175.978 351.142 175.978 351.107 176.29Z" fill="#191919"/>
<path d="M350.83 176.36C339.215 168.792 327.599 161.224 315.984 153.656C315.706 153.483 315.949 153.031 316.261 153.205C327.877 160.773 339.492 168.341 351.108 175.909C351.385 176.117 351.142 176.568 350.83 176.36Z" fill="#191919"/>
<path d="M316.122 153.622C316.157 167.473 315.741 181.359 314.839 195.175C314.805 195.522 314.285 195.522 314.319 195.175C315.186 181.324 315.637 167.473 315.602 153.622C315.602 153.309 316.122 153.309 316.122 153.622Z" fill="#191919"/>
<path d="M348.75 228.64C337.377 217.636 325.969 206.631 314.597 195.661C314.354 195.418 314.735 195.071 314.978 195.279C326.351 206.284 337.758 217.289 349.131 228.258C349.339 228.501 348.992 228.883 348.75 228.64Z" fill="#191919"/>
<path d="M296.081 222.739C293.966 219.371 291.851 215.969 289.806 212.533C289.632 212.255 290.083 211.977 290.256 212.255C292.302 215.692 294.417 219.094 296.532 222.461C296.74 222.739 296.289 223.016 296.081 222.739Z" fill="#191919"/>
<path d="M289.945 212.428C287.205 212.533 284.466 212.533 281.727 212.394C281.38 212.394 281.38 211.873 281.727 211.873C284.466 211.977 287.205 211.977 289.945 211.908C290.291 211.908 290.291 212.428 289.945 212.428Z" fill="#191919"/>
<path d="M282.073 212.255C283.634 215.657 285.229 219.059 286.824 222.461C286.962 222.774 286.512 223.017 286.373 222.739C284.778 219.337 283.183 215.935 281.623 212.533C281.484 212.186 281.935 211.943 282.073 212.255Z" fill="#191919"/>
<path d="M296.255 223.017C293.204 223.468 289.979 223.26 286.893 223.121C286.547 223.121 286.547 222.6 286.893 222.6C289.91 222.739 293.1 222.947 296.116 222.531C296.463 222.461 296.602 222.982 296.255 223.017Z" fill="#191919"/>
<path d="M284.882 212.29C286.269 215.761 287.864 219.128 289.667 222.392C289.84 222.669 289.39 222.947 289.216 222.669C287.413 219.337 285.784 215.935 284.362 212.428C284.258 212.116 284.743 211.977 284.882 212.29Z" fill="#191919"/>
<path d="M335.123 228.016C327.495 218.573 319.59 209.339 311.442 200.313C311.234 200.07 311.58 199.688 311.823 199.931C319.971 208.922 327.877 218.156 335.505 227.634C335.713 227.911 335.331 228.259 335.123 228.016Z" fill="#191919"/>
<path d="M325.9 228.606C319.07 219.059 311.858 209.825 304.299 200.868C304.091 200.625 304.438 200.244 304.68 200.487C312.274 209.478 319.486 218.747 326.351 228.328C326.559 228.606 326.108 228.883 325.9 228.606Z" fill="#191919"/>
<path d="M315.984 230.029C310.055 220.1 303.571 210.519 296.567 201.32C296.359 201.042 296.809 200.799 297.018 201.042C304.021 210.241 310.505 219.823 316.434 229.751C316.608 230.029 316.157 230.307 315.984 230.029Z" fill="#191919"/>
<path d="M307.662 230.897C301.837 220.031 294.937 209.79 287.032 200.348C286.824 200.105 287.171 199.723 287.413 199.966C295.353 209.443 302.288 219.719 308.148 230.619C308.286 230.931 307.836 231.209 307.662 230.897Z" fill="#191919"/>
<path d="M330.685 222.392C321.809 221.454 312.932 222.565 304.091 223.745C303.744 223.78 303.779 223.259 304.091 223.225C312.898 222.044 321.774 220.899 330.685 221.871C330.997 221.906 330.997 222.426 330.685 222.392Z" fill="#191919"/>
<path d="M326.212 217.323C317.821 217.011 309.431 217.636 301.178 219.233C300.866 219.302 300.728 218.781 301.04 218.747C309.326 217.15 317.787 216.525 326.212 216.837C326.524 216.803 326.524 217.323 326.212 217.323Z" fill="#191919"/>
<path d="M322.19 212.429C314.111 211.908 306.033 212.637 298.162 214.581C297.85 214.65 297.711 214.164 298.023 214.095C305.929 212.116 314.042 211.387 322.19 211.908C322.537 211.943 322.537 212.463 322.19 212.429Z" fill="#191919"/>
<path d="M318.029 207.534C310.263 207.569 302.565 208.367 294.972 209.929C294.66 209.999 294.521 209.478 294.833 209.443C302.461 207.881 310.228 207.083 318.029 207.048C318.341 207.013 318.341 207.534 318.029 207.534Z" fill="#191919"/>
<path d="M313.903 202.986C306.518 203.125 299.167 203.993 291.99 205.624C291.678 205.694 291.539 205.208 291.851 205.138C299.098 203.507 306.483 202.604 313.903 202.5C314.25 202.465 314.25 202.986 313.903 202.986Z" fill="#191919"/>
<path d="M290.118 208.263C293.516 213.262 296.879 218.261 300.277 223.26C300.45 223.537 300 223.815 299.826 223.537C296.428 218.538 293.065 213.539 289.667 208.54C289.459 208.228 289.91 207.985 290.118 208.263Z" fill="#191919"/>
<path d="M347.536 200.695C343.202 198.855 338.521 199.896 333.944 199.827C330.095 199.792 326.42 198.716 323.126 196.772C322.849 196.598 323.091 196.147 323.404 196.321C327.46 198.716 331.76 199.48 336.406 199.272C340.289 199.098 344.138 198.716 347.813 200.278C348.091 200.382 347.848 200.834 347.536 200.695Z" fill="#191919"/>
<path d="M335.851 198.542C328.431 194.342 324.999 185.49 317.267 181.775C316.955 181.636 317.232 181.185 317.544 181.324C325.311 185.073 328.709 193.891 336.129 198.091C336.406 198.265 336.163 198.716 335.851 198.542Z" fill="#191919"/>
<path d="M326.42 173.791C327.703 172.784 327.495 171.153 326.767 169.868C326.42 169.243 325.9 168.584 325.311 168.202C324.236 167.507 323.23 168.063 322.398 168.792C322.155 169 321.774 168.653 322.017 168.41C323.75 166.952 325.38 167.091 326.802 168.965C327.946 170.493 328.535 172.784 326.802 174.173C326.524 174.381 326.143 173.999 326.42 173.791Z" fill="#191919"/>
<path d="M219.628 148.414C229.128 158.968 231.694 170.562 233.081 177.123C235.612 189.274 232.942 194.134 232.769 217.219C232.699 227.043 233.115 234.993 233.427 239.992C231.278 241.658 217.963 251.587 200.176 248.324C187 245.928 179.06 237.666 176.564 234.854C175.974 231.556 175.142 226.696 174.171 220.795C169.04 188.961 166.508 172.819 169.698 161.259C171.605 154.246 176.321 143.138 189.705 131.647C195.322 132.827 208.81 136.438 219.628 148.414Z" fill="#EF722E"/>
<path opacity="0.19" d="M209.954 142.027C206.66 151.886 204.891 160.322 203.851 166.501C201.112 182.851 196.986 207.36 208.601 231.105C212.311 238.673 216.646 244.227 219.697 247.664C215.675 248.601 207.7 249.886 198.2 247.421C186.896 244.505 179.823 237.944 176.91 234.958C174.657 222.044 172.854 210.97 171.467 202.326C169.074 187.121 168.519 182.504 168.762 176.013C169.04 167.681 169.421 158.933 174.414 149.491C179.199 140.465 185.925 135.049 190.051 132.272C193.415 132.862 198.165 134.112 203.192 137.028C205.966 138.694 208.22 140.465 209.954 142.027Z" fill="#6C6D6D"/>
<path opacity="0.18" d="M170.565 158.586C171.189 158.62 169.872 168.236 171.917 181.497C175.697 206.041 187.832 223.051 192.513 229.091C196.431 234.125 202.568 241.068 211.549 247.907C208.324 248.393 204.025 248.601 199.101 247.664C187.416 245.477 179.996 238.291 177.153 235.201C176.425 230.966 175.246 224.336 173.755 216.143C170.253 196.98 169.56 194.689 169.005 188.718C167.479 172.437 169.837 158.586 170.565 158.586Z" fill="#6C6D6D"/>
<path d="M280.721 184.379C281.38 183.928 282.698 183.094 282.559 182.4C282.282 181.289 278.294 181.116 275.416 181.602C273.475 181.914 269.938 182.921 266.228 186.427C270.389 187.017 276.387 187.191 280.721 184.379Z" fill="white" stroke="#191919" stroke-width="2" stroke-miterlimit="10"/>
<path d="M182.839 151.122C189.809 149.074 197.957 158.482 198.685 159.384C201.459 162.682 202.117 165.043 204.718 171.43C211.028 187.052 214.322 194.932 220.564 199.028C226.146 202.708 232.006 202.847 233.566 202.847C240.119 202.812 245.528 199.549 256.069 193.023C264.945 187.503 265.846 185.837 270.978 184.448C273.579 183.754 281.207 181.671 287.136 185.733C290.915 188.302 293.238 193.092 292.198 194.307C290.88 195.869 283.807 192.19 283.772 192.329C283.738 192.398 285.818 192.988 287.69 194.654C288.627 195.453 290.291 197.189 289.91 197.813C289.216 198.994 282.906 193.578 277.289 195.592C273.475 196.946 273.266 200.591 268.794 202.014C266.159 202.847 263.662 202.396 262.067 201.945C259.917 205.173 256.277 209.79 250.66 213.991C247.296 216.49 235.438 225.099 218.969 223.815C201.493 222.461 190.883 210.901 187.589 207.325C185.682 205.277 171.848 189.76 173.963 169.556C174.275 166.258 175.627 153.274 182.839 151.122Z" fill="white" stroke="#191919" stroke-width="2" stroke-miterlimit="10"/>
<path opacity="0.25" d="M183.602 151.122C186.237 151.99 182.943 161.398 185.613 173.721C188.144 185.559 194.802 193.544 197.818 197.189C201.875 202.083 207.18 208.471 216.229 211.734C228.365 216.108 241.991 213.019 251.11 207.291C253.815 205.555 256.103 201.077 262.171 197.57C264.806 196.043 266.921 195.279 269.452 194.342C275.555 192.12 281.033 190.107 286.616 191.877C289.285 192.71 291.678 194.307 291.539 194.585C291.4 194.897 288.315 193.891 285.541 192.953C289.251 196.46 289.944 197.536 289.771 197.813C289.563 198.091 288.453 197.362 285.853 196.46C283.01 195.453 281.033 194.793 278.745 195.349C277.601 195.626 276.768 196.147 276.248 196.46C274.341 197.64 274.029 198.785 272.157 200.139C271.013 200.972 269.973 201.389 269.418 201.597C268.274 202.049 265.846 202.778 262.414 202.153C260.056 205.555 249.134 220.621 229.96 223.398C220.078 224.822 212.277 222.392 209.191 221.385C192.27 215.9 183.706 202.778 181.487 199.133C174.622 187.885 169.941 170.319 177.014 157.683C178.679 154.524 181.799 150.532 183.602 151.122Z" fill="#6C6D6D"/>
<path d="M291.574 194.411C289.736 192.502 287.586 191.114 285.09 190.28C284.604 190.107 284.812 189.378 285.298 189.517C287.898 190.419 290.221 191.877 292.128 193.856C292.475 194.238 291.92 194.793 291.574 194.411Z" fill="#191919"/>
<path d="M290.326 189.76C288.488 187.711 285.922 186.913 283.356 186.184C282.871 186.045 283.079 185.281 283.564 185.42C286.234 186.219 288.939 187.087 290.846 189.204C291.227 189.586 290.672 190.107 290.326 189.76Z" fill="#191919"/>
<path opacity="0.29" d="M175.038 166.049C176.217 169.66 178.124 174.867 180.932 180.907C186.515 192.815 191.542 203.541 201.355 211.144C213.455 220.517 227.949 221.315 236.097 220.934C230.376 223.259 225.626 223.745 222.609 223.815C199.656 224.301 183.567 202.535 178.574 192.745C177.708 191.009 175.905 187.399 174.864 182.261C173.512 175.353 174.31 169.556 175.038 166.049Z" fill="#6C6D6D"/>
<path opacity="0.26" d="M276.456 195.245C274.515 196.599 271.775 198.195 268.273 199.445C265.5 200.417 262.969 200.903 260.957 201.146C266.54 202.986 269.14 202.257 270.493 201.146C271.325 200.452 272.192 199.167 274.792 196.772C275.451 196.113 276.04 195.592 276.456 195.245Z" fill="#6C6D6D"/>
<path d="M236.583 81.1024C236.964 83.3241 237.345 85.5459 237.657 87.8717C239.01 97.3142 239.564 106.236 239.599 114.533C237.692 114.324 235.82 114.116 233.913 113.943C234.121 115.782 234.71 122.517 230.411 129.182C226.354 135.466 220.529 137.757 218.726 138.382C218.934 141.784 219.107 145.151 219.315 148.553C215.571 145.221 210.474 141.298 203.99 137.792C199.032 135.119 194.351 133.279 190.363 132.029C194.836 126.475 196.535 121.233 197.263 118.212C198.512 113.005 198.269 108.527 198.026 104.57C197.783 100.508 197.194 97.1406 196.674 94.78C195.044 87.351 199.309 75.5827 207.804 71.3475C216.195 67.147 228.712 70.6879 236.583 81.1024Z" fill="white" stroke="#161616" stroke-width="2" stroke-miterlimit="10"/>
<path d="M234.711 114.186C233.74 114.047 232.734 113.943 231.763 113.838C231.417 113.804 231.417 113.283 231.763 113.318C232.804 113.422 233.809 113.561 234.849 113.7C235.161 113.7 235.023 114.22 234.711 114.186Z" fill="#161616"/>
<path d="M203.435 86.4831C207.631 87.5593 208.394 91.2043 213.699 98.8069C219.073 106.514 222.471 111.339 228.539 114.151C232.457 115.956 234.398 115.47 236.132 117.796C239.114 121.823 237.103 128.453 235.335 131.855C233.289 135.778 230.168 138.139 227.602 140.083C225.141 141.923 222.887 143.138 221.292 143.867C222.991 141.263 223.095 140.465 222.887 140.222C222.332 139.666 219.974 142.652 217.201 142.27C216.403 142.166 214.981 141.714 211.826 136.75C209.677 133.383 208.22 131.057 207.249 127.724C205.134 120.573 208.116 118.629 207.249 109.221C207.111 107.798 206.14 96.6546 202.187 95.9255C200.766 95.6478 199.309 96.8281 198.616 97.7307C197.16 99.64 197.333 102.695 199.136 105.333C198.546 104.917 192.895 101.098 192.964 94.8841C192.964 93.9121 192.999 90.3365 195.703 88.0106C198.789 85.3722 203.089 86.4137 203.435 86.4831Z" fill="#161616" stroke="#161616" stroke-width="2" stroke-miterlimit="10"/>
<path d="M231.382 102.278C230.578 102.278 229.926 101.113 229.926 99.6748C229.926 98.2368 230.578 97.0712 231.382 97.0712C232.186 97.0712 232.838 98.2368 232.838 99.6748C232.838 101.113 232.186 102.278 231.382 102.278Z" fill="#161616"/>
<path d="M242.477 103.493C241.673 103.493 241.021 102.328 241.021 100.89C241.021 99.4518 241.673 98.2861 242.477 98.2861C243.281 98.2861 243.933 99.4518 243.933 100.89C243.933 102.328 243.281 103.493 242.477 103.493Z" fill="#161616"/>
<path d="M244.662 96.6199C243.725 95.5438 242.269 95.4396 241.229 96.481C240.744 96.9671 240.015 96.2033 240.501 95.752C241.922 94.3634 244.107 94.3982 245.424 95.8909C245.806 96.4116 245.078 97.1406 244.662 96.6199Z" fill="#161616"/>
<path d="M233.289 94.8146C232.075 93.8079 230.48 93.9467 229.44 95.0923C228.989 95.5783 228.261 94.8493 228.712 94.3633C230.168 92.8012 232.422 92.7317 234.052 94.0856C234.537 94.5022 233.809 95.2312 233.289 94.8146Z" fill="#161616"/>
<path d="M237.762 85.2334C237.38 82.7339 236.409 78.6376 233.74 74.4024C232.803 72.9097 230.792 69.7506 227.603 67.5983C221.5 63.5367 212.104 63.8491 205.273 68.848C198.581 73.7428 195.253 82.4909 196.709 91.1696C210.405 89.2256 224.066 87.2469 237.762 85.2334Z" fill="#1C56B2"/>
<path d="M260.16 85.5458C239.114 88.2536 218.033 90.9613 196.986 93.6344C195.01 93.8774 195.01 90.753 196.986 90.51C218.033 87.8023 239.114 85.0945 260.16 82.4215C262.137 82.1438 262.137 85.2681 260.16 85.5458Z" fill="#161616"/>
<path opacity="0.2" d="M219.94 65.0641C214.531 66.2444 210.439 70.6185 209.746 75.8604C209.122 80.4428 211.133 85.0946 214.947 87.9412C208.948 88.7396 202.915 89.5728 196.917 90.3712C196.605 88.7743 196.327 86.3443 196.709 83.4977C197.61 76.8324 201.459 72.5625 202.707 71.2781C204.059 69.8895 208.844 65.2377 215.952 64.8211C217.582 64.7517 218.969 64.8905 219.94 65.0641Z" fill="black"/>
<defs>
<linearGradient id="paint0_linear" x1="125" y1="-45.5655" x2="347.032" y2="492.374" gradientUnits="userSpaceOnUse">
<stop stop-color="#1C56B2"/>
<stop offset="1" stop-color="#1C56B2" stop-opacity="0"/>
</linearGradient>
</defs>
</svg>
