<svg width="447" height="369" viewBox="0 0 447 369" fill="none" xmlns="http://www.w3.org/2000/svg">
<path opacity="0.1" d="M0.431152 219.168C0.431152 135.691 84.7366 58.1682 208.431 58.1682C332.126 58.1682 443.931 133.168 408.931 229.668C373.931 326.168 382.97 299.38 222.735 353.94C62.5 408.5 0.431152 302.646 0.431152 219.168Z" fill="url(#paint0_linear)"/>
<path d="M311.647 81.4978C314.727 81.4978 317.224 79.0009 317.224 75.9209C317.224 72.8408 314.727 70.344 311.647 70.344C308.567 70.344 306.07 72.8408 306.07 75.9209C306.07 79.0009 308.567 81.4978 311.647 81.4978Z" fill="#EF722E"/>
<path d="M317.566 66.0333C319.002 66.0333 320.166 64.8691 320.166 63.433C320.166 61.9969 319.002 60.8328 317.566 60.8328C316.13 60.8328 314.965 61.9969 314.965 63.433C314.965 64.8691 316.13 66.0333 317.566 66.0333Z" fill="#EF722E"/>
<path d="M147.077 32.1953C148.551 32.1953 149.746 31.0005 149.746 29.5266C149.746 28.0527 148.551 26.8579 147.077 26.8579C145.603 26.8579 144.408 28.0527 144.408 29.5266C144.408 31.0005 145.603 32.1953 147.077 32.1953Z" fill="#EF722E"/>
<path d="M322.492 344.518C324.986 344.518 327.008 342.496 327.008 340.002C327.008 337.508 324.986 335.486 322.492 335.486C319.998 335.486 317.976 337.508 317.976 340.002C317.976 342.496 319.998 344.518 322.492 344.518Z" fill="#EF722E"/>
<path d="M116.182 360C117.335 360 118.269 359.066 118.269 357.913C118.269 356.76 117.335 355.826 116.182 355.826C115.029 355.826 114.095 356.76 114.095 357.913C114.095 359.066 115.029 360 116.182 360Z" fill="#EF722E"/>
<path d="M142.253 205.832C143.444 205.832 144.409 204.867 144.409 203.676C144.409 202.486 143.444 201.521 142.253 201.521C141.063 201.521 140.098 202.486 140.098 203.676C140.098 204.867 141.063 205.832 142.253 205.832Z" fill="#EF722E"/>
<path d="M146.495 216.814C147.648 216.814 148.583 215.88 148.583 214.727C148.583 213.575 147.648 212.64 146.495 212.64C145.343 212.64 144.408 213.575 144.408 214.727C144.408 215.88 145.343 216.814 146.495 216.814Z" fill="#5222D0"/>
<path d="M143.998 274.978C146.152 274.978 147.898 273.232 147.898 271.078C147.898 268.924 146.152 267.177 143.998 267.177C141.844 267.177 140.098 268.924 140.098 271.078C140.098 273.232 141.844 274.978 143.998 274.978Z" fill="#5222D0"/>
<path d="M308.533 53.3055C309.894 53.3055 310.997 52.2026 310.997 50.8421C310.997 49.4816 309.894 48.3787 308.533 48.3787C307.173 48.3787 306.07 49.4816 306.07 50.8421C306.07 52.2026 307.173 53.3055 308.533 53.3055Z" fill="#5222D0"/>
<path d="M214.821 57.6166C216.011 57.6166 216.976 56.6516 216.976 55.4612C216.976 54.2707 216.011 53.3057 214.821 53.3057C213.631 53.3057 212.666 54.2707 212.666 55.4612C212.666 56.6516 213.631 57.6166 214.821 57.6166Z" fill="#1C56B2"/>
<path d="M22.6408 226.223C23.5478 226.223 24.2831 225.488 24.2831 224.581C24.2831 223.674 23.5478 222.939 22.6408 222.939C21.7338 222.939 20.9985 223.674 20.9985 224.581C20.9985 225.488 21.7338 226.223 22.6408 226.223Z" fill="#1C56B2"/>
<path d="M315.992 355.826C318.259 355.826 320.098 353.988 320.098 351.72C320.098 349.453 318.259 347.615 315.992 347.615C313.724 347.615 311.886 349.453 311.886 351.72C311.886 353.988 313.724 355.826 315.992 355.826Z" fill="#1C56B2"/>
<path d="M359.957 4.31097C361.147 4.31097 362.112 3.34592 362.112 2.15548C362.112 0.965042 361.147 0 359.957 0C358.766 0 357.801 0.965042 357.801 2.15548C357.801 3.34592 358.766 4.31097 359.957 4.31097Z" fill="#1C56B2"/>
<path d="M150.533 99.0494C150.191 96.9281 149.883 92.6856 153.27 93.0277C154.502 93.1646 155.186 94.2595 156.555 93.7805C159.121 92.8909 158.539 89.5721 159.6 87.6561C161.344 84.5769 164.732 89.0589 167.332 87.5877C168.187 87.1087 168.393 86.2192 168.358 85.2954C168.29 81.8398 171.335 82.0792 173.833 82.7635C174.483 82.9346 174.756 81.9424 174.106 81.7713C171.575 81.087 167.366 80.8475 167.264 84.5084C167.229 85.398 167.708 86.2876 166.408 86.835C165.998 87.0061 165.313 86.8008 164.937 86.6981C164.047 86.4244 163.26 85.8086 162.337 85.5691C161.139 85.2269 159.976 85.4664 159.155 86.4244C158.128 87.6561 158.163 89.3326 157.684 90.7696C157.17 92.3093 156.178 93.1988 154.502 92.4461C153.817 92.1382 153.202 91.8645 152.415 91.9671C148.891 92.4461 149.062 96.7229 149.506 99.3231C149.643 99.9732 150.635 99.6995 150.533 99.0494Z" fill="#1C56B2"/>
<path d="M154.57 101.034C154.844 98.9126 156.555 97.9888 158.539 97.9888C159.6 97.9888 160.66 98.1599 161.687 97.7836C164.013 96.894 163.569 94.3622 164.116 92.3777C165.142 88.6142 169.898 90.9407 172.533 90.3249C174.312 89.8801 175.817 88.101 175.064 86.2192C174.825 85.6034 173.833 85.8771 174.072 86.4929C175.236 89.3327 171.267 89.5038 169.59 89.2985C168.358 89.1616 167.161 88.9563 165.929 89.2643C163.979 89.7775 163.226 91.2145 162.953 93.062C162.713 94.7727 162.747 96.6545 160.523 96.9282C159.326 97.0651 158.128 96.7229 156.931 96.9966C155.015 97.4414 153.783 99.0495 153.544 100.965C153.441 101.684 154.468 101.684 154.57 101.034Z" fill="#1C56B2"/>
<path d="M225.256 17.0043C224.059 18.5097 222.793 20.3573 223.375 22.3759C223.854 24.0182 225.154 24.634 226.728 24.5314C227.651 24.463 228.609 24.2235 229.362 25.0446C229.944 25.6605 229.567 26.9606 229.396 27.6449C229.123 28.7055 228.609 29.7319 228.712 30.861C228.883 32.4006 230.115 33.5981 231.689 33.256C232.339 33.1191 232.065 32.1269 231.415 32.2638C228.438 32.9481 230.491 27.987 230.628 26.7895C230.731 25.7973 230.56 24.7025 229.807 23.984C229.054 23.2655 228.13 23.3339 227.172 23.4366C225.667 23.6076 224.264 23.1286 224.196 21.3153C224.162 19.9467 225.12 18.715 225.941 17.6886C226.42 17.2438 225.667 16.4911 225.256 17.0043Z" fill="#1C56B2"/>
<path d="M233.331 16.4913C231.723 17.1756 230.696 18.8521 231.107 20.597C231.312 21.3839 231.791 22.1367 232.475 22.6157C233.296 23.2315 234.254 23.0946 235.076 23.6079C236.615 24.5316 235.384 26.345 235.452 27.782C235.486 28.5005 235.657 29.1505 236.273 29.5953C237.197 30.3138 238.565 30.0743 238.942 28.911C239.147 28.2952 238.155 28.0215 237.95 28.6373C236.649 28.4663 236.205 27.8846 236.581 26.8924C236.649 26.5503 236.718 26.2081 236.786 25.866C236.855 25.5238 236.889 25.1817 236.889 24.8396C236.889 24.1211 236.684 23.3684 236.136 22.8552C235.315 22.1024 234.049 22.4104 233.16 21.7945C231.346 20.5286 231.996 18.1336 233.844 17.3467C234.46 17.1072 233.912 16.2518 233.331 16.4913Z" fill="#1C56B2"/>
<path d="M9.60531 218.73C8.81839 217.498 8.81839 215.993 9.60531 214.727C10.3922 213.495 11.4871 213.461 12.753 212.982C14.4979 212.264 14.5321 210.45 14.4295 208.808C14.3953 208.226 14.3611 207.611 14.5321 207.029C14.9769 205.66 16.1402 206.037 17.2008 206.208C17.8167 206.31 18.3983 206.208 18.9115 205.866C19.5616 205.421 19.9722 204.634 20.1775 203.881C20.3485 203.265 20.3827 202.615 20.5196 201.999C20.588 201.555 20.7249 201.144 20.9302 200.768C21.4776 199.912 22.1277 199.844 22.9146 200.597C23.0856 201.247 24.0779 200.973 23.9068 200.323C23.2909 198.099 20.5538 199.091 19.8695 200.665C19.5616 201.384 19.5274 202.171 19.3563 202.923C19.2537 203.368 19.1852 203.847 18.9457 204.258C18.4325 205.181 17.4745 205.01 16.585 204.908C15.5243 204.805 14.7032 204.702 14.0189 205.695C13.232 206.824 13.4373 208.158 13.4373 209.458C13.4715 211.032 13.1294 211.648 11.5897 212.161C10.9739 212.366 10.4607 212.469 9.91324 212.88C7.92883 214.282 7.41562 217.19 8.71575 219.209C9.05789 219.791 9.94745 219.278 9.60531 218.73Z" fill="#EF722E"/>
<path d="M13.8822 221.091C12.4452 220.886 12.9926 219.312 13.6427 218.696C14.1217 218.251 14.7717 217.978 15.3876 217.67C16.1403 217.293 16.893 216.849 17.4404 216.199C18.9116 214.351 16.7904 211.888 18.8432 210.416C20.8961 208.979 26.4045 208.329 24.7965 204.497C24.557 203.881 23.6674 204.429 23.9069 205.011C25.0702 207.782 19.4248 208.603 17.9879 209.766C17.4746 210.177 17.0299 210.724 16.8246 211.374C16.414 212.811 17.6115 214.283 16.5509 215.651C15.3192 217.157 12.6847 217.157 12.0688 219.278C11.6925 220.475 12.3425 221.912 13.6427 222.118C14.2585 222.186 14.5322 221.194 13.8822 221.091Z" fill="#EF722E"/>
<path d="M388.936 141.577C388.491 140.791 388.56 139.935 389.039 139.182C389.791 138.088 390.681 138.327 391.844 138.43C392.631 138.498 393.35 138.669 394.102 138.224C395.437 137.403 395.231 135.693 395.471 134.393C396.018 131.347 398.653 134.119 400.432 133.161C401.082 132.819 401.322 132.169 401.458 131.484C401.698 130.15 401.766 126.181 404.332 127.789C404.88 128.131 405.427 127.242 404.846 126.9C402.553 125.497 400.706 127.823 400.5 129.979C400.364 131.211 400.5 132.408 398.858 132.237C398.276 132.169 397.695 131.861 397.113 131.792C396.189 131.69 395.368 131.963 394.855 132.784C394.273 133.742 394.479 134.94 394.239 135.966C393.726 138.293 391.742 136.993 390.134 137.266C387.978 137.643 386.986 140.243 388.012 142.056C388.354 142.672 389.244 142.159 388.936 141.577Z" fill="#EF722E"/>
<path d="M394.034 143.733C393.452 142.159 395.266 140.414 396.84 141.235C397.045 141.338 397.319 141.338 397.455 141.167C398.242 140.312 398.448 139.319 398.79 138.225C399.406 136.24 400.877 135.966 402.656 135.419C404.401 134.872 406.351 133.435 405.633 131.382C405.393 130.766 404.401 131.04 404.64 131.656C405.633 134.358 400.774 134.564 399.337 135.556C397.592 136.788 398.106 139.012 396.771 140.449C396.976 140.414 397.182 140.38 397.387 140.38C395.095 139.183 392.187 141.543 393.076 144.041C393.281 144.623 394.274 144.383 394.034 143.733Z" fill="#EF722E"/>
<path d="M255.844 152.698C255.912 152.698 256.665 154.545 256.973 154.785C257.452 155.161 258.033 155.195 258.615 155.093C259.641 154.922 260.292 154.169 261.181 153.69C263.097 152.595 263.097 154.477 263.85 155.537C264.705 156.803 265.629 156.187 266.621 155.572C267.271 155.161 267.887 154.887 268.469 155.469C268.777 155.777 268.982 156.29 269.221 156.666C269.598 157.214 270.008 157.659 270.624 157.932C271.206 158.206 271.753 157.317 271.137 157.043C269.735 156.427 269.564 154.1 267.887 153.861C267.1 153.758 266.758 154.203 266.142 154.545C265.389 154.99 264.945 155.298 264.466 154.443C264.26 154.1 264.226 153.621 263.987 153.279C262.892 151.466 261.181 152.458 259.813 153.348C259.573 153.519 259.334 153.69 259.06 153.827C258.478 153.656 257.862 153.485 257.281 153.313C257.041 153.074 257.041 152.492 256.836 152.184C256.494 151.705 256.152 151.569 255.604 151.671C254.92 151.808 255.194 152.8 255.844 152.698Z" fill="#EC615B"/>
<path d="M263.884 149.413C264.911 147.805 267.271 151.158 268.229 151.568C268.811 151.808 269.358 151.808 269.974 151.637C270.248 151.568 270.487 151.432 270.727 151.329C271.651 150.953 272.438 151.192 273.19 151.842C274.285 152.766 274.593 153.998 276.167 154.34C277.091 154.545 277.946 154.271 278.357 153.382C278.63 152.8 277.741 152.253 277.467 152.869C276.509 154.921 273.875 150.884 273.19 150.439C271.924 149.618 271.137 150.302 269.872 150.576C267.853 150.987 267.203 148.729 265.526 148.181C264.534 147.839 263.576 148.01 263.029 148.934C262.618 149.481 263.508 149.995 263.884 149.413Z" fill="#EC615B"/>
<path d="M391.742 209.219C409.91 209.219 428.077 209.219 446.279 209.219C446.929 209.219 446.929 208.192 446.279 208.192C428.111 208.192 409.944 208.192 391.742 208.192C391.092 208.192 391.092 209.219 391.742 209.219Z" fill="#E8E8E8"/>
<path d="M406.625 208.979C406.625 214.283 406.625 219.552 406.625 224.855C406.625 225.505 407.651 225.505 407.651 224.855C407.651 219.552 407.651 214.283 407.651 208.979C407.651 208.329 406.625 208.329 406.625 208.979Z" fill="#E8E8E8"/>
<path d="M432.012 208.466C432.012 201.076 432.012 193.686 432.012 186.296C432.012 185.646 430.985 185.646 430.985 186.296C430.985 193.686 430.985 201.076 430.985 208.466C430.985 209.151 432.012 209.151 432.012 208.466Z" fill="#E8E8E8"/>
<path d="M419.934 186.706C426.811 186.706 433.688 186.706 440.565 186.706C441.215 186.706 441.215 185.68 440.565 185.68C433.688 185.68 426.811 185.68 419.934 185.68C419.284 185.68 419.284 186.706 419.934 186.706Z" fill="#E8E8E8"/>
<path d="M406.419 63.5015C406.419 69.8995 406.419 76.2975 406.419 82.6613C406.419 83.3114 407.446 83.3114 407.446 82.6613C407.446 76.2633 407.446 69.8653 407.446 63.5015C407.446 62.8514 406.419 62.8514 406.419 63.5015Z" fill="#E8E8E8"/>
<path d="M390.441 84.1321C402.793 84.1321 415.11 84.1321 427.461 84.1321C428.111 84.1321 428.111 83.1057 427.461 83.1057C415.11 83.1057 402.793 83.1057 390.441 83.1057C389.757 83.1057 389.757 84.1321 390.441 84.1321Z" fill="#E8E8E8"/>
<path d="M427.119 83.9954C427.119 88.2379 427.119 92.4804 427.119 96.723C427.119 97.3731 428.146 97.3731 428.146 96.723C428.146 92.4804 428.146 88.2379 428.146 83.9954C428.146 83.3453 427.119 83.3453 427.119 83.9954Z" fill="#E8E8E8"/>
<path d="M83.5073 43.5545C95.5849 43.5545 107.697 43.5545 119.774 43.5545C120.424 43.5545 120.424 42.5281 119.774 42.5281C107.697 42.5281 95.5849 42.5281 83.5073 42.5281C82.8572 42.5281 82.823 43.5545 83.5073 43.5545Z" fill="#E8E8E8"/>
<path d="M118.269 43.4522C118.269 46.7367 118.269 50.0213 118.269 53.3058C118.269 53.9559 119.295 53.9559 119.295 53.3058C119.295 50.0213 119.295 46.7367 119.295 43.4522C119.295 42.7679 118.269 42.7679 118.269 43.4522Z" fill="#E8E8E8"/>
<path d="M107.286 42.6303C107.286 37.3614 107.286 32.1266 107.286 26.8577C107.286 26.2076 106.26 26.2076 106.26 26.8577C106.26 32.1266 106.26 37.3614 106.26 42.6303C106.26 43.3146 107.286 43.3146 107.286 42.6303Z" fill="#E8E8E8"/>
<path d="M11.7607 149.002C20.109 149.002 28.4572 149.002 36.8054 149.002C37.4555 149.002 37.4555 147.976 36.8054 147.976C28.4572 147.976 20.109 147.976 11.7607 147.976C11.1107 147.976 11.1107 149.002 11.7607 149.002Z" fill="#E8E8E8"/>
<path d="M27.0542 138.704C27.0542 141.783 27.0542 144.862 27.0542 147.941C27.0542 148.591 28.0806 148.591 28.0806 147.941C28.0806 144.862 28.0806 141.783 28.0806 138.704C28.0806 138.054 27.0542 138.054 27.0542 138.704Z" fill="#E8E8E8"/>
<path d="M21.0325 139.217C25.4803 139.217 29.9281 139.217 34.376 139.217C35.026 139.217 35.026 138.19 34.376 138.19C29.9281 138.19 25.4803 138.19 21.0325 138.19C20.3482 138.19 20.3482 139.217 21.0325 139.217Z" fill="#E8E8E8"/>
<path d="M171.711 354.936C182.865 354.936 194.019 354.936 205.173 354.936C205.823 354.936 205.823 353.91 205.173 353.91C194.019 353.91 182.865 353.91 171.711 353.91C171.027 353.91 171.027 354.936 171.711 354.936Z" fill="#E8E8E8"/>
<path d="M192.308 353.91C192.308 351.515 192.308 349.12 192.308 346.691C192.308 346.041 191.282 346.041 191.282 346.691C191.282 349.086 191.282 351.481 191.282 353.91C191.282 354.594 192.308 354.594 192.308 353.91Z" fill="#E8E8E8"/>
<path d="M189.195 346.725C193.813 346.725 198.467 346.725 203.085 346.725C203.736 346.725 203.736 345.699 203.085 345.699C198.467 345.699 193.813 345.699 189.195 345.699C188.545 345.699 188.545 346.725 189.195 346.725Z" fill="#E8E8E8"/>
<path d="M12.5476 336.94C23.7014 336.94 34.8552 336.94 46.0089 336.94C46.659 336.94 46.659 335.914 46.0089 335.914C34.8552 335.914 23.7014 335.914 12.5476 335.914C11.8975 335.914 11.8975 336.94 12.5476 336.94Z" fill="#E8E8E8"/>
<path d="M28.0122 323.528C28.0122 327.463 28.0122 331.432 28.0122 335.366C28.0122 336.016 29.0386 336.016 29.0386 335.366C29.0386 331.432 29.0386 327.463 29.0386 323.528C29.0386 322.878 28.0122 322.878 28.0122 323.528Z" fill="#E8E8E8"/>
<path d="M28.0125 321.988C23.5646 321.988 19.0826 321.988 14.6348 321.988C13.9847 321.988 13.9847 323.014 14.6348 323.014C19.0826 323.014 23.5646 323.014 28.0125 323.014C28.6625 323.014 28.6625 321.988 28.0125 321.988Z" fill="#E8E8E8"/>
<path d="M384.488 306.832C383.359 305.703 383.633 303.513 385.378 303.137C386.302 302.931 387.191 303.513 388.081 303.616C388.765 303.718 389.484 303.65 389.928 303.034C390.613 302.144 390.065 301.118 390.031 300.126C389.963 297.012 393.658 297.218 395.505 298.312C395.916 298.552 396.361 298.141 396.258 297.731C395.368 293.454 400.261 290.512 403.614 293.351C404.127 293.762 404.846 293.043 404.332 292.633C400.193 289.143 394.137 292.701 395.266 298.039C395.505 297.833 395.779 297.662 396.018 297.457C394.445 296.499 392.426 296.02 390.749 297.081C390.134 297.457 389.586 298.039 389.313 298.723C389.107 299.202 389.005 299.647 389.039 300.16C389.073 301.084 389.381 301.015 388.697 301.905C387.944 302.897 387.876 302.452 386.815 302.213C386.439 302.11 386.096 302.042 385.686 302.076C384.83 302.11 384.044 302.521 383.496 303.137C382.299 304.471 382.607 306.353 383.804 307.55C384.249 308.029 384.967 307.311 384.488 306.832Z" fill="#E8E8E8"/>
<path d="M391.16 307.858C390.784 304.745 395.882 304.71 397.319 302.555C397.695 302.007 397.832 301.392 398.071 300.81C398.516 299.749 399.303 299.065 400.466 298.757C402.348 298.278 404.298 299.133 406.009 299.852C406.625 300.091 406.898 299.099 406.283 298.86C403.135 297.56 398.892 296.567 397.148 300.399C396.532 301.768 396.326 302.521 394.889 303.239C394.034 303.65 393.144 303.889 392.323 304.368C391.023 305.121 389.997 306.284 390.168 307.858C390.236 308.508 391.263 308.508 391.16 307.858Z" fill="#E8E8E8"/>
<path d="M244.006 208.363C244.69 210.074 245.374 211.819 246.059 213.53C246.127 213.324 246.23 213.153 246.298 212.948C245.922 213.188 245.545 213.427 245.169 213.701C244.587 212.332 244.827 211.99 245.922 212.606C246.572 213.016 246.88 213.906 247.017 214.625C247.324 216.267 246.982 217.977 246.435 219.551C246.298 219.962 246.709 220.236 247.051 220.167C249.104 219.757 249.925 222.22 249.514 223.76C249.206 224.889 248.59 225.881 247.975 226.873C247.632 227.421 248.522 227.934 248.864 227.386C249.959 225.676 251.225 223.554 250.472 221.433C249.891 219.859 248.454 218.867 246.777 219.175C246.982 219.38 247.188 219.586 247.393 219.791C248.077 217.806 248.522 215.309 247.667 213.29C247.085 211.956 245.751 210.929 244.245 211.374C243.082 211.716 242.5 212.88 243.048 214.009C243.972 215.89 245.58 214.625 246.777 213.838C246.948 213.735 247.085 213.461 247.017 213.256C246.332 211.545 245.648 209.8 244.964 208.09C244.758 207.508 243.766 207.748 244.006 208.363Z" fill="#E8E8E8"/>
<path d="M41.6637 46.4968C41.0136 44.8545 43.2033 44.4097 44.2297 44.9914C45.0166 45.4361 45.5298 46.2231 46.0088 46.9416C46.4536 47.5916 46.9326 48.3101 47.1721 49.0628C47.4458 49.7129 47.4116 50.3287 47.0695 50.9446C45.872 51.492 45.2561 51.3552 45.2219 50.5682C44.914 49.4392 46.1115 48.6865 47.1379 48.7207C48.1985 48.7549 49.1907 49.3708 49.9092 50.1235C51.1409 51.4236 51.5857 53.1343 51.4147 54.8792C51.7226 54.7766 52.0647 54.7081 52.3727 54.6055C51.6884 53.6133 52.3384 52.5527 53.2622 52.0394C54.0491 51.6289 54.9387 51.7315 55.6914 52.1421C56.9231 52.7922 57.7785 53.9896 58.5654 55.0845C58.9417 55.6319 59.8313 55.1187 59.455 54.5713C58.1548 52.7579 56.2046 50.2261 53.6386 50.8077C51.7568 51.2183 50.2514 53.408 51.4831 55.1187C51.791 55.5635 52.3726 55.3582 52.4411 54.845C52.749 51.5947 50.354 47.1468 46.5221 47.6943C45.1535 47.8996 44.1613 48.8575 44.1613 50.2603C44.1613 51.3552 44.8456 52.4842 46.0088 52.5527C47.3774 52.6553 48.3012 51.321 48.3696 50.0892C48.4722 48.3785 47.1379 46.531 46.1115 45.2651C45.1535 44.136 43.7507 43.178 42.2453 43.7597C41.0136 44.2044 40.1925 45.4361 40.7057 46.7021C40.9109 47.3863 41.9032 47.1126 41.6637 46.4968Z" fill="#E8E8E8"/>
<path d="M221.903 96.6887C220.466 95.8333 221.493 93.3015 223.101 94.3622C224.641 95.3886 222.588 97.1335 221.596 95.936C221.185 95.4228 220.466 96.1413 220.877 96.6545C221.664 97.6125 223.169 97.544 224.059 96.7571C225.085 95.8334 224.812 94.3279 223.751 93.5752C222.69 92.8225 221.151 92.9594 220.501 94.1911C219.851 95.3544 220.295 96.9282 221.424 97.5783C221.938 97.8862 222.451 97.0308 221.903 96.6887Z" fill="#E8E8E8"/>
<path d="M330.909 21.8629C330.156 20.8023 331.457 19.1942 332.654 19.6732C332.551 19.6048 332.449 19.5021 332.346 19.4337C332.996 20.5628 332.038 22.1024 330.772 22.034C330.943 22.1708 331.114 22.2735 331.251 22.4103C331.046 21.8287 330.807 21.2128 330.601 20.6312C330.362 20.0153 329.37 20.289 329.609 20.9049C329.814 21.4865 330.054 22.1024 330.259 22.684C330.328 22.9235 330.499 23.0604 330.738 23.0604C331.833 23.1288 332.791 22.4445 333.27 21.4865C333.646 20.7338 333.852 19.16 332.928 18.681C330.909 17.6888 328.822 20.6996 330.02 22.3761C330.396 22.9235 331.286 22.4103 330.909 21.8629Z" fill="#E8E8E8"/>
<path d="M358.759 72.7393C358.588 71.9524 359.17 71.0971 359.957 70.926C360.675 70.7891 361.325 71.3708 361.496 72.0208C361.941 73.5605 359.923 74.279 358.965 73.2183C358.52 72.7393 357.801 73.4578 358.246 73.9368C360.025 75.9212 363.446 73.9711 362.352 71.4392C361.873 70.3102 360.675 69.5917 359.478 69.968C358.212 70.3786 357.459 71.7129 357.733 73.013C357.938 73.6631 358.93 73.3894 358.759 72.7393Z" fill="#E8E8E8"/>
<path d="M247.701 355.928C246.4 355.312 246.503 353.533 247.701 352.849C248.864 352.199 249.959 352.781 251.019 353.26C251.909 353.67 252.935 354.047 253.722 353.26C254.441 352.575 254.304 351.515 254.338 350.625C254.475 347.17 257.828 347.854 260.12 348.709C260.736 348.949 261.01 347.956 260.394 347.717C258.375 346.93 255.57 346.177 253.962 348.162C253.483 348.743 253.346 349.428 253.312 350.146C253.277 350.625 253.483 351.686 253.209 352.131C252.456 353.26 251.43 352.233 250.643 351.891C249.138 351.241 246.982 351.412 246.058 352.986C245.271 354.32 245.75 356.134 247.153 356.784C247.769 357.092 248.282 356.202 247.701 355.928Z" fill="#E8E8E8"/>
<path d="M264.26 275.286C263.234 287.843 263.781 300.434 265.902 312.853C266.005 313.503 266.997 313.23 266.895 312.58C264.808 300.263 264.26 287.74 265.287 275.286C265.355 274.636 264.329 274.636 264.26 275.286Z" fill="#E8E8E8"/>
<path d="M264.944 276.073C270.282 277.92 275.79 279.152 281.401 279.768C286.67 280.315 292.726 280.897 297.79 278.912C298.406 278.673 298.132 277.681 297.516 277.92C292.589 279.87 286.602 279.289 281.401 278.741C275.893 278.16 270.453 276.894 265.218 275.08C264.568 274.841 264.328 275.833 264.944 276.073Z" fill="#E8E8E8"/>
<path d="M273.087 277.476C271.308 274.704 269.837 271.762 268.811 268.614C268.332 267.109 267.921 265.603 267.613 264.064C267.442 263.14 267.271 262.216 267.168 261.292C267.168 261.19 266.792 258.761 267.51 259.103C267.853 259.274 268.434 258.966 268.263 258.521C266.381 253.765 265.355 248.77 265.252 243.638C265.081 243.809 264.91 243.98 264.739 244.151C265.013 244.254 265.252 244.357 265.526 244.459C265.868 244.87 266.518 244.425 266.381 243.946C265.697 241.756 265.252 239.498 265.115 237.172C265.081 236.624 265.184 230.466 265.56 230.568C265.971 230.671 266.245 230.295 266.176 229.952C265.526 226.086 265.218 222.152 265.389 218.251C265.458 216.301 265.629 214.385 265.937 212.469C266.21 210.724 266.347 208.603 267.716 207.337C267.442 207.303 267.168 207.269 266.895 207.234C269.769 212.64 271.377 218.559 272.848 224.444C274.285 230.226 275.551 236.077 276.646 241.962C278.87 254.108 280.272 266.39 280.888 278.742C280.922 279.392 281.949 279.392 281.915 278.742C281.299 266.322 279.896 253.936 277.638 241.688C276.509 235.598 275.209 229.542 273.703 223.52C272.232 217.738 270.624 211.99 267.784 206.687C267.613 206.379 267.203 206.379 266.963 206.584C265.8 207.645 265.458 209.048 265.184 210.519C264.808 212.606 264.534 214.761 264.397 216.883C264.123 221.33 264.397 225.778 265.15 230.192C265.355 229.987 265.56 229.781 265.766 229.576C263.781 229.029 264.021 233.305 263.986 234.263C263.85 237.616 264.363 240.969 265.355 244.185C265.629 244.014 265.937 243.843 266.21 243.672C265.766 243.159 265.389 242.988 264.705 243.056C264.431 243.091 264.192 243.262 264.192 243.57C264.294 248.77 265.321 253.868 267.237 258.726C267.476 258.521 267.75 258.35 267.989 258.145C264.568 256.503 266.552 264.235 266.826 265.398C267.853 269.846 269.7 274.089 272.164 277.92C272.574 278.536 273.464 278.023 273.087 277.476Z" fill="#E8E8E8"/>
<path d="M278.528 243.296C278.22 241.106 278.151 238.882 278.425 236.692C278.493 236.145 279.793 229.713 280.444 229.987C280.786 230.158 281.196 229.952 281.23 229.542C281.436 225.162 282.804 221.262 284.412 217.225C286.02 213.222 287.594 209.355 290.263 205.9C290.023 205.9 289.784 205.9 289.544 205.9C291.495 208.124 291.255 211.511 291.358 214.282C291.495 217.396 291.597 220.509 291.631 223.623C291.7 229.747 291.597 235.871 291.324 241.996C290.742 254.518 289.339 267.006 287.218 279.357C287.115 280.007 288.107 280.281 288.21 279.631C290.434 266.767 291.837 253.731 292.418 240.661C292.692 234.092 292.761 227.523 292.624 220.954C292.555 217.669 292.487 214.385 292.247 211.1C292.11 208.945 291.768 206.824 290.263 205.147C290.092 204.942 289.716 204.942 289.544 205.147C286.91 208.569 285.268 212.332 283.694 216.335C281.949 220.646 280.478 224.82 280.238 229.542C280.512 229.405 280.751 229.234 281.025 229.097C278.938 228.173 278.254 232.621 277.98 233.818C277.227 237.035 277.159 240.285 277.638 243.535C277.604 244.22 278.596 243.946 278.528 243.296Z" fill="#E8E8E8"/>
<path d="M266.381 313.708C277.09 317.164 288.689 316.993 299.295 313.229C299.911 313.024 299.637 312.032 299.022 312.237C288.586 315.932 277.193 316.103 266.655 312.716C266.005 312.511 265.731 313.503 266.381 313.708Z" fill="#E8E8E8"/>
<path d="M297.653 278.571C298.064 284.113 298.509 289.656 298.885 295.199C299.261 300.844 299.398 306.558 298.474 312.169C298.372 312.819 299.364 313.093 299.467 312.442C300.39 306.934 300.322 301.391 299.946 295.849C299.569 290.101 299.124 284.319 298.68 278.571C298.645 277.92 297.619 277.92 297.653 278.571Z" fill="#E8E8E8"/>
<path d="M115.053 322.501C122.033 318.772 129.047 315.043 136.026 311.313C139.311 311.861 143.827 312.579 149.233 313.332C160.044 314.837 177.459 317.266 199.493 317.917C221.527 318.567 238.052 317.164 244.348 316.548C259.505 315.111 268.674 313.161 276.167 311.142C282.975 309.295 288.587 307.276 292.59 305.736C295.874 306.831 299.535 308.302 303.435 310.321C305.659 311.484 307.712 312.682 309.526 313.879C303.093 315.727 294.437 318.088 284.139 320.483C262.447 325.546 245.819 327.941 242.329 328.454C222.382 331.294 193.951 335.297 158.197 331.157C147.077 329.823 132.263 327.394 115.053 322.501Z" fill="white"/>
<path d="M114.677 322.536C114.848 323.973 115.053 325.376 115.224 326.813C117.79 327.531 121.554 328.558 126.207 329.584C135.102 331.568 144.135 332.937 155.939 333.861C199.527 337.282 234.357 334.237 234.357 334.237C251.772 332.698 268.674 331.124 290.502 324.76C298.714 322.365 305.42 319.936 310.21 318.054C309.833 316.446 309.457 314.838 309.081 313.23C307.746 313.777 305.762 314.564 303.333 315.454C286.842 321.475 273.259 323.46 261.147 324.931C234.528 328.215 221.219 329.824 201.683 330.131C179.444 330.508 149.609 329.173 114.677 322.536Z" fill="#161616"/>
<path d="M114.437 323.186C114.437 324.281 114.437 325.376 114.437 326.471C114.437 327.121 115.463 327.121 115.463 326.471C115.463 325.376 115.463 324.281 115.463 323.186C115.463 322.502 114.437 322.502 114.437 323.186Z" fill="#161616"/>
<path d="M114.814 327.428C140.371 334.34 167.058 335.229 193.369 335.606C218.653 335.948 244.108 334.853 269.016 330.234C283.044 327.634 296.867 323.836 310.21 318.67C310.826 318.43 310.552 317.438 309.936 317.677C286.397 326.813 261.387 331.466 236.239 333.416C210.887 335.366 185.294 334.921 159.942 333.382C144.785 332.424 129.765 330.439 115.087 326.47C114.437 326.265 114.164 327.257 114.814 327.428Z" fill="#161616"/>
<path d="M310.21 317.951C310.415 316.514 310.484 315.043 310.347 313.606C310.278 312.956 309.252 312.956 309.321 313.606C309.423 314.975 309.423 316.343 309.218 317.677C309.115 318.293 310.107 318.601 310.21 317.951Z" fill="#161616"/>
<path d="M115.258 323.083C122.443 319.661 129.491 316.001 136.403 312.032C136.984 311.69 136.471 310.834 135.889 311.142C128.978 315.077 121.93 318.772 114.745 322.193C114.129 322.467 114.642 323.357 115.258 323.083Z" fill="#161616"/>
<path d="M136.129 311.553C176.946 319.319 219.372 320.756 260.531 314.872C271.479 313.298 282.36 310.869 292.487 306.352C293.103 306.079 292.555 305.189 291.974 305.463C282.873 309.5 273.156 311.861 263.337 313.4C253.346 314.974 243.253 315.932 233.16 316.582C212.666 317.882 192.069 317.54 171.643 315.59C159.805 314.461 148.069 312.75 136.402 310.561C135.752 310.458 135.479 311.45 136.129 311.553Z" fill="#161616"/>
<path d="M292.281 306.181C298.371 308.166 304.085 310.937 309.423 314.461C309.97 314.838 310.483 313.948 309.936 313.572C304.53 310.013 298.714 307.208 292.555 305.189C291.905 304.984 291.631 305.976 292.281 306.181Z" fill="#161616"/>
<path d="M115.327 322.536C127.404 326.607 139.995 328.523 152.654 329.549C165.485 330.576 178.417 330.884 191.282 330.884C216.84 330.884 242.466 329.139 267.648 324.554C281.949 321.954 296.114 318.43 309.902 313.811C310.518 313.606 310.244 312.614 309.628 312.819C285.37 320.893 260.155 325.615 234.7 327.941C209.381 330.268 183.789 330.405 158.402 328.899C143.896 328.01 129.355 326.196 115.532 321.543C114.985 321.338 114.711 322.33 115.327 322.536Z" fill="#161616"/>
<path d="M135.034 127.14C176.844 117.457 219.885 115.336 262.652 114.925C274.764 114.788 286.876 114.822 298.988 114.822C299.638 114.822 299.638 113.796 298.988 113.796C256.083 113.728 212.974 113.693 170.377 119.612C158.402 121.289 146.53 123.41 134.76 126.147C134.11 126.318 134.384 127.311 135.034 127.14Z" fill="#161616"/>
<path d="M301.109 113.899C301.553 129.808 301.827 148.25 301.724 168.744C301.656 180.65 301.553 174.971 300.493 224.513C299.877 253.047 299.706 263.791 297.687 280.282C296.387 291.025 294.813 299.852 293.65 305.84C302.477 308.303 310.894 310.63 318.284 312.682C329.711 315.864 332.757 316.72 337.307 317.37C344.355 318.328 352.943 318.465 362.865 316.446C366.526 286.474 368.544 260.917 369.708 241.346C373.882 172.576 369.981 140.894 368.476 129.774C366.423 114.788 363.891 102.471 361.941 93.9521C354.619 95.3549 348.666 96.8603 344.492 97.9894C330.156 101.924 318.797 106.543 309.286 110.443C305.762 111.915 302.922 113.112 301.109 113.899Z" fill="white"/>
<path d="M65.2373 94.5674C64.9636 97.5098 64.6557 101.136 64.382 104.284C58.7025 169.051 55.8627 201.452 54.9389 222.288C53.9809 244.664 53.9125 277.099 58.6683 317.438C59.0446 318.259 59.7289 319.388 60.9606 320.312C62.5686 321.509 64.0398 321.475 66.948 322.296C69.2404 322.946 70.4379 323.596 71.5327 324.007C74.6804 325.238 81.7285 326.641 90.6926 326.299C103.557 325.786 113.445 321.851 120.698 318.875C127.507 316.103 132.947 313.127 136.71 310.868C134.589 291.811 133.015 271.693 132.126 250.583C130.312 205.695 132.126 164.467 135.855 127.721C134.281 127.105 131.989 126.25 129.286 125.155C124.633 123.273 113.479 118.722 93.8403 109.143C86.0737 105.379 76.3569 100.486 65.2373 94.5674Z" fill="white"/>
<path d="M361.736 93.8152C362.146 96.0733 362.694 99.1868 363.31 102.916C364.165 108.219 366.081 120.776 367.484 137.267C368.921 154.442 369.263 169.223 369.297 180.993C369.4 204.874 368.51 222.391 366.184 263.243C365.465 275.971 364.405 294.617 363.07 317.37C364.473 317.267 365.842 317.199 367.244 317.096C367.929 311.416 368.852 302.966 369.571 292.633C370.118 285.174 370.358 279.734 370.597 273.884C371.795 247.06 372 247.368 372.411 236.419C373.232 214.83 373.061 198.236 372.924 183.319C372.821 173.021 372.513 163.27 371.897 143.768C371.453 130.493 371.008 118.723 367.997 103.429C367.21 99.5289 366.457 96.2786 365.91 94.0547C364.507 93.9862 363.139 93.9178 361.736 93.8152Z" fill="#161616"/>
<path d="M60.0025 95.1833C59.763 96.3808 59.3867 98.2284 59.0103 100.487C57.9155 107.021 57.6418 111.948 57.5391 113.556C56.7864 125.189 55.281 130.869 53.0913 156.7C52.6807 161.422 52.3728 165.562 51.7569 173.876C50.491 190.846 49.8752 199.331 49.4304 208.911C48.9514 219.62 48.883 227.181 48.7803 242.304C48.6777 255.373 48.6093 264.817 48.9514 277.168C49.2251 287.021 49.7725 300.399 51.1069 316.343C53.8782 317.164 56.6153 317.985 59.3867 318.806C59.3525 317.267 59.2498 314.495 59.0445 311.04C58.2234 295.678 56.8891 289.451 56.5811 276.655C56.4785 272.72 56.5469 270.12 56.5811 266.39C56.9575 239.635 56.5127 227.421 56.7522 210.04C57.1628 181.676 59.0788 159.506 60.721 140.62C62.2607 122.76 64.0056 107.466 65.511 95.4913C63.6292 95.3886 61.8159 95.286 60.0025 95.1833Z" fill="#161616"/>
<path d="M300.288 114.48C301.553 139.593 301.382 164.775 301.04 189.888C300.664 214.454 300.493 239.088 298.611 263.619C297.55 277.579 295.874 291.504 293.274 305.292C293.137 305.942 294.129 306.216 294.266 305.566C298.816 281.445 300.493 256.913 301.246 232.416C302.032 207.406 302.375 182.327 302.34 157.282C302.306 143.015 302.067 128.747 301.348 114.48C301.28 113.83 300.253 113.83 300.288 114.48Z" fill="#161616"/>
<path d="M301.554 114.48C320.543 105.071 340.695 98.2967 361.497 94.2937C362.147 94.1568 361.873 93.1646 361.223 93.3015C340.352 97.3388 320.098 104.182 301.041 113.59C300.459 113.898 300.972 114.788 301.554 114.48Z" fill="#161616"/>
<path d="M361.155 93.9861C366.8 122.418 368.511 151.466 368.476 180.411C368.408 209.356 366.697 238.232 365.294 267.143C364.473 283.805 363.652 300.433 362.831 317.096C362.797 317.746 363.823 317.746 363.857 317.096C365.329 287.603 366.868 258.111 368.203 228.584C369.503 199.639 370.324 170.625 368.374 141.715C367.279 125.6 365.329 109.553 362.181 93.7465C362.01 93.0623 361.018 93.336 361.155 93.9861Z" fill="#161616"/>
<path d="M293.445 305.497C294.985 307.276 297.722 307.619 299.877 308.269C302.82 309.158 305.796 310.048 308.739 310.937C314.692 312.716 320.611 314.598 326.633 316.104C338.402 318.978 350.48 319.559 362.421 317.506C363.071 317.404 362.797 316.412 362.147 316.514C350.377 318.533 338.471 317.951 326.906 315.111C321.398 313.777 315.992 312.066 310.586 310.424C307.849 309.603 305.112 308.782 302.375 307.961C301.006 307.55 299.638 307.14 298.269 306.729C296.832 306.284 295.224 305.976 294.198 304.779C293.719 304.3 293 305.018 293.445 305.497Z" fill="#161616"/>
<path d="M361.838 94.0205C363.104 94.3284 364.37 94.6364 365.67 94.9443C366.321 95.1154 366.594 94.1232 365.944 93.9521C364.678 93.6442 363.412 93.3362 362.112 93.0283C361.462 92.8914 361.188 93.8837 361.838 94.0205Z" fill="#161616"/>
<path d="M365.602 94.602C369.023 108.424 369.947 122.863 370.939 137.062C371.966 151.568 372.513 166.109 372.753 180.685C373.163 209.595 372.171 238.506 370.529 267.383C369.605 283.737 368.442 300.091 367.244 316.446C367.21 317.096 368.237 317.096 368.271 316.446C370.426 287.364 372.376 258.282 373.3 229.132C374.224 200.05 374.156 170.899 372.308 141.817C371.316 126.01 370.426 109.793 366.628 94.3625C366.423 93.6782 365.431 93.9519 365.602 94.602Z" fill="#161616"/>
<path d="M363.378 317.677C364.884 317.54 366.355 317.404 367.86 317.267C368.51 317.198 368.51 316.172 367.86 316.24C366.355 316.377 364.884 316.514 363.378 316.651C362.728 316.719 362.728 317.746 363.378 317.677Z" fill="#161616"/>
<path d="M135 127.447C132.707 151.157 131.339 174.936 130.894 198.749C130.449 222.665 130.928 246.614 132.365 270.496C133.152 283.908 134.281 297.285 135.65 310.629C135.718 311.279 136.745 311.279 136.676 310.629C134.213 286.953 132.673 263.174 132.057 239.361C131.441 215.446 131.749 191.496 133.015 167.614C133.734 154.202 134.726 140.825 135.992 127.447C136.095 126.797 135.068 126.797 135 127.447Z" fill="#161616"/>
<path d="M65.8872 95.3889C88.0921 107.74 111.152 118.552 134.828 127.755C135.444 127.995 135.718 127.003 135.102 126.763C111.494 117.594 88.5369 106.816 66.4004 94.4993C65.8188 94.1572 65.3056 95.0467 65.8872 95.3889Z" fill="#161616"/>
<path d="M64.8265 95.1494C61.0288 124.094 58.3943 153.211 56.9573 182.395C55.5203 211.58 55.3151 240.799 56.273 269.983C56.8205 286.372 57.7442 302.76 59.0444 319.114C59.1128 319.764 60.1392 319.764 60.0708 319.114C57.7442 289.998 56.6494 260.78 56.7178 231.595C56.7862 202.376 58.0864 173.192 60.5498 144.075C61.9526 127.721 63.7317 111.435 65.853 95.1494C65.9214 94.4993 64.895 94.4993 64.8265 95.1494Z" fill="#161616"/>
<path d="M59.0104 319.765C78.0676 330.131 100.888 327.908 120.253 319.696C126.07 317.233 131.681 314.256 137.087 311.006C137.634 310.664 137.121 309.774 136.574 310.116C118.543 321.031 97.3985 328.66 76.0832 324.691C70.301 323.631 64.6899 321.681 59.5236 318.875C58.9762 318.567 58.4287 319.457 59.0104 319.765Z" fill="#161616"/>
<path d="M51.4491 316.924C53.8441 318.053 56.3075 319.011 58.8052 319.867C59.421 320.072 59.6947 319.08 59.0789 318.874C56.6497 318.053 54.2889 317.129 51.9624 316.035C51.3465 315.761 50.8333 316.65 51.4491 316.924Z" fill="#161616"/>
<path d="M59.3183 95.3889C55.6232 124.06 52.5439 152.8 50.5253 181.642C48.5409 210.348 47.5829 239.122 48.1987 267.896C48.5409 284.182 49.362 300.468 50.7648 316.685C50.8332 317.335 51.8596 317.335 51.7912 316.685C49.3278 287.911 48.6093 259.035 49.2936 230.158C49.9437 201.384 51.9281 172.644 54.7678 143.973C56.3759 127.755 58.2577 111.538 60.3447 95.3547C60.4474 94.7388 59.4209 94.7388 59.3183 95.3889Z" fill="#161616"/>
<path d="M59.8998 96.1072C61.8842 95.6967 63.8686 95.5598 65.9215 95.6625C66.5715 95.6967 66.5715 94.6702 65.9215 94.636C63.8002 94.5334 61.7131 94.7045 59.6261 95.115C58.976 95.2519 59.2497 96.2441 59.8998 96.1072Z" fill="#161616"/>
<path d="M313.392 116.806C314.829 156.495 314.76 196.217 313.118 235.905C312.673 247.025 312.091 258.11 311.373 269.23C311.339 269.88 312.365 269.88 312.399 269.23C314.897 229.61 315.855 189.888 315.273 150.165C315.102 139.046 314.829 127.926 314.418 116.806C314.384 116.156 313.357 116.156 313.392 116.806Z" fill="#161616"/>
<path d="M329.986 102.574C331.354 130.185 332.039 157.864 332.004 185.509C332.004 213.154 331.32 240.833 329.952 268.444C329.199 284.079 328.207 299.681 327.009 315.283C326.975 315.933 328.001 315.933 328.036 315.283C330.157 287.706 331.594 260.095 332.381 232.45C333.133 204.805 333.236 177.126 332.654 149.481C332.312 133.846 331.765 118.21 331.012 102.574C330.978 101.924 329.952 101.924 329.986 102.574Z" fill="#161616"/>
<path d="M349.898 96.4839C351.814 125.189 352.977 153.963 353.285 182.772C353.593 211.683 353.114 240.559 351.814 269.436C351.095 285.619 350.103 301.802 348.837 317.951C348.803 318.601 349.829 318.601 349.864 317.951C352.053 289.246 353.49 260.472 354.072 231.698C354.654 202.821 354.448 173.91 353.422 144.999C352.84 128.816 352.019 112.633 350.924 96.4497C350.89 95.7996 349.864 95.7996 349.898 96.4839Z" fill="#161616"/>
<path d="M309.868 282.061C309.081 291.025 307.644 299.92 305.557 308.679C305.42 309.329 306.378 309.603 306.549 308.953C308.67 300.091 310.107 291.127 310.894 282.061C310.963 281.41 309.936 281.41 309.868 282.061Z" fill="#161616"/>
<path d="M77.1098 102.06C73.0042 130.766 71.2592 159.779 70.9855 188.759C70.746 217.909 71.9435 247.025 73.7227 276.107C74.7149 292.564 75.8781 308.987 77.0414 325.444C77.0756 326.094 78.102 326.094 78.0678 325.444C76.015 296.464 73.9621 267.485 72.8331 238.472C71.704 209.527 71.533 180.513 73.2094 151.568C74.1674 135.111 75.7413 118.654 78.0678 102.334C78.2047 101.718 77.2125 101.41 77.1098 102.06Z" fill="#161616"/>
<path d="M96.7824 111.641C94.1821 139.388 92.4372 167.239 91.8555 195.123C91.3081 222.973 91.9582 250.824 94.2505 278.605C95.5164 294.036 97.2956 309.398 99.6221 324.692C99.7248 325.342 100.717 325.068 100.614 324.418C96.4402 296.841 94.0452 268.991 93.1557 241.107C92.2661 213.599 92.7793 186.022 94.2847 158.548C95.1401 142.912 96.3376 127.277 97.8088 111.675C97.8772 110.991 96.8508 110.991 96.7824 111.641Z" fill="#161616"/>
<path d="M116.49 119.817C113.137 145.717 111.187 171.788 110.674 197.894C110.16 223.999 111.05 250.139 113.342 276.141C114.642 290.648 116.353 305.086 118.509 319.49C118.611 320.141 119.603 319.867 119.501 319.217C115.635 293.419 113.171 267.451 112.111 241.414C111.05 215.446 111.426 189.409 113.171 163.44C114.163 148.865 115.6 134.29 117.482 119.783C117.619 119.167 116.593 119.167 116.49 119.817Z" fill="#161616"/>
<path opacity="0.12" d="M342.234 98.8102C346.032 114.309 349.111 132.477 350.138 152.834C352.704 204.634 340.523 246.957 329.917 274.123C322.424 286.132 314.966 298.141 307.473 310.15C314.76 313.298 325.572 316.959 339.052 318.054C348.358 318.806 356.433 318.122 362.728 317.096C362.797 315.59 363.926 292.701 363.994 291.196C367.724 214.522 367.963 209.287 368.1 204.018C368.716 182.566 368.613 151.774 364.952 113.351C363.686 106.816 362.42 100.281 361.154 93.7808C354.893 95.423 348.564 97.0995 342.234 98.8102Z" fill="#3F3F3F"/>
<path opacity="0.13" d="M103.454 115.541C102.565 119.27 101.23 124.847 99.6566 131.656C92.6769 162.038 87.5448 184.38 84.8077 204.942C79.9493 241.175 75.262 276.279 95.243 305.087C101.059 313.469 107.423 319.115 111.666 322.468C107.56 324.076 102.462 325.547 96.5089 326.265C79.9493 328.216 66.6743 322.844 60.1736 319.628C57.7102 296.944 55.9995 272.652 55.4521 246.957C54.2204 190.093 58.8393 138.978 65.8874 95.0127C78.3755 101.856 90.8978 108.698 103.454 115.541Z" fill="#3F3F3F"/>
<path d="M67.5639 78.7267C67.1191 79.0688 67.4612 80.4032 68.0771 82.6955C68.3166 83.5851 68.5561 84.2694 68.6929 84.7141C68.4192 86.5617 68.1797 88.4093 67.906 90.2568C67.3586 90.3252 65.9558 90.6332 64.6557 91.7622C63.4582 92.8229 62.9792 94.0546 62.8081 94.602C63.903 94.7046 65.2373 94.9441 66.6743 95.3889C68.7613 96.039 70.4036 96.9285 71.6011 97.6812C71.6011 98.0918 71.6695 98.8787 72.217 99.4604C72.696 99.9394 73.2776 100.008 73.6197 100.076C74.8514 100.282 76.3226 100.555 78.2044 100.966C79.0256 101.445 80.3941 102.232 82.0706 103.155C87.7501 106.235 89.803 106.748 95.4825 109.759C99.1434 111.709 98.8355 111.777 101.402 113.009C105.336 114.925 108.723 116.054 111.016 116.704C111.974 115.644 113.513 113.591 114.369 110.614C115.053 108.253 115.019 106.201 114.882 104.866C115.463 105.174 116.387 105.516 117.448 105.379C120.185 105.071 121.93 101.958 122.477 99.7341C122.956 97.7839 122.512 96.5522 122.135 94.2598C121.28 89.1277 120.527 84.5431 122.648 81.6349C124.428 79.2057 128.088 78.0766 131.031 74.8263C131.305 74.5184 131.818 73.9367 131.647 73.663C131.339 73.1498 128.944 74.0394 127.781 74.5526C127.028 74.8947 121.383 77.495 119.672 83.3798C119.398 84.3036 119.364 86.9723 119.33 92.2754C119.295 96.1416 119.364 98.3313 117.824 99.5972C117.037 100.247 115.874 100.624 114.813 100.384C113.24 100.042 112.487 98.5024 111.803 97.476C110.023 94.7731 107.492 93.644 104.378 92.1044C101.949 90.9069 99.8619 90.4621 95.6536 89.5383C91.6847 88.683 90.4873 88.7856 88.7766 87.5197C86.8606 86.0827 85.7999 84.0641 85.2525 82.935C84.7051 81.8744 83.8497 80.1979 83.4734 77.8029C83.2681 76.4001 83.3023 75.4079 82.9602 75.3395C82.3443 75.2026 82.0364 78.0424 79.9493 79.0346C78.6834 79.6505 77.8623 79.0688 75.6384 79.1373C74.2014 79.1715 72.5591 79.4794 70.7115 80.3005C70.0957 79.8557 68.1797 78.2819 67.5639 78.7267Z" fill="black"/>
<path d="M68.5901 89.9827C67.8716 84.3374 73.0037 79.2053 78.6833 79.7869C84.0549 80.3344 87.6131 86.8692 87.442 91.7618C87.4078 92.4119 88.4342 92.4119 88.4685 91.7618C88.6395 86.356 84.6023 79.2395 78.6833 78.7605C72.4563 78.2473 66.7768 83.7558 67.5637 89.9827C67.6663 90.5986 68.6928 90.6328 68.5901 89.9827Z" fill="black"/>
<path d="M68.4874 93.541C70.5745 97.6124 75.0565 100.486 79.7439 99.8705C84.0206 99.2889 87.6473 95.8333 88.2974 91.5565C88.4 90.9065 87.4078 90.6328 87.3051 91.2828C86.7235 95.1832 83.5074 98.3309 79.607 98.8441C75.3302 99.4258 71.293 96.7571 69.377 93.0277C69.0691 92.4461 68.1795 92.9593 68.4874 93.541Z" fill="black"/>
<path d="M72.1826 98.502C72.0799 97.2018 75.775 96.6544 76.6988 96.4491C78.3753 96.0728 80.086 95.8675 81.7967 95.8675C84.9786 95.8675 88.0237 96.6886 90.7266 98.3651C91.274 98.7072 91.8214 97.8177 91.2398 97.4755C87.7499 95.32 83.6785 94.5673 79.6412 94.9437C77.5199 95.149 75.4329 95.5938 73.4143 96.278C72.3194 96.6544 71.0193 97.1334 71.1219 98.502C71.1904 99.152 72.251 99.152 72.1826 98.502Z" fill="black"/>
<path d="M86.8949 86.6644C89.0504 89.2647 92.5402 89.8805 95.6537 90.5648C99.7936 91.5228 104.07 92.3781 107.697 94.6705C115.19 99.392 116.593 109.69 110.674 116.294C110.229 116.773 110.947 117.525 111.392 117.012C116.661 111.162 116.798 102.198 111.358 96.3812C108.484 93.3019 104.378 91.6939 100.375 90.6332C96.3037 89.5726 90.4531 89.4015 87.5792 85.9117C87.2028 85.4327 86.4843 86.1512 86.8949 86.6644Z" fill="black"/>
<path d="M110.845 104.558C109.134 102.3 106.123 101.513 103.489 102.608C100.238 103.942 100.067 107.945 100.444 110.99C100.512 111.64 101.538 111.64 101.47 110.99C101.162 108.595 101.128 104.9 103.591 103.703C105.713 102.642 108.484 103.189 109.921 105.105C110.331 105.619 111.221 105.105 110.845 104.558Z" fill="black"/>
<path d="M101.333 110.511C99.4509 109.074 97.5007 107.842 95.0715 108.492C94.7978 108.561 94.6609 108.869 94.7294 109.108C95.3452 111.503 99.1087 112.495 101.093 113.351C104.138 114.685 107.252 115.814 110.399 116.806C111.015 117.012 111.289 116.02 110.673 115.814C108.141 115.027 105.678 114.172 103.214 113.146C101.88 112.598 100.58 112.016 99.2798 111.401C98.1165 110.853 96.0295 110.203 95.6873 108.835C95.5847 109.04 95.4478 109.245 95.3452 109.45C97.4665 108.869 99.2114 110.135 100.785 111.366C101.333 111.811 101.846 110.922 101.333 110.511Z" fill="black"/>
<path d="M71.259 98.3994C72.5933 100.589 75.2962 100.965 77.657 101.308C81.1468 101.821 84.6367 101.821 88.1265 101.444C88.7766 101.376 88.7766 100.35 88.1265 100.418C85.3209 100.726 82.5154 100.794 79.7098 100.521C77.3491 100.281 73.5513 100.144 72.1143 97.8862C71.8064 97.3046 70.9168 97.8178 71.259 98.3994Z" fill="black"/>
<path d="M63.2868 94.9096C63.7316 92.5146 65.8187 91.2829 68.1452 91.1802C67.9742 91.0434 67.8031 90.9407 67.6662 90.8039C67.8373 91.625 68.0768 92.4119 68.419 93.1647C68.6585 93.7805 69.6507 93.5068 69.4112 92.8909C69.1032 92.104 68.8637 91.3513 68.6584 90.5302C68.6242 90.3249 68.3847 90.1538 68.1795 90.1538C65.4423 90.2907 62.8421 91.7961 62.3288 94.6359C62.192 95.2859 63.1842 95.5596 63.2868 94.9096Z" fill="black"/>
<path d="M69.2401 84.3032C68.7269 82.832 68.3505 81.2923 68.2137 79.7185C68.2137 79.5816 68.1795 79.4448 68.1795 79.3079C68.1453 79 68.1795 79.0342 68.3163 79.4106C68.6243 79.6159 68.9322 79.8554 69.2401 80.0949C69.7533 80.5396 70.2323 81.0186 70.6429 81.5318C71.0877 82.0451 71.8062 81.2923 71.3614 80.8133C70.7797 80.1291 68.3505 77.3235 67.3241 78.4184C66.8109 78.9658 67.1873 80.2317 67.2899 80.8476C67.461 82.1135 67.8031 83.3794 68.2137 84.5769C68.4874 85.1927 69.4796 84.9532 69.2401 84.3032Z" fill="black"/>
<path d="M80.8044 79.5134C81.1123 78.9659 81.4203 78.4185 81.7624 77.8711C81.8993 77.6316 82.0361 77.4263 82.1388 77.1868C82.344 76.8447 82.344 76.5367 82.7546 76.6394C83.2336 76.742 83.0625 77.8711 83.0625 78.2817C83.0625 78.9317 83.0967 79.5818 83.0967 80.2319C83.0967 80.8819 84.1232 80.8819 84.1232 80.2319C84.1232 79.1712 84.1574 78.1106 84.0889 77.0499C84.0547 76.3657 83.8152 75.613 83.0625 75.3735C82.3782 75.1682 81.8993 75.613 81.5571 76.1262C80.9755 77.0499 80.4623 78.0422 79.9148 78.9659C79.5727 79.5818 80.4623 80.095 80.8044 79.5134Z" fill="black"/>
<path d="M113.581 101.89C113.787 104.49 116.695 105.345 118.714 104.08C121.69 102.232 122.34 98.0578 121.964 94.9101C121.451 90.5992 120.424 86.5961 121.895 82.3194C123.298 78.2479 126.788 74.9291 131.202 74.6554C131.852 74.6212 131.852 73.5948 131.202 73.629C125.18 74.0054 121.074 79.1375 120.219 84.817C119.706 88.2042 120.458 91.3519 120.903 94.6706C121.177 96.8603 121.04 98.9474 120.048 100.966C119.603 101.821 118.987 102.677 118.166 103.224C116.9 104.011 114.71 103.772 114.574 101.924C114.574 101.24 113.547 101.206 113.581 101.89Z" fill="black"/>
<path d="M114.129 103.737C115.189 106.576 118.885 105.311 120.493 103.668C123.127 101 122.545 96.5517 122.34 93.1646C122.306 92.5145 121.28 92.5145 121.314 93.1646C121.451 95.32 121.656 97.6466 121.28 99.8021C121.108 100.828 120.732 101.786 120.048 102.608C119.295 103.531 116.011 105.858 115.121 103.463C114.882 102.847 113.889 103.121 114.129 103.737Z" fill="black"/>
<path d="M131.236 73.5941C127.336 75.0996 123.401 77.2208 121.827 81.3265C120.014 86.048 121.314 91.1801 121.211 96.0728C121.211 96.7228 122.238 96.7228 122.238 96.0728C122.34 91.796 121.314 87.4166 122.34 83.1741C123.47 78.521 127.336 76.1944 131.51 74.5863C132.126 74.3468 131.852 73.3546 131.236 73.5941Z" fill="black"/>
<path d="M130.449 74.1757C126.857 75.818 123.572 78.692 121.896 82.3529C121.006 84.2688 121.143 86.3901 121.143 88.4772C121.143 91.1459 121.245 93.8488 121.451 96.5175C121.485 97.1675 122.511 97.1675 122.477 96.5175C122.34 94.362 122.238 92.2407 122.203 90.0852C122.169 87.8271 121.861 85.1584 122.717 83.0371C124.188 79.4447 127.507 76.6733 130.962 75.0653C131.578 74.7915 131.065 73.902 130.449 74.1757Z" fill="black"/>
<path d="M70.6088 86.5618C71.5668 88.2383 73.996 87.6567 74.2355 85.8091C74.2697 85.467 73.7565 85.5012 73.7223 85.8091C73.5512 87.2119 71.7721 87.4856 71.0536 86.3223C70.8825 86.0144 70.4377 86.2881 70.6088 86.5618Z" fill="white"/>
<path d="M77.8622 85.2268C78.9228 87.0402 81.6257 86.3217 81.66 84.2346C81.66 83.8925 81.1467 83.8925 81.1467 84.2346C81.1125 85.8427 79.1281 86.3559 78.307 84.9873C78.1359 84.6794 77.6911 84.9189 77.8622 85.2268Z" fill="white"/>
<path d="M75.8093 87.4855C76.0488 88.4777 75.8435 89.4699 75.2277 90.291C75.0224 90.5647 75.4672 90.8042 75.6724 90.5647C76.3567 89.641 76.562 88.4777 76.3225 87.3486C76.2199 87.0407 75.7067 87.1775 75.8093 87.4855Z" fill="white"/>
<path d="M76.0146 87.4514C75.9119 88.7516 76.6305 89.9833 77.8279 90.5307C78.1359 90.6676 78.3754 90.2228 78.1017 90.0859C77.0752 89.6069 76.4252 88.5805 76.5278 87.4514C76.5278 87.1093 76.0146 87.1093 76.0146 87.4514Z" fill="white"/>
<path d="M67.6665 90.4963C70.6773 90.2568 72.5933 92.7202 74.6119 94.5336C74.8514 94.7389 75.2278 94.3967 74.9883 94.1572C72.867 92.2412 70.8142 89.7436 67.6665 89.9489C67.3586 89.9831 67.3586 90.4963 67.6665 90.4963Z" fill="white"/>
<path d="M73.2774 96.5176C77.1436 94.0541 81.7283 93.233 86.2103 94.2252C86.5182 94.2936 86.6551 93.8146 86.3471 93.7462C81.7283 92.754 77.0067 93.5751 73.0379 96.107C72.73 96.2438 73.0037 96.6886 73.2774 96.5176Z" fill="white"/>
<path d="M82.9941 101.205C86.176 101.411 89.1869 100.418 91.6161 98.3313C91.8556 98.126 91.5134 97.7496 91.2397 97.9549C88.9131 99.9393 86.0392 100.897 82.9941 100.692C82.6862 100.692 82.6862 101.205 82.9941 101.205Z" fill="white"/>
<path d="M82.0707 76.9133C81.318 78.1792 81.1469 79.6504 81.5917 81.0532C81.6943 81.3611 82.1733 81.2243 82.0707 80.9164C81.6601 79.6504 81.797 78.3161 82.4812 77.187C82.6865 76.8791 82.2417 76.6054 82.0707 76.9133Z" fill="white"/>
<path d="M68.5217 80.0953C69.3429 80.6085 69.8561 81.3954 70.0614 82.3192C70.1298 82.6271 70.6088 82.4903 70.5404 82.1824C70.3009 81.1217 69.685 80.2322 68.7612 79.6505C68.4875 79.4795 68.248 79.9242 68.5217 80.0953Z" fill="white"/>
<path d="M86.6211 85.5693C87.2711 86.3562 88.0238 87.0405 88.8792 87.5537C89.1529 87.7247 89.4266 87.28 89.1529 87.1089C88.3318 86.5957 87.5791 85.9456 86.9974 85.1929C86.7579 84.9534 86.4158 85.3298 86.6211 85.5693Z" fill="white"/>
<path d="M107.731 102.368C107.013 100.555 103.557 101.787 102.428 102.505C100.409 103.84 99.5196 106.337 100.272 108.63C100.375 108.938 100.854 108.801 100.751 108.493C100.17 106.679 100.649 104.729 102.086 103.395C102.702 102.813 103.523 102.403 104.344 102.197C104.925 102.026 106.91 101.65 107.218 102.471C107.355 102.813 107.834 102.676 107.731 102.368Z" fill="white"/>
<path d="M100.683 108.664C98.0142 107.535 95.1744 107.432 92.4031 108.288C92.0951 108.39 92.232 108.869 92.5399 108.767C95.2428 107.911 97.9457 108.048 100.546 109.143C100.854 109.28 100.991 108.767 100.683 108.664Z" fill="white"/>
<path d="M194.669 250.96C193.266 254.313 193.266 256.81 193.061 263.243C192.822 271.18 192.137 279.084 192.069 286.987C192 293.659 191.898 303.752 191.624 316.89C202.573 317.506 214.684 317.643 227.822 316.993C240.345 316.377 251.909 315.111 262.344 313.537C257.418 296.875 254.167 284.729 251.841 275.32C250.609 270.291 248.796 262.764 243.8 253.971C241.063 249.146 238.224 245.52 236.136 243.091C235.589 242.612 223.511 232.45 209.552 237.24C208.868 237.514 198.706 241.209 194.669 250.96Z" fill="#EF722E"/>
<path d="M214.821 270.907C217.114 274.978 219.406 279.05 221.664 283.121C221.972 283.703 222.861 283.19 222.554 282.608C220.261 278.536 217.969 274.465 215.711 270.394C215.403 269.812 214.513 270.325 214.821 270.907Z" fill="#C64F4F"/>
<path d="M214.548 270.701C219.816 277.27 222.862 284.763 224.504 292.975C226.043 300.741 227.036 308.611 227.617 316.514C227.652 317.164 228.678 317.164 228.644 316.514C228.028 308.405 227.001 300.297 225.428 292.325C223.785 284.079 220.569 276.552 215.3 269.983C214.89 269.435 214.137 270.188 214.548 270.701Z" fill="#C64F4F"/>
<path opacity="0.19" d="M222.793 236.453C223.99 238.848 225.701 242.372 227.617 246.614C233.194 259 238.976 272.07 242.055 288.15C243.321 294.651 244.519 304.06 244.006 315.795C246.88 315.658 249.925 315.419 253.107 315.077C256.289 314.735 259.334 314.324 262.208 313.845C261.318 310.834 259.881 306.044 258.273 300.125C253.791 283.566 253.175 278.399 249.343 267.485C246.503 259.376 243.869 253.868 240.071 248.599C236.65 243.843 233.434 240.866 229.362 238.779C226.83 237.479 224.469 236.829 222.793 236.453Z" fill="#3F3F3F"/>
<path opacity="0.11" d="M214.616 271.078C215.95 276.073 217.113 282.027 217.661 288.733C218.619 300.331 217.387 310.219 215.882 317.609C219.816 317.37 223.717 317.13 227.651 316.891C227.241 309.124 226.351 302.589 225.496 297.628C223.34 285.003 221.082 280.316 219.269 277.305C217.558 274.534 215.847 272.447 214.616 271.078Z" fill="#3F3F3F"/>
<path d="M170.788 192.659C169.658 193.412 168.974 194.849 167.64 197.688C166.545 200.015 166.032 201.828 165.211 204.531C162.953 212.195 163.192 210.895 162.405 213.803C161.379 217.669 159.531 224.444 158.505 233.374C157.513 242.03 157.718 248.702 157.752 250.31C158.128 260.471 159.907 268.033 161.105 272.891C163.226 281.616 166.066 288.869 171.711 303.341C172.943 306.455 173.969 309.021 174.688 310.8C174.175 310.868 173.354 310.971 172.361 311.108C167.195 311.724 166.477 311.587 164.39 312.032C161.721 312.613 159.326 313.195 158.402 315.214C157.991 316.137 157.82 317.438 158.334 317.882C158.984 318.43 160.25 317.198 162.439 316.48C164.287 315.898 165.929 315.932 167.058 316.103C166.169 317.848 165.655 319.422 165.348 320.551C164.595 323.151 164.013 325.273 164.971 326.778C165.45 327.531 166.374 328.215 167.127 328.01C167.537 327.907 167.914 327.531 168.94 324.828C169.932 322.125 170.001 321.27 170.822 320.209C171.54 319.319 172.361 318.84 172.909 318.567C172.635 319.422 172.327 320.688 172.19 322.228C172.122 323.151 172.019 324.007 172.19 325.102C172.327 326.094 172.635 328.215 174.209 329.378C174.483 329.584 175.612 330.439 176.296 329.994C176.878 329.652 176.707 328.694 176.946 325.615C177.151 323.014 177.357 322.296 177.528 321.885C177.972 320.688 178.657 319.833 179.17 319.319C178.999 321.783 179.033 323.836 179.102 325.341C179.238 327.77 179.478 328.865 180.265 329.549C180.71 329.926 181.462 330.302 182.078 330.028C182.694 329.755 182.899 328.899 183.07 327.839C183.823 323.836 183.378 322.672 184.234 320.654C184.576 319.867 184.952 318.909 185.876 318.225C187.826 316.788 190.597 317.643 190.974 317.746C192.616 318.259 193.232 319.148 194.053 318.772C194.737 318.464 195.114 317.472 195.148 316.651C195.182 314.632 192.958 313.092 191.042 311.826C190.084 311.176 188.647 310.321 186.731 309.637C185.055 306.318 182.934 301.494 181.189 295.37C180.025 291.264 179.478 288.116 178.965 285.14C177.151 274.704 177.801 270.701 175.783 260.334C175.304 257.837 174.825 255.852 174.551 254.723C174.688 253.013 174.927 250.344 175.27 247.094C176.399 236.487 177.151 229.85 179.444 222.049C181.257 215.925 183.105 210.895 183.105 210.895C185.431 204.634 186.184 203.779 185.91 201.76C184.952 195.396 174.996 189.853 170.788 192.659Z" fill="white"/>
<path d="M168.153 195.909C162.063 209.971 158.231 224.991 157.41 240.319C156.555 255.955 159.258 271.249 164.321 286.029C167.195 294.48 170.685 302.691 174.243 310.903C174.517 311.519 175.372 310.971 175.133 310.39C168.974 296.157 162.953 281.718 160.079 266.459C157.239 251.405 157.821 235.837 161.105 220.886C162.953 212.503 165.621 204.326 169.043 196.457C169.282 195.841 168.427 195.294 168.153 195.909Z" fill="#161616"/>
<path d="M180.915 215.446C176.604 228.481 174.346 242.132 174.106 255.852C174.106 256.502 175.133 256.502 175.133 255.852C175.372 242.201 177.63 228.686 181.907 215.719C182.113 215.103 181.12 214.83 180.915 215.446Z" fill="#161616"/>
<path d="M170.514 249.625C173.559 253.868 174.791 258.932 175.509 263.995C176.262 269.162 176.604 274.396 177.357 279.563C178.862 290.066 181.325 300.536 186.286 309.945C186.594 310.526 187.484 310.013 187.176 309.432C182.01 299.646 179.581 288.732 178.144 277.852C176.878 268.306 177.254 257.255 171.403 249.112C171.027 248.599 170.137 249.112 170.514 249.625Z" fill="#161616"/>
<path d="M174.107 310.424C170.925 310.595 167.743 310.903 164.629 311.485C162.405 311.929 160.045 312.648 158.505 314.427C157.615 315.488 156.486 318.019 158.437 318.738C159.292 319.046 160.045 318.464 160.763 318.054C162.542 317.027 164.39 315.967 166.511 316.548C167.161 316.719 167.435 315.727 166.785 315.556C165.04 315.077 163.466 315.488 161.892 316.275C161.413 316.514 160.968 316.754 160.524 317.027C160.25 317.164 160.01 317.335 159.737 317.506C159.429 316.959 159.087 316.411 158.779 315.864C158.847 315.009 160.558 314.016 161.174 313.674C162.85 312.785 164.8 312.477 166.648 312.203C169.146 311.827 171.643 311.587 174.141 311.45C174.791 311.416 174.791 310.39 174.107 310.424Z" fill="#161616"/>
<path d="M171.301 313.469C168.598 313.913 166.374 315.761 165.347 318.259C164.253 320.859 163.329 324.725 164.595 327.394C165.553 329.412 167.913 330.131 168.803 327.667C169.35 326.128 169.248 324.451 169.795 322.912C170.479 320.996 171.643 319.353 173.353 318.224C173.901 317.848 173.388 316.958 172.84 317.335C171.232 318.395 170.035 319.832 169.248 321.577C168.837 322.467 168.529 323.391 168.324 324.349C168.153 325.136 168.05 329.104 166.168 327.941C165.108 327.291 165.005 325.204 165.039 324.143C165.108 322.57 165.518 320.756 166.032 319.251C166.887 316.719 168.906 314.906 171.54 314.461C172.224 314.358 171.951 313.366 171.301 313.469Z" fill="#161616"/>
<path d="M174.517 316.001C172.396 317.369 171.643 320.346 171.438 322.741C171.232 325.307 171.951 328.078 173.867 329.891C174.996 330.952 176.741 331.5 177.049 329.515C177.562 326.196 176.228 321.509 179.854 319.525C180.436 319.217 179.923 318.327 179.341 318.635C178.041 319.354 177.22 320.517 176.707 321.92C175.988 323.972 176.399 326.06 176.091 328.181C175.954 329.139 175.68 330.165 174.62 329.173C174.243 328.831 173.901 328.386 173.627 327.941C172.977 326.915 172.601 325.752 172.498 324.554C172.259 322.159 172.875 318.327 175.064 316.89C175.578 316.514 175.064 315.624 174.517 316.001Z" fill="#161616"/>
<path d="M179.375 318.738C178.725 321.201 178.109 323.767 178.52 326.333C178.691 327.565 179.409 330.576 180.983 330.884C182.762 331.226 183.481 328.078 183.652 326.915C184.028 324.383 183.549 321.338 185.534 319.388C186.013 318.909 185.294 318.19 184.815 318.669C182.42 321.03 183.241 324.451 182.523 327.462C182.283 328.557 181.599 330.199 180.47 328.933C179.854 328.283 179.683 327.017 179.546 326.162C179.204 323.767 179.786 321.372 180.402 319.046C180.538 318.396 179.546 318.122 179.375 318.738Z" fill="#161616"/>
<path d="M186.766 310.527C188.784 311.348 190.871 312.237 192.445 313.811C193.164 314.53 194.053 315.625 194.259 316.651C194.772 319.491 192.65 317.677 191.864 317.335C189.708 316.377 185.431 317.061 184.2 319.251C183.892 319.833 184.781 320.346 185.089 319.764C185.739 318.567 187.518 318.259 188.75 318.088C189.503 317.985 190.358 317.917 191.077 318.122C191.898 318.362 192.411 319.08 193.198 319.32C194.327 319.662 195.182 318.875 195.353 317.78C195.661 316.001 194.122 314.016 192.924 312.853C191.248 311.245 189.092 310.356 186.971 309.5C186.423 309.295 186.184 310.287 186.766 310.527Z" fill="#161616"/>
<path opacity="0.13" d="M179.854 204.395C175.92 204.634 173.559 214.693 172.259 220.27C170.787 226.531 169.453 235.153 169.727 247.71C169.966 258.932 171.403 267.485 171.882 270.462C174.038 283.258 177.425 294.001 180.744 302.418C181.839 305.497 182.899 308.576 183.994 311.622C183.378 314.153 182.762 316.754 182.181 319.457C181.428 323.015 180.744 326.505 180.196 329.858C180.846 329.926 181.736 329.892 182.352 329.276C183.139 328.489 183.036 327.223 183.07 326.128C183.105 325.102 183.207 320.141 185.431 318.293C186.8 317.164 188.989 317.164 190.495 317.712C192.034 318.293 192.719 319.422 193.745 319.08C194.532 318.841 195.079 317.883 195.182 317.13C195.524 314.632 190.734 312.066 189.947 311.656C188.408 310.835 187.689 310.732 186.697 309.706C185.465 308.405 185.055 306.866 184.884 306.182C182.044 295.37 180.641 296.054 178.725 283.634C177.288 274.26 178.212 274.807 176.741 267.349C175.714 262.08 174.859 259.924 174.585 255.374C174.277 250.378 174.859 246.478 175.475 243.022C178.041 228.892 182.968 211.785 184.165 207.714C183.07 206.003 181.565 204.292 179.854 204.395Z" fill="#3F3F3F"/>
<path d="M249.685 63.7405C248.624 63.7063 247.803 65.6223 247.598 66.1355C247.29 66.8882 246.811 68.3594 247.153 70.4465C247.153 70.4465 247.358 71.8835 248.043 80.5738C248.214 82.524 248.248 85.3638 247.735 88.922C246.366 92.6856 245.066 95.628 244.176 97.544C241.166 103.976 239.147 106.542 234.939 114.685C233.365 117.73 233.228 118.209 231.38 121.973C226.762 131.313 223.374 137.164 219.919 143.425C216.874 148.899 212.597 156.94 207.567 167.272C207.328 168.162 206.13 172.917 208.902 177.092C211.844 181.505 218.003 183.49 223.956 181.574C224.88 180.273 226.18 178.255 227.377 175.62C228.541 173.054 229.088 171.07 229.464 169.804C229.841 168.538 231.346 164.261 234.391 155.639C235.349 152.971 236.513 149.789 238.873 143.562C242.466 134.016 244.245 129.26 245.442 126.284C248.145 119.509 250.198 114.822 254.235 105.721C256.357 100.931 258.957 95.149 261.968 88.5799C263.713 87.5877 266.108 86.0481 268.674 83.8242C272.369 80.6423 274.216 77.9393 277.775 72.8072C280.067 69.4543 281.812 66.5119 281.333 63.5695C281.265 63.1589 281.093 61.9614 280.443 61.7903C279.622 61.5508 278.596 63.1931 277.467 64.6301C276.303 66.1013 274.559 68.0173 271.958 70.0017C272.848 67.5383 273.737 65.6223 274.353 64.3564C275.756 61.4824 276.919 59.6348 277.638 56.4529C278.425 53.0657 277.706 52.4499 277.501 52.2788C276.577 51.5945 275.003 52.8947 274.08 52.142C273.258 51.4235 273.977 49.8496 273.327 49.4733C272.677 49.0969 271.24 50.226 270.213 51.4235C268.434 53.4763 268.024 55.4607 267.374 57.3767C266.758 59.2585 265.629 61.8245 263.507 64.6643C262.994 64.7327 262.31 64.7669 262.002 64.3564C261.66 63.8774 262.139 63.0905 262.584 61.8245C262.686 61.5166 262.618 61.6877 263.336 58.54C263.61 57.3425 264.123 55.1186 264.534 53.3395C265.115 50.7734 265.389 49.7128 264.842 48.5837C264.739 48.3442 264.294 47.4204 263.644 47.3862C262.892 47.352 262.31 48.5495 261.865 49.4733C260.052 53.2026 259.128 55.0844 258.889 55.7344C257.691 58.9848 256.083 63.9458 255.843 65.6565C255.809 65.8618 255.741 66.5803 255.399 67.5041C255.228 67.9489 255.125 68.1199 255.022 68.3936C254.167 70.3096 254.885 71.5755 253.996 72.2598C253.893 72.3282 253.38 72.7046 252.969 72.5677C252.525 72.4309 252.319 71.8493 252.08 69.8991C251.738 67.2304 251.943 66.4434 251.327 65.2802C250.917 64.7669 250.403 63.7747 249.685 63.7405Z" fill="white"/>
<path d="M248.043 79.5817C248.282 77.084 247.906 74.6548 247.769 72.1572C247.7 70.9597 247.7 69.728 247.872 68.5305C247.974 67.8462 248.111 67.162 248.316 66.5119C248.658 65.5197 248.693 64.6986 249.788 64.6643C250.814 64.6301 250.745 65.246 250.917 66.1013C251.088 66.854 251.122 67.641 251.156 68.3937C251.224 69.4543 251.259 70.5492 251.498 71.5756C251.738 72.6362 252.388 73.5258 253.585 73.1494C254.201 72.9441 253.962 71.9519 253.312 72.1572C252.114 72.4993 252.217 68.4621 252.148 67.7778C252.046 66.683 251.943 65.5539 251.532 64.5275C250.951 63.0905 249.616 62.372 248.487 63.7063C247.016 65.417 246.708 68.4963 246.708 70.6176C246.708 73.6284 247.29 76.5708 247.016 79.5817C246.982 80.2317 248.008 80.2317 248.043 79.5817Z" fill="#161616"/>
<path d="M253.996 72.739C255.707 69.4202 256.22 65.6567 257.212 62.0984C258.273 58.2664 259.607 54.5029 261.591 51.0815C262.036 50.3288 262.481 49.2681 263.131 48.6865C264.397 47.5232 264.397 49.7471 264.294 50.7051C264.089 52.8264 263.542 54.9819 263.063 57.069C262.618 58.9849 262.002 60.8325 261.557 62.7485C261.318 63.8091 261.318 64.7329 262.07 65.554C262.515 66.033 263.234 65.3145 262.789 64.8355C261.934 63.9118 262.823 62.0642 263.097 61.072C263.405 59.9429 263.713 58.8139 263.952 57.6848C264.431 55.5977 264.91 53.4765 265.218 51.321C265.389 50.1919 265.629 48.2075 264.636 47.3522C263.781 46.6337 262.926 47.3179 262.344 48.0022C259.846 51.1157 258.307 55.2214 257.075 58.9849C255.672 63.3301 255.228 68.1885 253.106 72.26C252.798 72.8074 253.688 73.3206 253.996 72.739Z" fill="#161616"/>
<path d="M262.31 65.6564C263.336 65.7591 263.713 65.0064 264.192 64.1852C264.944 62.8851 265.629 61.5165 266.279 60.1822C267.545 57.5819 268.434 54.7421 269.974 52.313C270.316 51.7655 270.727 51.0812 271.274 50.6707C271.719 50.1575 272.301 49.9864 273.053 50.2259C273.156 50.7049 273.224 51.1839 273.224 51.6629C273.259 53.3394 272.711 55.0159 272.129 56.5897C270.966 59.7032 269.666 62.7824 268.4 65.8959C268.161 66.5118 269.153 66.7855 269.392 66.1696C270.111 64.3905 277.501 48.7889 272.677 48.6863C271.719 48.6521 270.624 49.8495 270.077 50.4996C269.119 51.6287 268.434 52.9288 267.818 54.2632C267.1 55.8712 266.45 57.4793 265.697 59.0531C265.252 60.0111 264.739 61.0033 264.26 61.9271C263.952 62.5429 263.2 64.6642 262.344 64.5958C261.66 64.5616 261.66 65.588 262.31 65.6564Z" fill="#161616"/>
<path d="M274.422 53.0663C274.798 51.0819 276.953 52.4505 277.227 53.7164C277.467 54.777 277.056 55.8376 276.714 56.8298C276.201 58.3353 275.619 59.8065 275.003 61.2435C273.806 64.049 272.403 66.7177 270.829 69.3522C270.487 69.9338 271.377 70.447 271.719 69.8654C273.19 67.4362 274.49 64.9044 275.653 62.3383C276.646 60.1144 277.843 57.651 278.219 55.2218C278.459 53.6822 278.014 51.6977 276.303 51.1503C275.037 50.7398 273.669 51.5267 273.429 52.8268C273.327 53.4427 274.319 53.7164 274.422 53.0663Z" fill="#161616"/>
<path d="M272.437 70.2757C273.737 68.8045 275.003 67.3333 276.303 65.8621C276.988 65.0752 277.603 64.2198 278.356 63.5355C278.596 63.3302 278.835 63.1592 279.04 62.9539C279.622 63.1592 280.204 63.3645 280.82 63.5697C280.991 63.8777 280.58 64.7672 280.477 65.0409C279.417 68.2913 277.877 71.3705 276.064 74.2445C272.403 80.0267 267.373 84.8851 261.489 88.4091C260.907 88.7512 261.454 89.6408 262.002 89.2987C269.324 84.9193 275.345 78.487 279.143 70.8573C280.067 69.0098 280.956 67.0596 281.538 65.0752C281.88 63.9119 282.086 62.338 280.751 61.7222C279.451 61.1063 278.082 62.3038 277.261 63.1592C275.311 65.1778 273.532 67.4359 271.684 69.5572C271.274 70.0362 271.992 70.7547 272.437 70.2757Z" fill="#161616"/>
<path d="M247.153 78.5212C247.393 81.6689 247.632 84.8851 247.119 88.0327C246.606 91.1462 245.306 94.0202 243.869 96.8257C240.96 102.505 237.915 108.116 234.939 113.762C228.986 125.052 223.032 136.309 217.079 147.599C213.658 154.066 210.236 160.566 206.815 167.033C206.507 167.615 207.396 168.128 207.704 167.546C219.987 144.246 232.51 121.049 244.587 97.6127C246.024 94.8413 247.358 92.0016 247.94 88.9565C248.624 85.5009 248.385 82.0111 248.111 78.5212C248.145 77.8712 247.119 77.8712 247.153 78.5212Z" fill="#161616"/>
<path d="M261.42 88.1699C250.472 111.299 240.926 134.975 232.509 159.13C230.046 166.144 227.582 173.158 224.606 179.966C224.332 180.582 225.222 181.095 225.495 180.479C230.593 168.881 234.323 156.735 238.702 144.897C243.184 132.717 248.043 120.639 253.209 108.733C256.151 101.992 259.162 95.3207 262.31 88.6831C262.583 88.1015 261.694 87.5883 261.42 88.1699Z" fill="#161616"/>
<path opacity="0.1" d="M276.885 52.6555C275.482 52.4502 273.601 58.1982 272.506 61.0722C269.187 69.8994 266.382 70.9258 259.265 82.9007C256.631 87.3143 253.004 93.9518 249.343 102.608C238.395 125.668 227.48 148.763 216.532 171.823C219.2 175.073 221.835 178.358 224.504 181.608C225.838 177.81 227.788 172.234 230.217 165.493C234.631 153.347 240.345 137.712 248.419 118.689C251.635 111.161 256.083 101 261.797 89.0592C263.371 88.067 265.56 86.5274 267.955 84.4061C271.172 81.6006 275.414 77.8028 278.322 71.6101C279.246 69.6941 280.409 66.7517 281.025 62.8855C280.58 62.6802 279.93 62.4407 279.212 62.5776C277.98 62.8171 277.33 64.0146 276.817 64.8357C274.832 67.8807 271.924 69.8994 271.548 69.6599C271.343 69.4888 271.924 68.4966 273.498 65.2805C276.714 58.6772 275.38 60.4221 276.646 58.1982C277.364 56.9323 278.083 55.8374 277.843 54.4346C277.843 53.8188 277.467 52.7581 276.885 52.6555Z" fill="#3F3F3F"/>
<path opacity="0.13" d="M274.798 75.9895C273.087 77.0844 270.658 78.6924 267.887 80.8137C264.705 83.2087 261.283 85.8089 258.409 89.0935C254.509 93.5413 252.798 97.9549 251.772 100.521C242.363 124.539 231.175 150.61 227.993 157.864C226.248 161.833 223.511 167.82 219.884 175.005C221.527 177.16 223.203 179.316 224.845 181.471C229.567 167.067 235.007 151.979 241.234 136.343C247.94 119.544 254.885 103.84 261.865 89.2303C263.747 87.9644 265.868 86.3564 268.023 84.2693C271.068 81.3611 273.258 78.4187 274.798 75.9895Z" fill="#3F3F3F"/>
<path d="M183.823 175.039C182.557 175.894 179.717 177.878 176.809 181.095C173.798 184.413 172.053 187.527 170.616 190.161C169.487 192.18 168.666 193.959 168.084 195.259C168.974 196.97 170.411 199.604 172.395 202.752C175.919 208.329 178.657 211.34 183.378 217.396C185.363 219.928 188.237 223.725 191.658 228.515C192.205 231.081 192.684 233.784 193.095 236.624C193.916 242.44 194.224 247.846 194.224 252.705C195.49 254.073 197.68 256.058 200.896 257.46C206.233 259.821 211.091 259.137 213.623 258.726C219.234 257.871 223.066 255.373 225.701 253.628C230.491 250.481 233.741 246.717 235.897 243.604C235.452 238.266 234.87 232.758 234.152 227.044C233.536 222.186 232.852 217.464 232.099 212.879C232.03 209.287 231.688 204.394 230.525 198.715C229.567 193.959 228.404 188.416 224.948 181.847C220.637 173.67 215.266 168.709 213.179 166.896C211.331 165.288 209.654 164.09 208.423 163.235C203.428 166.417 199.117 168.401 196.174 169.599C190.7 171.857 188.134 172.199 183.823 175.039Z" fill="white"/>
<path d="M168.632 195.396C169.693 191.359 172.635 187.596 175.167 184.311C177.836 180.89 180.846 177.776 184.439 175.279C184.986 174.902 184.473 174.013 183.926 174.389C180.231 176.955 177.117 180.137 174.38 183.661C171.746 187.048 168.769 190.88 167.674 195.089C167.503 195.773 168.495 196.012 168.632 195.396Z" fill="#161616"/>
<path d="M167.879 195.738C174.927 208.055 183.276 219.62 192.753 230.192C193.198 230.671 193.916 229.952 193.471 229.473C184.062 218.97 175.783 207.474 168.769 195.225C168.427 194.643 167.537 195.157 167.879 195.738Z" fill="#161616"/>
<path d="M196.824 170.078C200.656 167.375 204.865 165.357 209.347 164.056C209.997 163.885 209.723 162.893 209.073 163.064C204.488 164.399 200.212 166.451 196.311 169.188C195.764 169.565 196.277 170.454 196.824 170.078Z" fill="#161616"/>
<path d="M208.491 164.33C224.846 175.724 231.86 195.705 231.073 215.036C231.038 215.686 232.065 215.686 232.099 215.036C232.92 195.294 225.667 175.039 209.005 163.441C208.491 163.064 207.978 163.954 208.491 164.33Z" fill="#161616"/>
<path d="M190.529 228.173C192.308 231.834 192.513 236.384 192.89 240.353C193.3 244.391 193.437 248.462 193.437 252.534C193.437 253.184 194.464 253.184 194.464 252.534C194.498 248.017 194.293 243.501 193.779 239.019C193.369 235.221 193.095 231.116 191.419 227.626C191.111 227.044 190.255 227.557 190.529 228.173Z" fill="#161616"/>
<path d="M194.087 252.739C199.219 259.034 207.978 260.813 215.608 258.863C219.85 257.768 223.785 255.681 227.309 253.081C230.833 250.481 234.186 247.47 236.171 243.501C236.478 242.919 235.589 242.406 235.281 242.988C233.365 246.786 230.149 249.694 226.762 252.191C223.477 254.621 219.816 256.605 215.847 257.734C208.389 259.821 199.801 258.213 194.772 252.02C194.395 251.507 193.677 252.226 194.087 252.739Z" fill="#161616"/>
<path d="M231.449 213.496C233.125 223.521 234.768 233.545 235.349 243.673C235.383 244.323 236.41 244.323 236.376 243.673C235.76 233.443 234.118 223.315 232.441 213.222C232.338 212.572 231.346 212.846 231.449 213.496Z" fill="#161616"/>
<path opacity="0.13" d="M198.125 168.71C201.922 173.192 207.123 180.171 211.468 189.614C217.832 203.437 219.098 215.378 220.056 225.539C220.808 233.272 221.219 244.049 219.714 256.913C222.622 255.647 226.727 253.458 230.696 249.66C232.886 247.539 234.528 245.417 235.76 243.57C234.631 234.024 233.502 224.444 232.373 214.899C232.578 207.029 231.346 200.666 230.183 196.355C226.591 183.011 219.679 174.423 217.353 171.72C214.171 167.991 211.057 165.254 208.765 163.441C205.207 165.22 201.683 166.965 198.125 168.71Z" fill="#3F3F3F"/>
<path opacity="0.14" d="M223.614 180.684C222.998 180.855 224.435 186.432 225.803 194.678C225.803 194.678 227.891 207.2 228.335 219.312C228.643 227.318 228.233 239.019 224.64 253.56C226.282 252.739 228.301 251.541 230.388 249.865C232.92 247.812 234.733 245.656 235.965 243.946C235.52 230.158 234.357 223.007 233.262 218.97C233.057 218.183 232.509 216.335 232.065 213.735C231.243 208.876 231.654 206.789 231.209 202.752C230.867 199.536 230.217 197.415 229.02 193.48C227.206 187.561 224.298 180.479 223.614 180.684Z" fill="#3F3F3F"/>
<path d="M183.344 118.757C181.086 120.023 178.212 121.939 175.441 124.847C169.693 130.971 167.845 137.814 167.195 141.201C166.682 141.133 165.279 141.03 164.15 141.92C162.474 143.22 162.439 145.786 163.089 147.291C163.329 147.839 163.671 148.284 164.39 149.173C165.245 150.234 165.792 150.884 166.682 151.26C167.058 151.431 167.914 151.671 169.145 151.397C169.522 152.526 170.138 154.1 171.061 155.913C172.259 158.24 174.072 161.695 177.699 164.706C178.76 165.596 180.402 166.759 182.626 167.82C183.447 168.88 184.952 171.104 185.123 174.115C185.465 179.418 181.599 183.832 177.938 185.782C171.575 189.169 164.663 185.782 162.131 184.516C160.763 183.832 153.886 180.274 151.012 172.473C147.522 163.064 152.073 153.655 154.775 148.044C157.513 142.399 158.779 142.775 160.866 137.267C163.637 129.979 162.166 127.413 165.348 121.836C166.579 119.646 169.077 115.267 174.312 113.214C178.794 111.469 182.934 112.359 184.713 112.872C186.184 111.982 188.784 110.717 192.069 110.717C199.87 110.717 204.865 118.107 206.062 119.886C209.621 125.121 207.739 126.729 210.921 134.085C214.924 143.357 218.824 142.809 222.417 151.5C224.162 155.742 227.07 162.756 223.854 169.462C220.535 176.373 212.974 178.392 212.016 178.631C210.271 179.076 205.583 180.239 200.896 177.742C200.451 177.502 194.566 174.286 194.087 168.778C193.916 166.759 194.498 164.877 194.635 164.467C195.353 162.243 196.585 160.806 196.961 160.327C198.433 158.514 200.212 155.161 201.443 148.489C202.025 148.455 202.983 148.318 203.941 147.77C205.96 146.607 206.918 144.246 206.815 142.193C206.781 141.714 206.644 138.977 204.66 138.054C203.838 137.677 202.983 137.78 202.504 137.882C196.14 131.45 189.742 125.121 183.344 118.757Z" fill="#1C56B2"/>
<path d="M183.344 118.723C179.546 120.947 176.912 123.41 175.235 125.223C169.658 131.279 167.879 137.609 167.503 139.08C167.263 140.004 167.092 140.756 167.024 141.304C166.647 141.167 165.792 140.928 164.937 141.304C163.637 141.886 163.363 143.459 163.226 144.246C162.884 146.06 163.568 147.497 163.842 148.044C164.218 148.831 164.834 150.097 166.305 150.747C167.503 151.294 168.632 151.089 169.111 150.986C169.59 152.218 170.274 153.929 171.335 155.879C172.943 158.958 174.448 161.798 177.356 164.33C178.486 165.322 180.333 166.691 183.002 167.751C183.549 168.607 184.302 169.941 184.712 171.686C185.055 173.055 185.123 174.218 185.089 175.107C185.978 175.552 187.655 176.236 189.742 176.202C193.745 176.134 196.379 173.636 196.995 173.02C196.345 171.07 195.764 168.675 195.524 165.904C195.421 164.638 195.387 163.44 195.387 162.346C196.448 161.216 197.748 159.608 198.809 157.453C200.69 153.724 200.998 150.268 201.033 148.249C201.512 148.318 202.47 148.42 203.496 148.01C204.933 147.428 205.583 146.162 205.959 145.444C206.062 145.273 207.499 142.33 206.199 139.422C205.891 138.772 205.378 137.575 204.351 137.472C203.599 137.404 202.983 137.985 202.743 138.225C201.34 136.548 198.706 133.435 195.011 129.158C191.829 125.429 189.81 123.102 186.423 120.707C185.191 119.818 184.097 119.167 183.344 118.723Z" fill="white"/>
<path d="M178.623 155.024C178.281 155.81 179.889 157.213 180.641 157.795C182.215 158.958 183.892 159.129 184.508 159.163C185.226 159.232 187.587 159.403 189.742 157.863C190.256 157.487 191.693 156.495 192.24 154.647C192.616 153.313 192.514 151.465 191.795 151.157C191.248 150.952 190.735 151.636 189.571 152.458C187.518 153.86 185.397 154.202 183.584 154.476C180.505 154.955 178.965 154.339 178.623 155.024Z" fill="black"/>
<path d="M167.777 147.12C169.008 152.252 170.993 157.282 174.277 161.456C177.185 165.185 181.496 168.778 186.526 168.299C191.179 167.854 194.977 164.227 197.44 160.532C200.348 156.221 201.751 151.055 201.614 145.854C201.58 145.204 200.554 145.204 200.588 145.854C200.725 150.61 199.493 155.263 196.995 159.3C194.635 163.098 190.734 167.101 185.978 167.306C180.949 167.512 176.809 163.406 174.14 159.574C171.472 155.742 169.829 151.328 168.735 146.812C168.598 146.196 167.606 146.47 167.777 147.12Z" fill="#161616"/>
<path d="M182.318 167.82C183.755 170.01 184.473 172.405 184.473 175.039C184.473 175.689 185.5 175.689 185.5 175.039C185.5 172.268 184.713 169.633 183.207 167.307C182.865 166.725 181.976 167.238 182.318 167.82Z" fill="#161616"/>
<path d="M184.952 175.45C189.126 177.845 194.532 176.681 197.372 172.849C197.782 172.336 196.893 171.823 196.482 172.336C193.95 175.723 189.092 176.681 185.465 174.56C184.884 174.252 184.371 175.142 184.952 175.45Z" fill="#161616"/>
<path d="M194.806 163.235C194.84 166.349 195.319 169.428 196.312 172.405C196.517 173.021 197.509 172.747 197.304 172.131C196.38 169.223 195.867 166.28 195.833 163.235C195.833 162.551 194.806 162.551 194.806 163.235Z" fill="#161616"/>
<path d="M168.803 150.371C168.359 150.85 167.264 150.679 166.751 150.405C166.34 150.2 165.964 149.892 165.656 149.584C164.971 148.934 164.424 148.147 164.082 147.292C163.398 145.683 163.09 141.065 166.135 141.886C166.785 142.057 167.058 141.065 166.408 140.894C162.645 139.901 162.063 144.897 163.021 147.394C163.774 149.413 167.23 153.587 169.556 151.089C169.967 150.61 169.248 149.892 168.803 150.371Z" fill="#161616"/>
<path d="M203.188 138.396C203.599 137.027 205.378 139.662 205.583 140.141C205.994 141.236 206.131 142.433 205.96 143.596C205.686 145.923 203.838 148.147 201.272 147.497C200.622 147.326 200.349 148.318 200.999 148.489C205.139 149.55 207.362 145.239 206.986 141.715C206.815 140.175 206.199 138.191 204.728 137.369C203.77 136.856 202.538 136.993 202.196 138.088C201.991 138.772 202.983 139.012 203.188 138.396Z" fill="#161616"/>
<path d="M172.464 131.142C173.593 128.987 175.578 127.584 177.973 127.242C178.623 127.139 178.349 126.147 177.699 126.25C175.064 126.626 172.806 128.268 171.575 130.629C171.267 131.211 172.156 131.724 172.464 131.142Z" fill="#161616"/>
<path d="M188.271 125.873C191.145 125.189 194.019 126.626 195.319 129.226C195.627 129.808 196.483 129.295 196.209 128.713C194.703 125.668 191.282 124.094 187.997 124.881C187.347 125.052 187.621 126.045 188.271 125.873Z" fill="#161616"/>
<path d="M180.813 130.082C181.463 133.709 181.634 137.438 181.257 141.133C181.121 142.262 180.573 143.87 181.086 144.999C181.634 146.231 183.105 147.292 184.029 148.25C184.474 148.729 185.226 148.01 184.747 147.531C184.131 146.881 183.516 146.265 182.9 145.615C181.942 144.623 181.839 144.315 182.044 142.878C182.215 141.578 182.386 140.244 182.455 138.909C182.592 135.864 182.352 132.819 181.805 129.842C181.702 129.158 180.71 129.432 180.813 130.082Z" fill="#161616"/>
<path d="M176.502 138.875C175.988 138.053 175.749 137.164 175.817 136.206C175.817 136.001 175.954 135.111 176.125 135.077C176.228 135.077 176.399 136.274 176.433 136.411C176.502 136.856 176.536 137.335 176.536 137.78C176.536 137.917 176.502 139.046 176.502 138.361C176.467 137.369 176.536 136.377 176.57 135.385C176.228 135.419 175.886 135.487 175.578 135.522C175.749 136.582 175.851 137.643 175.851 138.738C176.194 138.738 176.536 138.738 176.878 138.738C176.878 138.601 176.878 138.464 176.878 138.327C176.878 137.677 175.851 137.677 175.851 138.327C175.851 138.464 175.851 138.601 175.851 138.738C175.851 139.388 176.878 139.388 176.878 138.738C176.878 137.574 176.775 136.411 176.57 135.248C176.467 134.666 175.578 134.837 175.578 135.385C175.544 136.48 175.407 137.677 175.544 138.772C175.612 139.285 175.851 139.764 176.433 139.867C178.144 140.209 177.631 136.856 177.494 136.035C177.391 135.385 177.288 134.393 176.673 134.016C176.159 133.708 175.612 134.016 175.304 134.495C174.449 135.932 174.928 138.053 175.715 139.354C175.954 139.935 176.844 139.422 176.502 138.875Z" fill="#161616"/>
<path d="M192.308 137.062C191.795 136.241 191.555 135.351 191.624 134.393C191.624 134.188 191.761 133.298 191.932 133.264C192.034 133.264 192.206 134.462 192.24 134.598C192.308 135.043 192.342 135.522 192.342 135.967C192.342 136.104 192.308 137.233 192.308 136.549C192.274 135.556 192.342 134.564 192.377 133.572C192.034 133.606 191.692 133.675 191.384 133.709C191.555 134.769 191.658 135.83 191.658 136.925C192 136.925 192.342 136.925 192.685 136.925C192.685 136.788 192.685 136.651 192.685 136.514C192.685 135.864 191.658 135.864 191.658 136.514C191.658 136.651 191.658 136.788 191.658 136.925C191.658 137.575 192.685 137.575 192.685 136.925C192.685 135.762 192.582 134.598 192.377 133.435C192.274 132.853 191.384 133.025 191.384 133.572C191.35 134.667 191.213 135.864 191.35 136.959C191.419 137.472 191.658 137.951 192.24 138.054C193.95 138.396 193.437 135.043 193.3 134.222C193.198 133.572 193.095 132.58 192.479 132.203C191.966 131.895 191.419 132.203 191.111 132.682C190.255 134.119 190.734 136.241 191.521 137.541C191.761 138.157 192.65 137.643 192.308 137.062Z" fill="#161616"/>
<path d="M171.438 142.023C172.088 142.023 172.088 140.996 171.438 140.996C170.788 140.996 170.788 142.023 171.438 142.023Z" fill="#161616"/>
<path d="M175.475 142.775C175.509 142.775 175.544 142.775 175.612 142.775C175.886 142.775 176.125 142.535 176.125 142.262C176.125 141.988 175.886 141.749 175.612 141.749C175.578 141.749 175.544 141.749 175.475 141.749C175.201 141.749 174.962 141.988 174.962 142.262C174.962 142.535 175.167 142.775 175.475 142.775Z" fill="#161616"/>
<path d="M173.08 145.923C173.73 145.923 173.73 144.896 173.08 144.896C172.43 144.896 172.396 145.923 173.08 145.923Z" fill="#161616"/>
<path d="M192.513 141.509C192.547 141.509 192.582 141.509 192.65 141.509C192.924 141.509 193.163 141.27 193.163 140.996C193.163 140.722 192.924 140.483 192.65 140.483C192.616 140.483 192.582 140.483 192.513 140.483C192.239 140.483 192 140.722 192 140.996C192 141.27 192.205 141.509 192.513 141.509Z" fill="#161616"/>
<path d="M196.277 138.977C196.927 138.977 196.927 137.951 196.277 137.951C195.627 137.951 195.627 138.977 196.277 138.977Z" fill="#161616"/>
<path d="M195.764 141.749C195.798 141.749 195.832 141.749 195.901 141.749C196.174 141.749 196.414 141.509 196.414 141.236C196.414 140.962 196.174 140.722 195.901 140.722C195.866 140.722 195.832 140.722 195.764 140.722C195.49 140.722 195.25 140.962 195.25 141.236C195.285 141.509 195.49 141.749 195.764 141.749Z" fill="#161616"/>
<path d="M179.478 155.811C178.931 155.024 178.041 153.895 178.417 152.869C178.862 151.705 180.265 151.876 181.189 152.013C182.318 152.184 183.242 152.39 184.337 152.047C185.226 151.774 186.013 151.192 186.834 150.747C188.784 149.652 191.077 149.55 191.693 152.116C193.437 159.13 181.052 161.114 179.136 154.956C178.931 154.34 177.938 154.579 178.144 155.229C180.505 162.791 195.148 159.985 192.582 151.603C192.137 150.2 191.077 149.002 189.571 148.831C187.108 148.592 185.5 151.055 183.139 151.226C181.394 151.363 179.273 150.029 177.87 151.671C176.604 153.142 177.631 155.024 178.554 156.324C178.965 156.872 179.854 156.358 179.478 155.811Z" fill="#161616"/>
<path d="M177.494 153.86C178.246 155.947 182.01 155.297 183.652 155.058C186.8 154.579 189.674 153.21 192.103 151.192C192.616 150.781 191.898 150.028 191.384 150.473C189.605 151.978 187.552 153.073 185.294 153.689C184.302 153.963 179.067 155.126 178.52 153.621C178.246 152.971 177.254 153.244 177.494 153.86Z" fill="#161616"/>
<path d="M183.584 168.88C187.587 169.907 192.924 167.375 195.182 164.056C195.559 163.509 194.669 162.995 194.293 163.543C192.308 166.451 187.347 168.778 183.857 167.888C183.207 167.717 182.934 168.709 183.584 168.88Z" fill="#161616"/>
<path d="M183.96 169.189C187.518 171.413 193.369 168.265 195.08 164.878C195.388 164.296 194.498 163.783 194.19 164.365C192.753 167.238 187.518 170.215 184.473 168.333C183.892 167.957 183.379 168.847 183.96 169.189Z" fill="#161616"/>
<path opacity="0.2" d="M198.159 132.921C198.398 134.153 198.706 136.103 198.911 138.464C199.39 144.759 200.212 155.297 193.848 162.311C192.479 163.817 189.571 166.485 184.199 167.991C185.91 167.922 187.997 167.717 190.255 167.135C191.384 166.862 192.411 166.52 193.335 166.143C193.471 169.188 193.574 172.233 193.711 175.278C194.874 174.526 196.003 173.807 197.167 173.054C195.593 169.565 195.593 166.862 195.798 165.151C196.106 162.756 196.996 160.806 197.885 158.856C198.672 157.145 199.493 155.776 200.143 154.818C200.212 155.537 200.383 156.29 200.862 157.008C202.949 160.122 209.484 160.429 213.589 157.761C217.387 155.297 219.235 150.302 218.277 145.17C218.927 145.717 219.611 146.367 220.261 147.154C220.774 147.77 222.109 149.549 223.956 155.811C224.538 157.761 224.812 158.753 224.983 159.745C225.188 161.114 225.564 163.714 224.846 166.656C223.614 171.72 219.953 174.628 218.858 175.449C218.071 176.031 215.676 177.776 212.084 178.597C210.373 178.973 205.241 180.205 200.417 177.4C198.604 176.339 197.611 175.552 197.064 174.594C196.482 173.533 196.414 172.541 196.345 171.789C196.038 167.101 195.901 164.74 196.209 163.132C197.132 158.479 199.219 158 200.383 152.697C200.793 150.781 200.896 149.173 200.93 148.147C201.375 148.215 202.059 148.283 202.88 148.078C204.591 147.633 205.446 146.231 205.754 145.717C206.986 143.767 207.533 140.277 205.617 138.669C205.344 138.43 204.386 137.711 202.538 137.848C201.135 136.206 199.664 134.564 198.159 132.921Z" fill="#3F3F3F"/>
<path opacity="0.13" d="M181.941 144.007C183.686 144.52 185.465 145.067 187.21 145.58C186.766 145.991 186.321 146.367 185.842 146.778C185.397 147.154 184.986 147.462 184.542 147.804C183.994 147.394 183.207 146.675 182.591 145.58C182.249 144.999 182.044 144.451 181.941 144.007Z" fill="#3F3F3F"/>
<path opacity="0.16" d="M154.502 148.283C150.773 161.456 153.544 172.096 159.121 174.423C163.5 176.236 171.404 173.67 172.875 169.188C173.08 168.606 173.285 167.58 172.498 164.432C171.814 161.661 170.411 157.487 167.264 152.731C166.716 152.389 165.998 151.842 165.314 151.02C164.116 149.549 163.774 147.975 163.671 147.223C164.663 148.249 166.1 149.549 167.024 149.139C167.914 148.728 168.461 147.496 168.153 146.265C168.461 147.838 168.94 149.994 169.83 152.492C170.993 155.81 172.156 159.026 174.859 162.072C176.091 163.474 178.52 165.767 182.626 167.409C183.31 168.264 184.576 170.112 184.987 172.815C185.055 173.225 185.295 175.107 184.679 177.468C184.542 178.015 183.721 180.992 181.018 183.558C177.87 186.569 174.107 187.116 172.875 187.287C163.603 188.519 156.418 180.41 155.152 179.007C153.886 177.57 151.799 175.175 150.601 171.48C148.686 165.596 150.157 160.292 151.217 156.426C152.21 152.8 153.544 150.062 154.502 148.283Z" fill="#3F3F3F"/>
<defs>
<linearGradient id="paint0_linear" x1="285" y1="23.9995" x2="186.149" y2="498.013" gradientUnits="userSpaceOnUse">
<stop stop-color="#1C56B2"/>
<stop offset="1" stop-color="#1C56B2" stop-opacity="0"/>
</linearGradient>
</defs>
</svg>
