<svg width="463" height="317" viewBox="0 0 463 317" fill="none" xmlns="http://www.w3.org/2000/svg">
<path opacity="0.1" d="M424.439 155.834C424.439 239.311 340.134 316.834 216.439 316.834C92.7444 316.834 -19.0609 241.834 15.9391 145.334C50.9392 48.8339 68.3317 83.2903 202.135 21.0621C335.939 -41.1662 424.439 72.3562 424.439 155.834Z" fill="url(#paint0_linear)"/>
<path d="M35.3073 273.527C31.0342 270.021 26.5741 266.672 22.6129 262.823C20.7727 261.039 19.0573 259.098 17.7473 256.876C17.0611 255.749 16.4997 254.529 16.0942 253.277C15.7511 252.244 15.408 250.647 16.9051 250.491C17.4666 250.428 18.0592 250.554 18.5894 250.71C19.182 250.867 19.4315 249.959 18.8389 249.802C17.0611 249.364 14.5035 249.489 14.7842 251.993C15.1273 254.81 16.9675 257.69 18.6518 259.849C23.0184 265.483 29.194 269.708 34.6523 274.184C35.1201 274.56 35.7751 273.903 35.3073 273.527Z" fill="#E8E8E8"/>
<path d="M18.9949 249.959C17.1859 247.799 15.7824 245.295 14.9714 242.572C14.5971 241.352 14.4412 240.1 14.0669 238.91C13.8174 238.159 13.3495 237.471 14.0357 236.813C14.3476 236.532 14.8155 236.344 15.1586 236.094C16.219 235.374 16.8116 234.529 15.5017 233.621C14.7531 233.12 13.8174 233.026 13.0065 232.619C11.9148 232.025 11.0727 231.054 10.4489 230.022C9.13889 227.893 8.42152 225.389 7.64177 223.042C6.70607 220.256 5.80156 217.408 4.99061 214.591C3.36873 208.895 2.02756 203.136 0.935908 197.346C0.842338 197.533 0.717577 197.721 0.624007 197.909C6.48774 195.968 12.3203 200.945 16.4997 204.482C20.804 208.112 24.6715 212.275 28.0712 216.782C35.089 226.172 39.9859 237.001 43.0425 248.3C44.9139 255.217 46.0991 262.322 46.7541 269.458C46.8165 270.053 47.7522 270.053 47.6898 269.458C45.4129 244.826 36.3678 219.881 16.9988 203.637C12.5698 199.943 6.58131 194.967 0.405678 197.001C0.156158 197.095 0.0313973 197.314 0.0937774 197.565C1.24781 203.762 2.71374 209.896 4.49157 215.968C5.3337 218.817 6.20703 221.633 7.17392 224.419C7.95367 226.673 8.67104 229.083 10.0434 231.054C10.5736 231.806 11.1662 232.494 11.9148 233.026C12.8193 233.684 13.8798 233.746 14.7843 234.31C15.9695 235.029 14.2541 235.593 13.6303 236.031C13.1624 236.375 12.7257 236.782 12.6322 237.408C12.5074 238.347 13.3184 239.443 13.5367 240.319C13.8486 241.665 14.1293 242.979 14.6283 244.294C15.5329 246.61 16.8116 248.738 18.4023 250.647C18.7142 251.086 19.3692 250.428 18.9949 249.959Z" fill="#E8E8E8"/>
<path d="M5.64556 202.385C18.683 217.158 28.8198 234.404 35.4321 252.995C37.2723 258.159 38.8006 263.418 40.0794 268.738C40.2353 269.333 41.1086 269.083 40.9839 268.488C36.3678 249.208 28.0712 230.835 16.5933 214.654C13.4119 210.147 9.98098 205.828 6.33174 201.696C5.89508 201.289 5.24009 201.947 5.64556 202.385Z" fill="#E8E8E8"/>
<path d="M7.76641 222.979C9.26353 223.355 10.7295 223.856 12.1642 224.45C12.7256 224.67 12.9752 223.762 12.4137 223.543C10.979 222.948 9.51306 222.447 8.01593 222.072C7.45451 221.915 7.20499 222.823 7.76641 222.979Z" fill="#E8E8E8"/>
<path d="M18.7453 243.762C20.7727 243.699 22.4569 244.763 24.11 245.765C25.6071 246.673 27.0731 247.58 28.5078 248.582C31.4708 250.648 34.1532 253.089 35.931 256.281C36.2117 256.813 37.0227 256.344 36.742 255.812C34.8706 252.494 32.0635 249.928 28.9756 247.799C27.3538 246.673 25.6383 245.608 23.9229 244.607C22.301 243.637 20.6479 242.823 18.7141 242.854C18.1527 242.823 18.1527 243.762 18.7453 243.762Z" fill="#E8E8E8"/>
<path d="M31.159 238.128C30.3169 233.058 30.348 227.925 31.2526 222.886C31.3461 222.291 30.4416 222.041 30.348 222.635C29.4123 227.862 29.3812 233.152 30.2545 238.379C30.348 238.973 31.2526 238.723 31.159 238.128Z" fill="#E8E8E8"/>
<path d="M29.5684 216.688C30.2234 210.491 31.5334 204.294 33.7167 198.472C35.5569 193.559 38.3016 188.739 43.0113 186.109C42.7618 185.984 42.5434 185.828 42.2939 185.703C42.793 194.404 47.8769 202.134 48.0953 210.867C48.22 210.71 48.3136 210.554 48.4384 210.429C47.2531 210.742 46.0679 211.055 44.8827 211.368C44.5396 211.461 44.4148 211.9 44.6644 212.15C46.0991 213.527 46.3798 215.468 46.4422 217.377C46.4734 218.378 47.0036 223.23 45.8496 223.543C45.5689 223.637 45.4129 223.981 45.5689 224.231C49.031 229.803 47.4403 236.407 46.4734 242.416C45.4753 248.613 45.3505 254.873 46.0679 261.07C46.1303 261.665 47.066 261.665 47.0036 261.07C46.1927 254.09 46.5981 247.236 47.7834 240.35C48.7503 234.779 49.53 228.801 46.411 223.731C46.3174 223.95 46.2239 224.2 46.1303 224.419C46.9724 224.2 47.2531 223.543 47.3779 222.729C47.5962 221.227 47.4403 219.568 47.4091 218.066C47.3779 215.687 47.1284 213.214 45.3194 211.493C45.257 211.743 45.1946 212.025 45.101 212.275C46.2862 211.962 47.4715 211.649 48.6567 211.336C48.8438 211.274 48.9998 211.086 48.9998 210.898C48.7814 202.134 43.7287 194.435 43.1984 185.734C43.1672 185.39 42.8242 185.139 42.4811 185.327C37.8338 187.925 35.0266 192.526 33.0929 197.377C30.6289 203.543 29.2565 210.147 28.5703 216.751C28.5703 217.283 29.506 217.283 29.5684 216.688Z" fill="#E8E8E8"/>
<path d="M40.8904 190.397C37.553 203.073 35.8376 216.156 35.8064 229.271C35.8064 229.865 36.7421 229.865 36.7421 229.271C36.7733 216.219 38.4576 203.261 41.7637 190.648C41.9508 190.053 41.0463 189.803 40.8904 190.397Z" fill="#E8E8E8"/>
<path d="M407.093 171.649C409.089 178.097 410.586 184.67 411.522 191.368C411.99 194.748 412.333 198.191 412.489 201.602C412.551 202.479 412.582 203.386 412.613 204.263C412.645 204.795 412.489 205.671 412.676 206.172C412.863 206.641 413.518 206.954 413.892 207.267C414.547 207.8 415.202 208.332 415.826 208.864C415.857 208.613 415.888 208.363 415.919 208.112C415.046 208.645 414.204 208.895 413.175 208.926C412.956 208.926 412.8 209.083 412.738 209.271C411.834 212.087 412.489 215.061 414.516 217.252C414.641 216.97 414.734 216.72 414.859 216.438C411.615 216.313 411.553 220.069 411.865 222.385C412.301 225.609 412.925 228.832 413.83 231.962C415.639 238.097 418.664 243.918 423.623 248.112C424.091 248.488 424.746 247.831 424.278 247.455C420.099 243.918 417.292 239.161 415.483 233.997C414.641 231.555 413.986 229.051 413.487 226.547C413.081 224.45 411.054 217.252 414.859 217.377C415.296 217.408 415.452 216.876 415.202 216.563C413.424 214.623 412.863 211.994 413.674 209.521C413.518 209.646 413.362 209.74 413.237 209.865C414.422 209.865 415.42 209.584 416.45 208.926C416.668 208.77 416.793 208.394 416.543 208.175C415.389 207.236 413.799 206.422 413.611 204.857C413.424 203.199 413.487 201.477 413.362 199.818C413.144 196.72 412.832 193.621 412.364 190.523C411.428 184.044 409.962 177.659 408.028 171.399C407.81 170.804 406.906 171.055 407.093 171.649Z" fill="#E8E8E8"/>
<path d="M408.621 173.058C407.342 171.368 409.744 170.116 411.147 170.46C412.551 170.836 413.705 171.962 414.672 172.964C416.45 174.779 417.853 176.908 419.07 179.13C421.596 183.7 423.717 188.582 425.588 193.433C429.425 203.418 432.076 213.872 433.48 224.451C434.259 230.46 434.665 236.501 434.665 242.541C434.665 243.136 435.6 243.136 435.6 242.541C435.6 229.959 433.885 217.408 430.516 205.327C428.863 199.443 426.836 193.684 424.434 188.05C422.22 182.854 419.849 177.283 416.044 173.027C414.516 171.305 411.927 168.645 409.37 169.552C407.81 170.085 406.781 172.088 407.841 173.527C408.184 173.997 408.995 173.559 408.621 173.058Z" fill="#E8E8E8"/>
<path d="M431.078 207.455C432.669 202.103 434.509 196.876 436.599 191.712C437.69 189.052 438.844 186.391 440.092 183.793C440.684 182.573 441.277 181.321 441.901 180.1C442.306 179.318 443.523 175.875 444.802 176.188C445.176 176.282 445.425 175.969 445.363 175.624C445.051 173.684 447.234 172.025 448.388 170.742C449.418 169.615 450.416 168.488 451.445 167.361C453.566 165.045 455.656 162.729 457.777 160.382C457.527 160.319 457.246 160.257 456.997 160.163C460.209 168.144 459.367 176.876 457.496 185.077C456.529 189.271 455.313 193.433 454.283 197.627C453.566 200.538 452.786 204.951 449.231 205.577C448.981 205.609 448.856 205.922 448.919 206.141C449.823 209.865 447.328 213.308 445.675 216.438C444.115 219.38 442.681 222.416 441.371 225.515C438.813 231.555 436.786 237.784 435.257 244.137C435.101 244.732 436.006 244.983 436.162 244.388C437.846 237.346 440.154 230.491 443.117 223.887C444.521 220.757 446.08 217.69 447.733 214.685C449.231 211.962 450.603 209.083 449.854 205.922C449.761 206.109 449.636 206.297 449.542 206.485C452.568 205.953 453.878 202.886 454.658 200.194C455.936 195.687 457.09 191.055 458.182 186.485C460.272 177.784 461.395 168.426 457.964 159.912C457.839 159.599 457.433 159.412 457.184 159.693C454.533 162.604 451.882 165.546 449.231 168.457C447.983 169.834 446.642 171.149 445.488 172.62C444.739 173.621 444.334 174.56 444.521 175.812C444.708 175.624 444.895 175.437 445.082 175.249C442.837 174.685 441.745 178.379 440.996 179.85C439.499 182.823 438.096 185.828 436.817 188.864C434.259 194.811 432.076 200.945 430.236 207.142C429.986 207.768 430.891 208.019 431.078 207.455Z" fill="#E8E8E8"/>
<path d="M455.469 168.488C445.737 186.704 435.819 205.483 433.48 226.297C433.417 226.892 434.353 226.892 434.415 226.297C436.754 205.64 446.642 186.986 456.279 168.958C456.591 168.426 455.78 167.956 455.469 168.488Z" fill="#E8E8E8"/>
<path d="M414.89 181.008C422.469 201.133 426.992 222.354 428.333 243.824C428.364 244.419 429.3 244.419 429.269 243.824C427.928 222.26 423.405 200.976 415.795 180.757C415.576 180.225 414.672 180.444 414.89 181.008Z" fill="#E8E8E8"/>
<path d="M20.7727 170.929C39.7986 167.518 59.4484 167.706 78.4119 171.493C87.8001 173.371 97.0012 176.094 105.859 179.662C115.123 183.386 124.012 187.862 133.088 191.993C167.335 207.58 203.983 217.784 241.318 222.228C262.496 224.763 283.892 225.421 305.164 224.231C305.756 224.2 305.756 223.261 305.164 223.292C266.987 225.452 228.53 221.54 191.538 211.806C172.98 206.923 154.796 200.569 137.236 192.839C128.129 188.832 119.24 184.325 110.101 180.413C101.368 176.688 92.3539 173.684 83.1216 171.555C62.6297 166.861 41.2334 166.328 20.5232 170.053C19.9306 170.116 20.1801 171.023 20.7727 170.929Z" fill="#E8E8E8"/>
<path d="M190.447 211.117C208.194 212.025 225.317 205.609 242.004 200.476C259.47 195.124 276.999 189.928 294.559 184.858C312.026 179.818 329.492 174.529 347.239 170.491C364.924 166.485 382.952 164.576 401.073 164.044C421.253 163.418 441.433 164.326 461.582 165.264C462.174 165.296 462.174 164.357 461.582 164.326C425.994 162.698 389.938 161.102 354.756 167.956C336.915 171.43 319.449 176.751 301.982 181.728C284.422 186.767 266.894 191.931 249.396 197.221C239.696 200.163 230.027 203.355 220.264 206.047C210.533 208.739 200.552 210.679 190.416 210.178C189.854 210.147 189.854 211.086 190.447 211.117Z" fill="#E8E8E8"/>
<path d="M114.717 179.005C127.037 182.573 139.825 180.1 152.114 177.721C165.276 175.186 178.563 173.465 191.975 172.933C218.549 171.931 244.967 175.75 271.447 176.814C286.107 177.408 300.828 177.064 315.3 174.654C315.893 174.56 315.644 173.653 315.051 173.746C289.007 178.097 262.558 175.499 236.421 173.527C223.352 172.526 210.252 171.681 197.121 171.9C184.115 172.119 171.109 173.371 158.259 175.656C144.036 178.16 129.252 182.291 114.936 178.128C114.374 177.94 114.125 178.848 114.717 179.005Z" fill="#E8E8E8"/>
<path d="M169.924 239.317C173.916 237.659 178.22 236.813 182.556 236.939C186.579 237.064 190.197 238.378 194.096 239.192C196.997 239.818 199.897 239.818 202.237 237.752C203.141 236.97 203.921 236.156 205.231 236.563C206.198 236.845 207.009 237.502 207.913 237.909C208.974 238.41 210.065 238.598 211.188 238.378C213.87 237.846 215.898 235.624 218.237 234.341C222.198 232.213 226.003 235.061 229.871 236.094C237.918 238.253 246.526 237.596 254.761 237.502C264.897 237.408 275.065 237.471 285.14 236.219C285.732 236.156 285.732 235.217 285.14 235.28C276.095 236.375 266.956 236.438 257.848 236.532C249.178 236.626 240.008 237.439 231.462 235.499C229.465 235.061 227.594 234.403 225.691 233.621C224.038 232.932 222.323 232.275 220.514 232.526C217.676 232.901 215.555 235.155 213.153 236.532C211.905 237.252 210.533 237.752 209.098 237.346C207.539 236.876 206.26 235.499 204.545 235.436C202.923 235.405 202.143 236.72 200.958 237.565C199.305 238.723 197.215 238.754 195.281 238.441C191.164 237.784 187.328 236.188 183.117 236C178.532 235.781 173.947 236.626 169.674 238.41C169.113 238.629 169.362 239.536 169.924 239.317Z" fill="#E8E8E8"/>
<path d="M189.823 211.399C190.384 211.493 190.914 211.618 191.476 211.712C192.068 211.837 192.287 211.023 191.725 210.804C191.382 210.679 191.039 210.554 190.665 210.429C190.166 210.241 189.823 211.055 190.291 211.274C193.16 212.776 196.154 213.965 199.273 214.81C199.866 214.967 200.116 214.059 199.523 213.903C196.466 213.089 193.566 211.931 190.758 210.46C190.634 210.742 190.509 211.023 190.384 211.305C190.727 211.43 191.07 211.555 191.445 211.68C191.538 211.368 191.601 211.086 191.694 210.773C191.133 210.679 190.603 210.554 190.041 210.46C189.48 210.366 189.23 211.274 189.823 211.399Z" fill="#E8E8E8"/>
<path d="M147.903 254.779C147.217 253.965 146.593 253.12 146.063 252.181C145.814 251.712 145.502 251.211 145.346 250.679C145.128 250.334 145.096 249.928 145.221 249.521C145.128 249.083 145.252 248.738 145.564 248.488C146.032 247.205 145.471 245.859 145.159 244.544C144.691 242.478 144.223 240.413 143.755 238.347C143.506 237.252 143.256 236.187 143.038 235.092C142.913 234.591 142.819 234.122 142.695 233.621C142.508 232.745 142.32 232.338 142.975 231.618C143.287 230.961 143.755 230.835 144.379 231.336C144.66 231.618 144.94 231.9 145.221 232.181C145.533 232.588 145.751 233.058 146.001 233.496C146.438 234.31 146.874 235.123 147.28 235.937C148.247 237.878 149.089 239.881 149.806 241.915C151.178 245.734 152.114 249.677 152.676 253.715C152.831 253.527 152.987 253.308 153.112 253.12C153.175 253.183 153.206 253.277 153.268 253.339C153.424 252.745 152.52 252.494 152.364 253.089C152.239 253.652 152.52 254.059 153.112 254.059C153.455 254.059 153.611 253.777 153.549 253.464C152.831 248.3 151.49 243.261 149.432 238.472C148.465 236.219 147.436 233.715 146.001 231.712C145.221 230.616 143.818 229.615 142.476 230.397C140.948 231.274 141.665 233.433 141.977 234.779C142.601 237.533 143.225 240.288 143.818 243.042C144.098 244.356 144.691 245.827 144.753 247.173C144.784 248.269 143.88 248.77 144.036 249.865C144.348 251.899 145.876 253.965 147.155 255.467C147.623 255.874 148.278 255.217 147.903 254.779Z" fill="#E8E8E8"/>
<path d="M150.773 241.321C150.305 238.504 150.367 235.624 151.022 232.839C151.178 232.119 151.397 231.43 151.646 230.742C152.083 229.552 152.707 229.677 153.331 230.554C154.141 231.712 154.765 232.995 155.233 234.31C157.136 239.756 156.294 245.608 155.483 251.148C155.389 251.743 156.294 251.993 156.387 251.399C157.416 244.419 158.477 236.5 154.266 230.272C153.798 229.583 153.175 228.425 152.208 228.582C151.178 228.77 150.835 230.178 150.555 230.992C149.432 234.403 149.245 238.034 149.837 241.54C149.993 242.166 150.898 241.915 150.773 241.321Z" fill="#E8E8E8"/>
<path d="M152.457 234.122C153.393 239.004 153.736 243.918 153.58 248.864C153.549 249.458 154.485 249.458 154.516 248.864C154.703 243.824 154.297 238.817 153.362 233.871C153.237 233.277 152.364 233.527 152.457 234.122Z" fill="#E8E8E8"/>
<path d="M37.7402 167.393C36.8357 165.39 34.8084 163.981 33.5296 162.228C32.126 160.288 30.9408 158.191 29.7868 156.125C29.6932 156.344 29.5996 156.595 29.5061 156.814C35.7753 155.687 39.3933 161.884 40.6097 167.111C40.7345 167.706 41.639 167.455 41.5142 166.861C40.1731 161.07 36.056 154.717 29.2565 155.906C28.9446 155.969 28.8511 156.344 28.9758 156.595C30.1299 158.692 31.2839 160.789 32.7186 162.698C33.9974 164.451 36.056 165.922 36.9293 167.862C37.1788 168.426 37.9898 167.956 37.7402 167.393Z" fill="#E8E8E8"/>
<path d="M40.4536 162.354C40.9214 157.44 45.5999 154.372 47.409 150.022C47.1906 150.116 46.9411 150.21 46.7228 150.304C48.8125 151.649 47.253 156.532 46.6604 158.41C45.7871 161.164 44.3523 163.668 42.5121 165.859C42.1378 166.329 42.7928 166.986 43.1671 166.516C45.4752 163.793 47.1283 160.632 47.9704 157.158C48.5006 154.967 49.4987 150.992 47.1906 149.49C46.9099 149.302 46.598 149.521 46.5045 149.771C44.633 154.278 40.0169 157.221 39.5179 162.354C39.4555 162.948 40.3912 162.948 40.4536 162.354Z" fill="#E8E8E8"/>
<path d="M317.421 176.563C317.141 175.843 316.86 175.124 316.579 174.404C316.423 174.059 316.298 173.684 316.143 173.34C315.955 173.089 315.955 172.807 316.111 172.526C316.392 172.776 316.953 172.62 316.922 172.181C316.766 170.617 316.61 169.02 316.454 167.455C316.423 167.08 316.049 165.609 316.267 165.327C317.234 163.981 317.889 166.203 317.983 166.548C318.825 169.427 318.794 172.745 318.762 175.718C318.762 176.313 319.698 176.313 319.698 175.718C319.729 173.277 319.605 170.867 319.262 168.457C319.043 166.923 318.794 164.701 317.297 163.793C316.33 163.199 315.519 163.825 315.332 164.858C315.144 165.859 315.456 167.048 315.55 168.019C315.675 169.396 315.831 170.773 315.955 172.15C316.236 172.025 316.486 171.931 316.766 171.806C316.236 171.305 315.425 171.399 315.113 172.088C314.895 172.557 315.082 173.058 315.238 173.527C315.612 174.623 316.111 175.687 316.517 176.782C316.735 177.377 317.64 177.127 317.421 176.563Z" fill="#E8E8E8"/>
<path d="M319.511 171.462C319.386 167.08 320.291 162.792 322.193 158.817C321.944 158.848 321.694 158.879 321.445 158.911C323.472 160.601 322.131 165.171 321.788 167.361C321.32 170.304 320.727 173.246 319.979 176.125C319.823 176.72 320.727 176.97 320.883 176.375C321.788 172.87 322.474 169.302 322.973 165.703C323.285 163.386 324.19 159.975 322.1 158.222C321.882 158.034 321.507 158.034 321.351 158.316C319.386 162.416 318.419 166.861 318.544 171.43C318.607 172.056 319.542 172.056 319.511 171.462Z" fill="#E8E8E8"/>
<path d="M155.826 267.267C157.791 265.264 160.847 267.956 163.124 267.831C164.216 267.768 165.214 267.361 166.212 267.017C167.553 266.579 168.832 266.422 170.235 266.547C175.787 267.017 181.183 267.424 186.766 267.048C187.359 267.017 187.359 266.078 186.766 266.109C183.741 266.297 180.747 266.36 177.721 266.234C174.664 266.109 171.483 265.358 168.458 265.577C167.241 265.671 166.118 266.078 164.964 266.454C163.28 266.986 162.001 266.892 160.379 266.297C158.602 265.64 156.605 265.108 155.139 266.61C154.734 267.048 155.389 267.706 155.826 267.267Z" fill="#E8E8E8"/>
<path d="M96.9076 274.873C99.0909 272.494 102.927 272.338 105.235 274.591C105.267 274.341 105.298 274.09 105.329 273.84C103.707 274.623 102.054 274.967 100.276 274.873C99.6835 274.842 99.6835 275.781 100.276 275.812C102.241 275.906 104.05 275.53 105.828 274.654C106.109 274.529 106.14 274.122 105.922 273.903C103.239 271.305 98.779 271.43 96.2526 274.184C95.8471 274.654 96.5021 275.311 96.9076 274.873Z" fill="#E8E8E8"/>
<path d="M9.981 283.324C8.39031 283.198 6.79962 283.668 5.58321 284.763C4.83465 285.452 3.77419 286.735 4.74108 287.643C5.83273 288.644 8.45269 287.987 9.73149 287.862C12.0707 287.612 14.3476 287.173 16.6245 286.579C17.2171 286.422 16.9676 285.514 16.375 285.671C13.6302 286.391 10.8543 286.86 8.01603 287.048C7.45461 287.079 6.862 287.142 6.30058 287.142C4.89703 287.079 5.55202 286.015 6.2382 285.421C7.26747 284.482 8.60864 284.137 9.981 284.263C10.6048 284.294 10.5736 283.355 9.981 283.324Z" fill="#E8E8E8"/>
<path d="M54.5515 257.502C54.6139 257.252 54.801 257.095 55.0505 257.095C55.2689 257.064 55.4872 257.032 55.6743 257.001C56.1734 256.939 56.6412 256.97 57.1403 257.032C58.1072 257.158 58.9805 257.502 59.8226 258.034C59.8538 257.752 59.885 257.471 59.9474 257.189C58.7933 257.596 57.6393 257.69 56.4229 257.502C55.8303 257.408 55.5808 258.316 56.1734 258.41C57.5457 258.629 58.8557 258.535 60.1969 258.097C60.5712 257.971 60.6647 257.471 60.3217 257.252C58.6998 256.219 56.5789 255.718 54.6763 256.25C53.647 256.532 52.836 258.128 54.302 258.441C54.8946 258.535 55.1441 257.627 54.5515 257.502Z" fill="#E8E8E8"/>
<path d="M80.3769 42.26C72.9537 39.6309 67.6514 32.4009 66.8404 24.5762C65.9983 16.5011 70.5209 8.8016 77.3203 4.67016C84.65 0.225725 95.0675 0.194425 101.087 6.92367C104.175 10.3352 106.078 14.9988 107.2 19.4119C108.354 23.9502 108.542 28.9893 105.953 33.0895C103.333 37.1896 98.6543 39.4744 94.2565 41.1959C89.6092 43.0425 84.0262 44.4823 79.4724 41.6028C78.9734 41.2898 78.5055 42.1035 79.0046 42.4165C83.0905 44.983 88.0185 44.3258 92.3851 42.886C96.6581 41.4776 101.181 39.5057 104.487 36.3133C111.879 29.2084 108.853 17.4714 104.237 9.67797C101.805 5.54652 98.1553 2.51054 93.5079 1.25859C89.079 0.0692326 84.3381 0.476117 80.1274 2.19755C72.3923 5.39003 66.3414 12.8391 65.8424 21.3524C65.281 30.7421 71.3006 40.0378 80.1274 43.1677C80.6888 43.3868 80.9384 42.4791 80.3769 42.26Z" fill="#E8E8E8"/>
<path d="M314.895 223.95C336.167 222.604 357.313 219.724 378.148 215.311C384.168 214.028 390.157 212.62 396.114 211.086C396.706 210.929 396.457 210.022 395.864 210.178C375.217 215.468 354.194 219.286 332.985 221.508C326.966 222.134 320.946 222.635 314.926 223.011C314.302 223.042 314.302 223.981 314.895 223.95Z" fill="#E8E8E8"/>
<path d="M266.145 246.547C268.889 247.017 271.697 246.986 274.41 246.328C276.094 245.921 277.311 245.264 279.057 245.827C280.149 246.172 281.178 246.297 282.301 246.078C283.549 245.827 284.703 245.201 285.763 244.513C286.917 243.73 288.071 242.635 289.475 242.353C291.097 242.04 292.563 243.324 294.122 243.668C295.245 243.918 296.399 243.887 297.522 243.699C298.115 243.605 297.865 242.698 297.272 242.791C295.307 243.136 293.779 242.635 292.001 241.853C291.253 241.508 290.535 241.32 289.693 241.383C287.167 241.665 285.42 244.043 283.081 244.889C281.584 245.421 280.367 245.233 278.901 244.763C277.779 244.419 276.968 244.607 275.876 244.951C272.788 245.921 269.638 246.203 266.457 245.671C265.833 245.546 265.552 246.453 266.145 246.547Z" fill="#E8E8E8"/>
<path d="M111.598 287.267C135.833 287.267 160.067 287.267 184.302 287.267C185.519 287.267 185.519 285.389 184.302 285.389C160.067 285.389 135.833 285.389 111.598 285.389C110.382 285.389 110.382 287.267 111.598 287.267Z" fill="#161616"/>
<path d="M189.511 286.704C192.349 286.704 195.188 286.704 198.026 286.704C199.242 286.704 199.242 284.826 198.026 284.826C195.188 284.826 192.349 284.826 189.511 284.826C188.295 284.826 188.295 286.704 189.511 286.704Z" fill="#161616"/>
<path d="M204.326 286.422C205.231 286.422 206.166 286.422 207.071 286.422C208.287 286.422 208.287 284.544 207.071 284.544C206.166 284.544 205.231 284.544 204.326 284.544C203.11 284.544 203.11 286.422 204.326 286.422Z" fill="#161616"/>
<path d="M33.4048 294.153C51.3391 294.153 69.2422 294.153 87.1764 294.153C88.3928 294.153 88.3928 292.275 87.1764 292.275C69.2422 292.275 51.3391 292.275 33.4048 292.275C32.2196 292.275 32.2196 294.153 33.4048 294.153Z" fill="#161616"/>
<path d="M92.385 294.153C97.0635 294.153 101.711 294.153 106.389 294.153C107.606 294.153 107.606 292.275 106.389 292.275C101.711 292.275 97.0635 292.275 92.385 292.275C91.1998 292.275 91.1998 294.153 92.385 294.153Z" fill="#161616"/>
<path d="M114.343 293.59C114.624 293.59 114.904 293.59 115.154 293.59C115.653 293.59 116.121 293.151 116.09 292.651C116.058 292.15 115.684 291.712 115.154 291.712C114.873 291.712 114.592 291.712 114.343 291.712C113.844 291.712 113.376 292.15 113.407 292.651C113.438 293.151 113.813 293.59 114.343 293.59Z" fill="#161616"/>
<path d="M23.5488 294.403C24.2038 294.403 24.8276 294.403 25.4826 294.403C26.699 294.403 26.699 292.525 25.4826 292.525C24.8276 292.525 24.2038 292.525 23.5488 292.525C22.3324 292.525 22.3324 294.403 23.5488 294.403Z" fill="#161616"/>
<path d="M270.698 260.006C295.838 260.006 320.977 260.006 346.147 260.006C347.364 260.006 347.364 258.128 346.147 258.128C321.008 258.128 295.869 258.128 270.698 258.128C269.482 258.128 269.482 260.006 270.698 260.006Z" fill="#161616"/>
<path d="M356.003 258.91C378.772 258.91 401.541 258.91 424.31 258.91C425.526 258.91 425.526 257.032 424.31 257.032C401.541 257.032 378.772 257.032 356.003 257.032C354.818 257.032 354.818 258.91 356.003 258.91Z" fill="#161616"/>
<path d="M430.361 258.347C432.201 258.347 434.01 258.347 435.85 258.347C437.066 258.347 437.066 256.469 435.85 256.469C434.01 256.469 432.201 256.469 430.361 256.469C429.144 256.469 429.144 258.347 430.361 258.347Z" fill="#161616"/>
<path d="M406.219 247.893C411.428 247.893 416.637 247.893 421.846 247.893C423.062 247.893 423.062 246.015 421.846 246.015C416.637 246.015 411.428 246.015 406.219 246.015C405.003 246.015 405.003 247.893 406.219 247.893Z" fill="#161616"/>
<path d="M427.054 247.612C428.333 247.612 429.612 247.612 430.891 247.612C432.107 247.612 432.107 245.734 430.891 245.734C429.612 245.734 428.333 245.734 427.054 245.734C425.869 245.734 425.869 247.612 427.054 247.612Z" fill="#161616"/>
<path d="M255.603 265.514C262.277 265.514 268.952 265.514 275.627 265.514C276.843 265.514 276.843 263.636 275.627 263.636C268.952 263.636 262.277 263.636 255.603 263.636C254.417 263.636 254.417 265.514 255.603 265.514Z" fill="#161616"/>
<path d="M282.769 265.233C285.608 265.233 288.446 265.233 291.284 265.233C292.501 265.233 292.501 263.355 291.284 263.355C288.446 263.355 285.608 263.355 282.769 263.355C281.553 263.355 281.553 265.233 282.769 265.233Z" fill="#161616"/>
<path d="M295.12 269.928C297.054 269.928 298.957 269.928 300.891 269.928C302.107 269.928 302.107 268.05 300.891 268.05C298.957 268.05 297.054 268.05 295.12 268.05C293.904 268.05 293.904 269.928 295.12 269.928Z" fill="#161616"/>
<path d="M162.282 112.995C161.159 111.587 165.401 110.71 166.087 110.429C167.428 109.834 168.271 108.739 168.582 107.299C168.894 105.828 168.582 104.263 169.019 102.823C169.674 100.695 172.107 100.82 173.916 100.914C175.132 100.977 175.101 99.0986 173.916 99.036C171.857 98.9108 169.487 98.9734 168.052 100.664C166.773 102.166 167.023 104.2 166.867 106.047C166.742 107.706 166.118 108.52 164.497 108.989C163.561 109.271 162.625 109.427 161.845 110.022C160.411 111.055 159.818 112.87 160.972 114.31C161.689 115.28 163.031 113.934 162.282 112.995Z" fill="#161616"/>
<path d="M168.926 114.56C168.083 113.559 170.017 112.557 170.641 112.182C171.483 111.681 172.2 111.211 172.824 110.46C174.103 108.926 174.945 106.016 177.253 105.89C178.439 105.828 178.47 103.95 177.253 104.013C173.417 104.2 173.105 108.207 170.485 110.084C169.362 110.867 168.021 111.305 167.304 112.557C166.649 113.684 166.773 114.905 167.584 115.875C168.364 116.814 169.705 115.468 168.926 114.56Z" fill="#161616"/>
<path d="M315.082 13.2461C314.957 15.2492 313.398 17.6592 315.269 19.3493C316.891 20.7891 318.919 19.7249 320.759 19.8501C322.786 20.0066 321.913 21.8845 321.663 23.2617C321.476 24.2945 321.383 25.4213 321.85 26.4229C322.599 27.9878 324.626 28.9894 326.123 27.8626C327.059 27.1427 326.123 25.5152 325.188 26.2351C323.659 27.3931 323.348 24.6075 323.504 23.7625C323.659 22.8548 323.971 21.9471 324.003 21.0082C324.034 19.6936 323.348 18.6608 322.131 18.2226C320.634 17.6905 319.293 18.2852 317.796 18.2539C315.082 18.1913 316.891 14.8736 316.985 13.2461C317.047 12.0254 315.176 12.0254 315.082 13.2461Z" fill="#161616"/>
<path d="M325.811 15.4056C325.032 17.0957 324.283 19.0989 325.531 20.789C325.999 21.415 326.622 21.7906 327.371 21.9158C327.87 21.9784 328.525 21.7593 328.962 21.947C329.679 22.2287 330.084 23.0738 329.741 23.825C329.211 24.9204 330.833 25.8594 331.363 24.7639C332.018 23.3555 331.769 21.728 330.521 20.6951C329.835 20.1317 329.211 20.1317 328.369 20.0378C326.092 19.8187 326.716 17.9095 327.433 16.3759C327.932 15.2804 326.31 14.3101 325.811 15.4056Z" fill="#161616"/>
<path d="M425.214 80.3194C424.528 78.5354 426.181 75.9689 428.271 76.6261C429.861 77.1582 430.579 79.5369 429.518 80.8515C428.77 81.7904 430.08 83.105 430.828 82.166C432.762 79.8186 431.795 75.7185 428.77 74.8108C425.433 73.8092 422.22 77.6277 423.436 80.7889C423.842 81.9469 425.651 81.4462 425.214 80.3194Z" fill="#161616"/>
<path d="M61.1015 154.623C60.9144 152.401 63.7215 151.149 64.9067 153.246C65.9048 155.061 63.9398 156.657 62.2243 156.063C61.1015 155.656 60.6025 157.471 61.7253 157.878C65.1874 159.13 68.4623 155.186 66.3726 152.056C64.1269 148.707 58.9182 150.679 59.2613 154.623C59.3237 155.812 61.1951 155.844 61.1015 154.623Z" fill="#161616"/>
<path d="M71.9555 66.8921C71.2381 68.0815 71.1758 69.6151 72.1115 70.7106C72.5793 71.2427 73.2343 71.587 73.9205 71.7122C74.8874 71.8686 75.6048 71.3366 76.4469 71.7435C77.289 72.1816 77.1019 72.7137 77.1954 73.5901C77.2266 74.1222 77.2578 74.6229 77.3202 75.155C77.3826 75.7184 77.445 76.2818 77.8504 76.72C78.2247 77.1269 78.6926 77.2833 79.2228 77.3772C79.5971 77.4398 79.9714 77.4085 80.3768 77.4085C80.6887 77.4085 81.0318 77.4085 81.3437 77.4711C81.9363 77.6276 82.1859 78.0345 82.1235 78.6292C81.6556 78.9735 82.0923 79.7873 82.5913 79.443C83.527 78.7544 83.2151 77.6902 82.4042 77.0017C82.0299 76.6887 81.6244 76.5322 81.1254 76.4696C79.5035 76.2505 78.5678 76.8765 78.1935 74.5916C78.0064 73.4649 78.4119 71.1175 77.2578 70.3663C76.7276 70.022 76.2597 70.1785 75.7295 70.3976C74.8874 70.7419 74.2012 71.0236 73.3279 70.4915C72.1427 69.7716 72.1115 68.3632 72.7665 67.299C73.0784 66.8608 72.2674 66.3913 71.9555 66.8921Z" fill="#EF722E"/>
<path d="M84.5565 70.6169C83.9327 71.7123 83.1841 73.3712 84.151 74.4979C84.7748 75.2491 85.8353 75.1552 86.6462 75.6247C87.925 76.3445 88.5176 77.8469 88.2681 79.2553C88.1745 79.85 89.079 80.1004 89.1726 79.5057C89.4221 78.0973 89.1102 76.7201 88.1433 75.656C87.7379 75.1865 87.2076 74.8422 86.6462 74.5918C85.9912 74.3101 84.8684 73.9658 84.6501 73.1521C84.4941 72.5574 85.1179 71.5558 85.3674 71.0864C85.6481 70.5543 84.8372 70.0848 84.5565 70.6169Z" fill="#EF722E"/>
<path d="M260.125 169.459C259.065 167.268 261.061 164.701 263.431 165.546C265.895 166.423 265.802 169.803 263.463 170.742C262.901 170.961 263.151 171.869 263.712 171.649C266.738 170.429 267.143 166.078 263.993 164.764C260.749 163.387 257.88 166.923 259.345 169.959C259.595 170.491 260.406 169.991 260.125 169.459Z" fill="#EC615B"/>
<path d="M145.252 162.041C143.256 161.634 146.469 159.474 146.812 159.255C147.311 158.911 147.779 158.535 148.028 157.94C148.87 156.031 147.342 152.213 150.711 152.025C151.303 151.994 151.303 151.055 150.711 151.086C149.401 151.149 148.434 151.868 147.841 152.995C146.874 154.811 148.028 157.283 146.157 158.535C145.096 159.255 143.973 159.724 143.849 161.133C143.786 161.978 144.129 162.729 145.003 162.917C145.595 163.073 145.845 162.166 145.252 162.041Z" fill="#EF722E"/>
<path d="M151.241 159.318C150.367 158.097 150.867 156.376 152.332 155.906C153.331 155.593 154.079 155.75 154.641 154.717C155.202 153.653 155.108 152.401 155.732 151.305C156.512 149.897 157.822 148.926 159.319 148.457C159.88 148.269 159.662 147.361 159.069 147.549C157.666 147.987 156.45 148.77 155.545 149.928C155.077 150.523 154.672 151.211 154.422 151.962C154.079 152.964 154.235 154.31 153.112 154.842C152.426 155.186 151.74 154.998 151.085 155.499C150.648 155.812 150.336 156.282 150.149 156.751C149.712 157.784 149.806 158.879 150.461 159.787C150.773 160.288 151.584 159.818 151.241 159.318Z" fill="#EF722E"/>
<path d="M119.521 15.3744C118.959 14.2476 121.361 14.6545 121.454 14.6858C121.797 14.811 122.14 15.0927 122.452 15.2805C122.951 15.5622 123.513 15.8439 124.105 15.8752C124.885 15.9065 125.54 15.5622 126.039 14.9988C127.474 13.2461 126.944 8.70773 130.312 10.0536C131.31 10.4605 132.433 11.0551 133.525 10.5544C134.398 10.1475 134.585 9.27112 134.461 8.39475C134.398 7.95656 133.899 7.0802 134.024 6.64201C134.273 5.79694 135.053 5.73435 135.646 6.01604C135.926 6.14123 136.176 6.32902 136.488 6.42292C137.424 6.76721 138.328 6.70461 138.89 5.82824C139.201 5.32746 138.391 4.85798 138.079 5.35876C137.455 6.36032 134.96 4.2946 133.837 4.92058C132.932 5.39006 132.963 6.32902 133.182 7.20539C133.431 8.23825 134.055 9.7406 132.152 9.7093C131.31 9.7093 130.531 8.98942 129.72 8.83293C128.753 8.64514 127.879 8.89553 127.256 9.6467C125.696 11.4933 126.289 16.3134 122.671 14.3415C121.61 13.7781 120.737 13.2148 119.552 13.7468C118.647 14.1537 118.211 14.9362 118.678 15.8439C118.99 16.3759 119.77 15.9065 119.521 15.3744Z" fill="#5222D0"/>
<path d="M156.668 40.9142C155.264 40.5699 155.077 38.7546 155.763 37.6904C156.73 36.1881 159.007 36.282 160.535 36.5636C163.093 37.0331 165.463 38.0347 168.052 37.0644C170.547 36.1255 172.419 34.091 175.226 34.0284C178.158 33.9658 180.934 35.2491 183.897 35.1552C189.074 34.9987 193.784 32.4322 198.743 31.2428C201.675 30.523 204.545 30.4604 207.476 31.2115C210.284 31.9314 212.904 33.0895 215.711 33.778C218.642 34.5292 221.543 34.404 224.506 34.1536C227.75 33.9032 231.087 33.6529 234.019 35.343C233.957 35.1552 233.863 34.9987 233.801 34.8109C232.241 39.4118 227.189 41.2898 222.728 41.5401C217.145 41.8531 211.718 39.8187 206.104 40.0378C200.427 40.2569 195.624 43.7311 190.041 44.2631C184.333 44.8265 178.938 42.1035 173.261 42.26C167.491 42.4165 159.974 45.5777 155.42 40.4134C155.015 39.9752 154.36 40.6325 154.765 41.0707C158.352 45.1082 164.029 44.3883 168.801 43.6685C172.325 43.1364 175.538 43.1051 179.062 43.7937C182.057 44.3883 185.051 45.2021 188.107 45.2647C194.283 45.4212 199.492 41.4149 205.574 41.0081C211.718 40.6012 217.676 43.0738 223.82 42.3852C228.405 41.8844 233.177 39.7248 234.737 35.03C234.799 34.8422 234.705 34.5918 234.518 34.4979C229.029 31.2741 222.416 34.3101 216.522 32.9643C213.278 32.2131 210.252 30.7734 206.977 30.0848C204.139 29.4588 201.332 29.6153 198.525 30.3039C195.531 31.0238 192.692 32.2131 189.76 33.1208C186.392 34.1536 183.179 34.4666 179.686 33.7467C176.91 33.1521 174.353 32.6826 171.733 33.9971C170.516 34.6231 169.393 35.4682 168.146 36.0316C166.025 36.9705 163.998 36.4071 161.845 35.8751C159.569 35.343 156.138 34.9674 154.859 37.5026C154.048 39.0988 154.609 41.3837 156.481 41.8218C157.011 41.947 157.26 41.0394 156.668 40.9142Z" fill="#E8E8E8"/>
<path d="M26.7925 89.1456C31.0343 88.5823 35.0578 90.7732 39.2685 90.2411C40.9839 90.022 42.5746 89.2708 44.1653 88.6136C44.9139 88.3006 45.6936 88.0189 46.5046 87.8311C48.0329 87.4868 49.4053 87.8937 50.9024 88.2067C55.0818 89.1143 59.7604 88.1128 63.9398 87.5181C65.9984 87.2364 68.0257 86.9234 70.0843 86.5791C72.4235 86.1723 74.7628 85.5463 77.102 85.2959C79.566 85.0455 82.4667 86.141 81.4686 89.1769C80.6265 91.7748 77.4763 92.5259 75.1059 92.7137C70.9888 93.0267 66.9029 91.8373 62.7858 92.6198C58.9494 93.3397 55.5185 95.3428 51.8069 96.4383C49.7483 97.0642 47.6898 97.3146 45.5689 97.0329C43.448 96.72 41.4518 96.1879 39.2685 96.3444C34.8395 96.6261 30.1298 99.2239 25.7008 98.191C22.9873 97.565 21.5837 95.0611 22.8937 92.4633C24.1725 89.9594 27.1044 89.3021 29.662 89.3021C30.2546 89.3021 30.2546 88.3632 29.662 88.3632C26.0751 88.3632 21.8333 89.9281 21.459 94.0596C21.1159 97.878 24.8587 99.443 28.0713 99.3178C30.4105 99.2239 32.7186 98.5353 34.9955 98.0032C37.9585 97.3146 40.672 97.0643 43.6663 97.6276C45.8808 98.0345 47.9393 98.2536 50.185 97.8154C52.4931 97.3772 54.6764 96.4383 56.8285 95.5619C59.0118 94.6855 61.2263 93.7779 63.5655 93.4336C66.3103 93.0267 69.055 93.4649 71.7997 93.6214C75.3866 93.8405 81.0943 93.684 82.4043 89.4273C82.8722 87.8937 82.5291 86.1097 81.1879 85.1081C79.8779 84.1378 78.1001 84.2004 76.5718 84.3882C70.9576 85.1707 65.4369 86.4539 59.7603 87.0799C56.579 87.4242 53.5223 87.8311 50.4033 87.0799C47.8769 86.4539 45.8808 86.8921 43.5103 87.8624C42.2627 88.3632 41.0463 88.9266 39.7363 89.1769C38.1145 89.4899 36.4302 89.2708 34.8083 88.9892C32.1572 88.4884 29.5684 87.7998 26.886 88.1441C26.1999 88.2693 26.1999 89.2082 26.7925 89.1456Z" fill="#E8E8E8"/>
<path d="M406.843 126.36C400.948 128.426 394.055 123.543 389.814 119.85C389.751 120.1 389.689 120.382 389.595 120.632C392.59 119.412 395.74 119.349 398.921 119.537C402.071 119.693 405.222 119.912 408.372 120.006C415.078 120.194 421.815 120.038 428.489 119.537C431.951 119.286 435.382 118.942 438.813 118.535C440.497 118.316 442.525 117.909 444.115 118.692C446.33 119.818 446.143 122.26 444.022 123.199C442.93 123.668 441.745 123.825 440.591 124.044C438.782 124.357 436.973 124.701 435.164 125.014C431.858 125.609 428.552 126.203 425.214 126.798C423.312 127.142 421.409 127.487 419.507 127.831C417.729 128.144 415.888 128.613 414.048 128.645C410.929 128.676 408.59 125.922 405.471 126.266C404.878 126.329 404.878 127.268 405.471 127.205C407.249 126.986 408.652 127.956 410.181 128.676C411.428 129.271 412.645 129.584 414.017 129.584C417.604 129.552 421.316 128.457 424.84 127.8C428.645 127.111 432.482 126.422 436.287 125.734C438.096 125.421 439.905 125.077 441.714 124.764C442.93 124.545 444.209 124.263 445.27 123.543C447.047 122.322 447.11 120.069 445.613 118.598C443.273 116.282 439.25 117.502 436.412 117.815C428.739 118.66 421.004 119.099 413.269 119.067C409.027 119.067 404.785 118.911 400.543 118.629C396.769 118.41 392.933 118.222 389.377 119.662C389.096 119.787 388.878 120.194 389.159 120.444C393.65 124.357 400.824 129.396 407.093 127.205C407.654 127.08 407.436 126.172 406.843 126.36Z" fill="#E8E8E8"/>
<path d="M263.806 291.712C263.525 289.928 266.051 290.209 267.049 290.554C267.829 290.804 268.578 291.117 269.389 291.211C271.322 291.461 273.225 290.804 275.034 290.209C276.781 289.615 278.621 288.957 280.492 289.145C282.738 289.364 284.547 291.211 284.204 293.59C283.83 296.062 281.303 297.22 279.058 296.532C277.529 296.062 276.188 295.092 274.597 294.842C271.229 294.341 267.704 297.283 264.461 295.718C263.93 295.467 263.431 296.25 263.993 296.532C265.927 297.471 267.86 297.032 269.825 296.469C271.073 296.125 272.383 295.687 273.693 295.718C275.221 295.749 276.469 296.5 277.81 297.064C279.713 297.878 281.709 298.034 283.393 296.657C284.828 295.499 285.452 293.652 285.015 291.868C283.705 286.704 277.779 288.3 274.223 289.489C272.539 290.053 270.761 290.585 268.952 290.209C267.798 289.959 266.706 289.239 265.459 289.27C263.962 289.302 262.62 290.397 262.87 291.962C262.995 292.557 263.899 292.306 263.806 291.712Z" fill="#E8E8E8"/>
<path d="M227.843 281.289C229.341 279.881 231.399 279.286 233.426 279.724C234.269 279.912 236.608 280.538 235.142 281.665C234.362 282.259 232.647 282.197 231.711 282.197C231.118 282.197 231.118 283.136 231.711 283.136C233.083 283.136 235.485 283.073 236.514 281.978C237.388 281.039 236.389 280.006 235.547 279.536C232.865 277.971 229.403 278.566 227.188 280.632C226.752 281.039 227.407 281.696 227.843 281.289Z" fill="#E8E8E8"/>
<path d="M210.502 302.04C210.252 301.946 210.034 301.852 209.785 301.759C209.753 302.009 209.722 302.259 209.691 302.51C211.594 301.133 213.746 302.134 215.773 302.604C217.488 303.01 218.986 302.823 220.67 302.416C222.76 301.915 224.881 301.602 227.033 301.477C228.031 301.414 229.029 301.383 230.027 301.352C230.963 301.32 233.302 300.851 232.491 302.447C231.524 304.356 228.717 304.419 227.001 303.856C225.536 303.386 224.163 302.698 222.604 303.073C220.982 303.449 219.609 304.482 217.925 304.826C215.679 305.295 213.465 305.076 211.313 304.294C210.751 304.106 210.502 304.982 211.063 305.201C213.184 305.953 215.399 306.203 217.644 305.827C220.171 305.389 222.416 303.417 225.036 304.137C226.908 304.669 228.436 305.514 230.432 304.92C231.711 304.544 233.52 303.417 233.77 301.978C234.082 300.287 231.992 300.35 230.9 300.381C228.374 300.444 225.816 300.569 223.29 300.945C221.917 301.164 220.607 301.539 219.266 301.79C217.613 302.103 216.272 301.79 214.681 301.352C212.81 300.82 210.876 300.507 209.192 301.696C208.942 301.884 208.88 302.197 209.098 302.447C209.566 302.979 210.065 303.104 210.72 302.979C211.344 302.854 211.094 301.946 210.502 302.04Z" fill="#E8E8E8"/>
<path d="M339.317 284.106C341.126 283.355 343.028 282.948 344.993 282.979C347.021 283.011 348.736 283.793 350.67 284.231C353.508 284.92 355.629 283.167 357.937 281.821C361.586 279.662 365.204 281.07 369.01 281.853C371.723 282.416 374.624 282.51 376.963 280.851C377.462 280.507 376.994 279.693 376.495 280.037C373.563 282.166 369.945 281.133 366.733 280.35C363.707 279.63 360.713 279.223 357.875 280.788C356.627 281.477 355.473 282.385 354.163 282.979C352.167 283.887 350.545 283.167 348.611 282.604C345.461 281.696 342.124 281.946 339.098 283.198C338.506 283.417 338.755 284.325 339.317 284.106Z" fill="#E8E8E8"/>
<path d="M122.452 129.991C125.228 128.927 130.094 134.654 132.496 138.41C136.176 144.075 136.769 149.02 138.578 160.476C139.264 164.92 140.387 171.962 141.915 180.851C144.66 183.543 145.689 186.172 146.094 187.8C146.656 189.897 146.812 192.588 146.094 192.839C145.315 193.12 143.942 190.491 143.381 190.742C142.632 191.086 145.065 195.311 143.599 197.252C142.102 199.224 136.488 198.911 133.556 196C130.811 193.277 131.903 189.803 131.466 181.509C131.31 178.692 130.874 171.023 128.534 163.449C125.665 154.216 122.671 153.747 120.986 145.578C119.801 139.819 119.458 131.149 122.452 129.991Z" fill="white" stroke="#161616" stroke-width="2" stroke-miterlimit="10"/>
<path opacity="0.15" d="M126.57 138.066C128.285 137.69 131.279 145.484 131.466 145.922C134.211 153.121 132.901 156.188 134.118 166.798C135.116 175.437 135.677 180.351 138.453 186.423C141.135 192.244 144.254 195.656 143.069 197.221C141.884 198.817 137.237 197.283 133.587 195.812C133.244 195.03 132.745 193.809 132.34 192.307C131.311 188.645 131.373 185.734 131.373 184.326C131.373 183.543 131.342 174.466 129.564 166.548C128.597 162.322 128.16 162.948 127.038 158.567C124.573 149.052 124.667 138.473 126.57 138.066Z" fill="#6D6C6C"/>
<path opacity="0.17" d="M130.78 153.214C131.123 156.469 131.56 161.321 131.747 167.236C132.028 176.344 131.591 183.918 131.342 183.918C131.123 183.918 131.404 178.472 130.219 171.023C129.439 166.078 128.285 162.072 127.412 159.412C128.004 158.817 128.722 158.003 129.377 156.876C130.188 155.437 130.593 154.122 130.78 153.214Z" fill="#6D6C6C"/>
<path d="M128.628 264.231C127.817 265.734 127.692 267.361 129.564 281.54C129.782 283.292 130 284.732 130.125 285.734C134.897 286.485 141.634 287.079 149.619 286.297C154.453 285.828 160.099 285.295 160.411 283.449C160.66 281.946 157.385 279.255 142.414 274.122C141.728 269.114 141.01 264.106 140.324 259.098C131.56 259.693 129.283 263.073 128.628 264.231Z" fill="#161616"/>
<path d="M109.82 174.998C112.752 179.005 116.932 184.764 121.829 191.806C133.431 208.457 139.233 216.782 141.26 222.353C147.248 238.848 145.689 254.873 145.096 260.319C144.753 263.449 144.317 266.015 143.974 267.768C141.603 268.676 138.203 269.677 134.055 270.022C130.343 270.335 127.162 269.99 124.823 269.583C124.105 265.327 123.513 260.538 123.232 255.342C122.827 247.612 123.201 240.695 123.918 234.779C115.902 228.613 110.725 222.26 107.575 217.846C99.1534 205.922 96.9077 195.593 95.5666 188.958C93.664 179.756 94.974 177.252 96.1904 175.937C100.245 171.712 109.041 174.748 109.82 174.998Z" fill="white" stroke="#161616" stroke-width="2" stroke-miterlimit="10"/>
<path opacity="0.19" d="M110.725 201.415C113.937 204.138 118.117 208.175 122.172 213.715C123.294 215.28 127.942 221.947 132.028 232.651C137.642 247.486 138.11 261.32 137.86 269.145C136.488 269.646 134.554 270.178 132.246 270.366C129.158 270.585 126.632 270.053 125.01 269.552C124.012 263.449 123.263 256.407 123.201 248.582C123.17 243.511 123.388 238.785 123.793 234.466C123.014 234.028 107.949 225.515 108.136 211.274C108.167 207.299 109.415 203.918 110.725 201.415Z" fill="#6D6C6C"/>
<path opacity="0.15" d="M114.748 225.389C115.435 224.451 124.012 227.08 127.411 233.465C129.969 238.253 127.911 241.947 128.004 248.77C128.066 253.871 129.376 261.133 135.022 269.928C131.747 269.865 128.472 269.802 125.166 269.74C124.261 263.918 123.544 257.283 123.357 249.99C123.201 244.231 123.388 238.911 123.762 234.059C122.546 233.433 120.986 232.463 119.333 231.023C117.493 229.396 114.249 226.078 114.748 225.389Z" fill="#6D6C6C"/>
<path d="M73.5152 261.759C71.1448 263.292 70.7393 265.421 68.5872 270.116C67.0901 273.371 64.8444 277.721 61.3823 282.666C63.3473 284.889 66.6223 287.987 71.4255 290.272C78.0066 293.402 87.2389 294.904 88.6736 292.181C90.2019 289.239 82.1861 282.26 79.7844 280.194C80.4394 278.723 81.4999 276.375 82.8099 273.527C86.272 266.078 86.9581 264.983 86.3967 263.637C85.0867 260.444 77.8195 259.004 73.5152 261.759Z" fill="#161616"/>
<path d="M83.5272 167.925C81.6558 173.089 79.7532 178.253 77.8818 183.386C74.794 192.338 76.1352 198.535 77.1332 201.508C78.2249 204.795 80.1275 207.612 83.9015 213.214C86.8334 217.533 89.4845 221.008 91.4183 223.418C87.5507 227.455 83.1529 232.682 79.0047 239.255C73.4216 248.144 70.1155 256.5 68.0881 263.042C69.9283 264.45 72.7043 266.234 76.3535 267.58C80.4394 269.083 84.0574 269.427 86.5215 269.458C90.8569 266.109 96.783 260.882 102.304 253.214C106.639 247.236 112.472 239.192 114.343 227.925C117.524 208.738 107.138 193.12 103.426 187.549C96.7206 177.44 88.6736 171.305 83.5272 167.925Z" fill="white" stroke="#161616" stroke-width="2" stroke-miterlimit="10"/>
<path d="M96.6583 179.192C99.0599 182.541 101.43 185.922 103.707 189.333C103.988 189.177 104.237 189.02 104.518 188.864C102.491 186.141 100.682 183.23 99.1223 180.194C98.904 180.413 98.6856 180.632 98.4673 180.851C99.7461 181.728 100.463 183.042 101.243 184.325C102.148 185.828 103.083 187.33 103.988 188.833C105.766 191.743 107.544 194.685 109.321 197.596C109.602 197.44 109.852 197.283 110.132 197.127C107.419 192.87 104.705 188.613 101.961 184.357C101.649 183.856 100.838 184.325 101.15 184.826C104.518 190.46 107.918 196.063 111.286 201.696C111.598 202.228 112.409 201.759 112.097 201.227C109.633 197.033 107.201 192.807 104.737 188.613C104.487 188.801 104.237 188.989 103.988 189.177C107.512 193.089 108.136 198.786 111.973 202.448C112.409 202.854 113.064 202.197 112.628 201.79C108.791 198.16 108.167 192.432 104.643 188.52C104.269 188.113 103.645 188.645 103.894 189.083C106.358 193.277 108.791 197.502 111.255 201.696C111.536 201.54 111.785 201.383 112.066 201.227C108.698 195.593 105.298 189.991 101.929 184.357C101.649 184.513 101.399 184.67 101.118 184.826C103.832 189.083 106.546 193.34 109.29 197.596C109.602 198.097 110.413 197.627 110.101 197.127C108.105 193.84 106.109 190.554 104.113 187.299C102.647 184.858 101.306 181.696 98.8728 180.038C98.4673 179.756 98.0307 180.288 98.2178 180.695C99.7773 183.731 101.555 186.61 103.614 189.365C103.957 189.834 104.768 189.396 104.425 188.895C102.148 185.452 99.8085 182.072 97.3757 178.754C97.1261 178.222 96.3152 178.692 96.6583 179.192Z" fill="white"/>
<path opacity="0.2" d="M98.6231 180.57C97.0012 182.917 94.7556 186.798 93.7887 191.9C90.8256 207.361 103.302 214.216 100.526 227.768C99.0598 234.904 95.3482 234.247 87.0516 249.083C82.841 256.626 80.1586 263.261 78.5679 267.768C76.5406 267.142 74.3261 266.328 71.9868 265.264C70.6145 264.638 69.3357 264.012 68.1816 263.355C70.0219 257.596 72.7978 250.648 76.9772 243.198C81.7181 234.779 86.9269 228.206 91.3247 223.355C90.1082 221.79 88.2992 219.411 86.2095 216.438C80.4393 208.238 77.5075 204.044 76.5406 199.224C75.4489 193.903 76.3534 189.365 76.9772 186.297C77.9129 181.665 79.5036 178.034 80.7824 175.562C86.7085 177.221 92.6658 178.911 98.6231 180.57Z" fill="#6D6C6C"/>
<path opacity="0.17" d="M91.2936 178.66C87.7691 182.698 83.153 189.333 83.5273 197.346C84.0887 209.897 96.4399 214.685 94.6621 224.983C94.1631 227.831 90.2331 232.4 82.342 241.446C78.0066 246.422 74.3262 250.397 71.7998 253.058C73.7336 248.3 76.5407 242.604 80.5954 236.594C84.1823 231.274 87.8627 227.017 91.1376 223.668C90.1707 222.197 88.4553 219.568 86.3032 216.313C78.7864 204.983 77.3204 203.199 76.4783 199.255C75.4802 194.623 76.1352 190.71 76.6343 187.8C77.5388 182.385 79.4414 178.222 80.8761 175.593C84.3382 176.595 87.8315 177.627 91.2936 178.66Z" fill="#6D6C6C"/>
<path d="M107.419 124.2C102.99 126.829 94.5685 132.62 88.1434 143.261C79.9716 156.814 79.9716 170.053 80.2523 175.186C81.7806 175.687 83.3401 176.188 84.9308 176.657C95.5666 179.85 105.859 182.009 115.591 183.386C116.402 180.601 117.275 177.784 118.211 174.873C119.614 170.585 121.08 166.485 122.577 162.573C127.755 159.881 129.564 156.407 130.156 154.967C132.558 149.333 130.281 143.449 127.817 137.095C126.445 133.527 125.727 131.712 124.012 129.771C118.647 123.668 109.789 124.044 107.419 124.2Z" fill="#EF722E"/>
<path opacity="0.27" d="M117.929 131.618C109.415 132.745 104.861 136.626 103.021 138.441C92.6343 148.738 96.2211 166.109 97.188 170.804C98.0614 175.029 99.3713 178.41 100.401 180.694C93.8195 178.91 87.2696 177.095 80.6885 175.311C80.283 170.522 79.8776 158.222 86.9577 145.108C93.5388 132.964 102.989 126.735 107.2 124.294C107.793 124.325 108.385 124.388 108.978 124.419C109.882 125.483 110.974 126.61 112.315 127.768C114.311 129.521 116.276 130.741 117.929 131.618Z" fill="#6D6C6C"/>
<path opacity="0.2" d="M90.6386 139.474C89.7652 144.075 89.0479 150.742 89.9836 158.629C91.1064 167.893 94.0695 175.061 96.3775 179.568C91.0128 178.191 85.617 176.814 80.2523 175.468C80.0027 171.149 80.1275 164.67 82.1861 157.221C84.4317 149.083 88.0498 143.136 90.6386 139.474Z" fill="#6D6C6C"/>
<path d="M354.319 242.885C352.354 247.299 352.728 251.43 353.04 253.371C359.185 256.094 364.643 257.346 368.822 257.972C370.195 258.191 387.162 260.601 388.815 255.937C389.221 254.779 388.566 253.59 387.911 252.432C384.261 246.015 375.029 245.64 373.782 245.608C373.439 238.942 369.165 233.997 364.799 233.652C358.623 233.183 354.756 241.915 354.319 242.885Z" fill="#161616"/>
<path d="M362.429 135.218C366.483 141.07 371.941 150.178 375.903 162.26C382.359 181.947 381.298 198.472 380.581 207.831C379.957 216.156 378.273 227.987 373.563 241.634C372.285 242.447 366.639 245.828 359.497 244.294C355.255 243.386 352.385 241.133 351.013 239.881C353.539 234.31 356.596 225.922 357.75 215.468C359.029 204.075 357.469 195.155 355.411 183.699C350.732 157.815 344.276 147.987 349.859 140.757C352.541 137.252 357.126 135.687 362.429 135.218Z" fill="white" stroke="#161616" stroke-width="2" stroke-miterlimit="10"/>
<path opacity="0.16" d="M364.643 149.521C366.764 159.881 368.448 171.774 369.103 184.983C370.226 208.425 367.7 228.644 364.425 244.388C363.021 244.576 359.621 244.795 356.003 242.979C353.851 241.884 352.385 240.444 351.543 239.443C355.442 230.428 356.846 222.76 357.407 217.596C358.28 209.49 357.563 202.979 356.222 190.835C355.442 183.731 354.537 177.909 353.882 173.934C357.469 165.828 361.056 157.659 364.643 149.521Z" fill="#6D6C6C"/>
<path opacity="0.22" d="M357.812 165.108C360.495 172.119 364.518 185.483 363.146 202.479C361.836 218.848 356.097 231.023 352.448 237.471C358.561 219.756 358.873 208.895 357.937 202.166C357.688 200.444 356.627 193.621 355.411 183.574C354.912 179.411 354.537 176 354.319 173.809C355.504 170.898 356.658 167.987 357.812 165.108Z" fill="#6D6C6C"/>
<path d="M309.187 229.333C306.598 230.616 305.819 232.713 302.263 239.505C299.893 244.012 297.896 247.612 296.586 249.928C300.579 252.807 306.91 256.594 315.363 258.597C320.353 259.787 330.74 261.446 331.925 258.597C333.235 255.436 322.568 248.144 318.076 245.202C322.693 240.694 322.911 234.153 319.792 230.804C317.141 227.956 312.337 227.768 309.187 229.333Z" fill="#161616"/>
<path d="M354.413 134.56C364.706 143.668 352.666 174.028 342.779 198.316C338.506 208.801 331.831 223.981 322.006 241.727C320.291 241.978 315.144 242.479 309.655 239.505C304.134 236.532 301.733 231.868 301.015 230.335C303.885 225.358 307.347 218.66 310.653 210.491C311.963 207.267 317.608 192.87 320.79 172.526C322.037 164.482 323.16 153.872 323.004 141.258C324.845 139.38 335.106 129.271 347.239 131.587C349.079 131.931 352.105 132.526 354.413 134.56Z" fill="white" stroke="#161616" stroke-width="2" stroke-miterlimit="10"/>
<path d="M357.75 147.08C357.719 148.175 357.688 149.271 357.688 150.366C358 150.366 358.311 150.366 358.623 150.366C358.467 148.613 358.561 146.955 358.904 145.233C358.592 145.202 358.28 145.139 358 145.108C358.187 148.801 357.345 152.682 356.69 156.313C356.035 159.975 355.161 163.606 354.132 167.174C354.444 167.267 354.725 167.33 355.037 167.424C356.752 160.914 358.187 154.372 359.372 147.737C359.466 147.142 358.561 146.892 358.467 147.487C357.282 154.091 355.847 160.663 354.132 167.174C353.976 167.768 354.881 168.019 355.037 167.424C356.128 163.668 357.002 159.818 357.688 155.969C358.311 152.463 359.122 148.676 358.935 145.108C358.904 144.607 358.124 144.451 358.031 144.983C357.656 146.767 357.563 148.551 357.719 150.366C357.781 150.961 358.655 150.992 358.655 150.366C358.686 149.271 358.717 148.175 358.717 147.08C358.717 146.485 357.781 146.485 357.75 147.08Z" fill="white"/>
<path d="M353.789 165.202C353.82 167.612 353.883 170.022 353.914 172.432C353.914 173.026 354.85 173.026 354.85 172.432C354.818 170.022 354.756 167.612 354.725 165.202C354.694 164.576 353.758 164.576 353.789 165.202Z" fill="white"/>
<path opacity="0.19" d="M340.814 144.294C340.908 150.585 340.564 159.161 338.724 169.114C336.759 179.662 333.765 187.831 329.398 200.131C325.843 210.21 324.127 213.214 320.509 224.388C318.295 231.18 316.735 236.876 315.737 240.695C314.022 240.475 310.466 239.756 306.91 237.095C303.604 234.623 301.92 231.68 301.171 230.147C306.91 220.037 310.56 211.18 312.868 204.732C320.01 184.795 321.694 167.455 322.661 156.782C323.067 152.338 323.285 148.645 323.379 146.235C329.18 145.577 335.013 144.951 340.814 144.294Z" fill="#6D6C6C"/>
<path opacity="0.24" d="M337.601 145.202C335.169 155.937 332.362 164.388 330.147 170.304C328.338 175.186 325.562 181.759 320.041 194.873C318.014 199.724 316.985 202.134 316.486 203.23C313.429 210.116 308.532 219.787 300.704 231.18C307.721 218.535 315.768 200.507 320.041 177.784C322.194 166.329 322.973 155.875 323.067 146.829C323.036 146.798 323.036 146.798 337.601 145.202Z" fill="#6D6C6C"/>
<path d="M347.457 68.2381C347.956 69.4587 348.83 71.2428 350.42 73.0581C351.574 74.3727 353.04 76.0628 355.224 76.7201C359.465 78.0346 363.583 74.6543 364.144 74.1849C368.261 76.6262 372.378 79.0675 376.464 81.5088C376.838 86.6105 376.87 94.31 374.873 103.293C372.971 111.837 371.131 112.87 369.633 121.164C367.357 133.621 369.041 144.732 368.479 144.764C368.386 144.764 368.261 144.513 368.012 143.167C351.949 144.388 335.886 145.609 319.823 146.829C319.355 137.158 319.417 129.02 319.605 123.011C319.854 113.621 320.603 102.26 323.722 89.0831C325.936 79.6621 327.683 76.4697 330.334 73.9658C336.073 68.4885 343.933 68.1442 347.457 68.2381Z" fill="#1C56B2"/>
<path opacity="0.3" d="M366.047 75.3115C365.517 81.0392 364.518 89.5525 362.616 99.7559C362.054 102.823 360.464 111.274 359.185 115.405C357.625 120.476 351.543 134.967 321.788 146.735C330.864 145.671 340.221 144.732 349.797 143.95C355.785 143.449 361.711 143.011 367.544 142.667C369.602 135.311 371.505 126.986 372.877 117.784C374.967 103.856 375.373 91.2739 375.029 80.6636C372.035 78.8796 369.041 77.0956 366.047 75.3115Z" fill="#32198E"/>
<path d="M353.196 49.3961C352.105 54.9986 351.606 61.1957 347.083 68.0502C346.459 68.9891 345.929 69.709 345.555 70.1785C345.929 70.9297 349.89 78.6292 358.311 79.7872C363.115 80.4445 366.889 78.5979 368.323 77.8154C368.105 75.9375 367.98 73.684 368.167 71.1488C368.417 67.4242 369.197 64.3256 369.977 61.9782C373.595 61.5087 377.181 61.0392 380.799 60.5698C381.517 58.9735 382.203 57.3773 382.92 55.7497C383.918 55.7184 384.885 55.6871 385.883 55.6558C385.135 53.4649 384.012 49.9908 382.702 45.7028C380.269 37.6277 380.3 36.4697 378.99 34.6543C375.372 29.6778 367.263 26.5166 361.929 29.177C356.783 31.7122 355.224 38.9423 353.196 49.3961Z" fill="white" stroke="#161616" stroke-width="2" stroke-miterlimit="10"/>
<path d="M385.727 55.2175C383.95 55.2488 382.203 55.1236 380.456 54.8733C379.864 54.7794 379.614 55.687 380.207 55.7809C382.047 56.0626 383.856 56.1878 385.727 56.1565C386.351 56.1565 386.351 55.2175 385.727 55.2175Z" fill="#161616"/>
<path d="M386.975 40.8515C385.384 39.9751 383.482 40.4759 382.453 41.9469C382.109 42.4477 382.92 42.9172 383.263 42.4164C383.981 41.3835 385.416 41.0706 386.507 41.6652C387.037 41.9469 387.505 41.1332 386.975 40.8515Z" fill="#161616"/>
<path d="M386.164 46.4853C386.32 45.7654 386.289 45.0455 385.946 44.3883C385.696 43.9188 385.166 43.3554 384.573 43.6058C383.95 43.8562 383.981 44.7326 384.105 45.2646C384.23 45.9219 384.573 46.5166 385.072 46.9548C385.353 47.2052 385.883 47.0487 385.883 46.6105C385.883 45.828 385.696 45.1394 385.353 44.4196C385.104 43.8875 384.293 44.357 384.542 44.8891C384.792 45.4211 384.916 45.9845 384.948 46.5792C385.228 46.454 385.478 46.3601 385.759 46.2349C385.228 45.7967 385.041 45.2333 385.01 44.5761C385.041 44.5135 385.01 44.4509 384.916 44.4509C384.979 44.4822 385.041 44.5448 385.072 44.6074C385.166 44.7325 385.26 44.9203 385.291 45.0768C385.415 45.4524 385.415 45.7967 385.322 46.1723C385.104 46.8296 386.008 47.08 386.164 46.4853Z" fill="#161616"/>
<path d="M377.93 42.1034C376.121 41.5087 374.218 42.2599 373.158 43.8248C372.815 44.3256 373.626 44.7951 373.969 44.2943C374.78 43.0736 376.277 42.5729 377.68 43.011C378.242 43.1675 378.491 42.2912 377.93 42.1034Z" fill="#161616"/>
<path d="M378.429 47.3303C378.491 46.4852 378.148 45.1707 377.275 44.8264C376.121 44.3569 376.121 45.9844 376.246 46.673C376.401 47.3616 376.963 48.6448 377.899 48.1128C378.273 47.8937 378.335 47.4868 378.21 47.1112C377.992 46.5165 377.649 45.9844 377.4 45.4211C377.15 45.6089 376.9 45.7967 376.651 45.9844C376.776 46.1096 376.869 46.2348 376.9 46.4226C377.056 47.0173 377.961 46.7669 377.805 46.1722C377.711 45.8279 377.555 45.5776 377.306 45.3272C376.901 44.9516 376.339 45.4211 376.557 45.8905C376.682 46.1096 376.776 46.3287 376.9 46.5791C376.994 46.7669 377.088 47.1112 377.244 47.2677C377.306 47.4868 377.368 47.4868 377.462 47.2677C377.431 47.2051 377.368 47.1112 377.337 47.0486C377.244 46.8608 377.181 46.673 377.15 46.4539C377.119 46.2661 377.15 46.0157 377.088 45.828C377.119 45.7028 377.088 45.6715 377.056 45.828C377.119 45.9218 377.212 46.0157 377.244 46.1096C377.462 46.4852 377.524 46.9234 377.493 47.3616C377.431 47.925 378.366 47.925 378.429 47.3303Z" fill="#161616"/>
<path d="M380.238 36.6575C379.988 34.9986 379.333 32.3069 377.587 29.5213C376.963 28.5511 375.622 26.4541 373.501 25.0456C369.446 22.3539 363.208 22.573 358.654 25.8594C354.225 29.0832 352.011 34.8734 352.978 40.6011C362.085 39.2866 371.162 37.972 380.238 36.6575Z" fill="#EF722E"/>
<path d="M395.147 33.6528C381.142 35.4368 367.169 37.2208 353.165 39.0049C351.387 39.224 351.387 42.0408 353.165 41.8218C367.169 40.0377 381.142 38.2537 395.147 36.4697C396.893 36.2506 396.925 33.4337 395.147 33.6528Z" fill="#161616"/>
<path d="M362.054 40.2255C364.518 41.1332 365.953 42.8546 367.637 44.9203C371.162 49.2395 370.101 50.8358 372.596 53.5275C376.526 57.8154 380.519 55.2802 384.043 59.4743C387.037 63.0423 386.632 67.8623 386.507 68.9265C386.382 69.9907 385.852 74.2786 382.39 77.2207C379.396 79.7559 375.31 80.3506 375.06 79.7872C374.967 79.5681 375.31 79.0673 377.524 77.565C376.869 78.0345 375.871 78.5978 374.53 78.8482C373.002 79.1299 371.567 78.8482 371.536 78.6291C371.536 78.4726 372.347 78.4726 372.971 77.7841C373.345 77.3772 373.501 76.9077 373.594 76.5008C372.378 77.3146 370.819 78.0032 369.353 77.565C365.36 76.3443 364.643 67.3616 364.393 64.3882C363.645 54.7481 366.39 49.4899 363.052 46.1097C362.772 45.828 361.43 44.4508 359.964 44.7325C358.093 45.0768 356.658 48.0189 357.282 49.9594C357.812 51.6183 359.684 52.0877 359.559 52.4007C359.372 52.8076 356.222 52.1816 353.57 50.0533C352.604 49.2709 351.824 48.6449 351.418 47.4868C350.701 45.4837 351.543 43.1989 352.666 41.853C355.005 39.0361 359.372 39.2239 362.054 40.2255Z" fill="#161616" stroke="#161616" stroke-width="2" stroke-miterlimit="10"/>
<path opacity="0.22" d="M358.343 52.6511C358.936 52.7137 359.778 52.745 359.84 52.5259C359.872 52.4321 359.653 52.2756 359.653 52.2756C359.653 52.2756 360.371 53.1832 361.244 53.3084C361.681 53.371 362.024 53.2145 362.273 53.0893C360.682 56.4383 359.061 60.5071 357.719 65.202C356.316 70.0533 355.536 74.4977 355.131 78.2849C353.758 77.8467 351.263 76.8451 348.955 74.5916C347.271 72.9641 346.304 71.2426 345.742 70.0846C347.614 67.2677 348.705 64.7951 349.36 63.1049C349.953 61.54 350.171 60.5071 351.232 56.9391C352.105 54.0596 352.791 51.6809 353.259 50.0533C353.509 50.2724 353.883 50.6167 354.382 50.961C355.099 51.4618 356.503 52.4321 358.343 52.6511Z" fill="#6D6C6C"/>
<path opacity="0.2" d="M368.417 23.3555C364.768 24.0753 362.054 27.0174 361.649 30.4916C361.15 34.623 364.175 37.4399 364.456 37.6903C360.588 38.1598 356.721 38.6606 352.853 39.1301C352.791 38.2224 352.76 36.9705 352.978 35.5307C353.727 30.8985 356.409 28.0503 356.97 27.4556C357.875 26.5167 361.056 23.4807 365.766 23.199C366.858 23.1364 367.762 23.2616 368.417 23.3555Z" fill="black"/>
<path d="M375.529 81.1958C378.024 80.8202 380.582 85.1708 381.767 87.1739C388.629 98.8797 385.759 112.401 384.886 116.344C384.2 119.443 382.921 124.92 378.929 130.961C375.124 136.783 370.632 140.382 367.763 142.354C362.959 144.2 354.226 146.736 343.715 145.014C340.066 144.419 336.885 143.418 334.233 142.354C329.742 142.635 325.251 142.886 320.759 143.167C320.042 143.042 319.044 142.854 317.859 142.416C316.424 141.884 315.052 141.352 315.052 140.851C315.052 140.288 316.611 139.412 324.221 138.222C323.847 138.285 318.857 139.255 315.519 135.75C312.4 132.495 312.213 126.923 314.584 124.732C316.58 122.886 319.824 123.7 325.75 125.296C331.613 126.861 336.323 128.989 339.754 130.804C341.064 131.399 351.263 135.812 360.589 130.429C367.7 126.329 370.071 118.974 370.632 116.939C372.878 108.864 368.792 106.016 370.258 94.3413C370.445 92.3382 371.786 81.7279 375.529 81.1958Z" fill="white" stroke="#161616" stroke-width="2" stroke-miterlimit="10"/>
<path d="M313.399 131.712C317.017 131.994 320.479 132.87 323.785 134.372C324.315 134.623 324.814 133.809 324.253 133.559C320.791 131.962 317.173 131.024 313.399 130.742C312.806 130.742 312.806 131.681 313.399 131.712Z" fill="#161616"/>
<path d="M313.18 127.894C317.328 127.768 320.852 130.304 324.72 131.493C325.281 131.681 325.531 130.773 324.969 130.585C321.04 129.365 317.453 126.829 313.18 126.955C312.587 126.986 312.556 127.925 313.18 127.894Z" fill="#161616"/>
<path d="M317.172 124.576C320.572 124.858 323.566 126.485 326.498 128.144C327.028 128.426 327.496 127.643 326.966 127.33C323.878 125.609 320.759 123.95 317.172 123.637C316.548 123.574 316.548 124.513 317.172 124.576Z" fill="#161616"/>
<path opacity="0.18" d="M371.723 86.9548C369.883 94.3726 374.78 99.3804 376.433 107.862C376.714 109.365 378.928 121.54 372.441 130.178C365.205 139.819 350.857 140.163 348.05 140.257C340.72 140.445 337.945 138.285 326.467 138.88C325.375 138.942 315.394 139.506 315.301 140.914C315.269 141.665 318.045 142.51 320.135 142.792C322.88 143.167 324.314 142.542 327.808 142.26C329.305 142.135 331.457 142.041 334.108 142.26C337.29 143.574 341.407 144.858 346.335 145.358C347.676 145.484 351.855 145.859 357.22 145.077C357.22 145.077 361.711 144.451 365.267 143.199C374.094 140.132 382.827 127.205 385.291 113.121C388.067 97.2521 381.891 85.296 378.429 82.6356C377.961 82.26 376.62 81.2271 375.217 81.5714C372.94 82.0722 372.004 85.7968 371.723 86.9548Z" fill="#6D6C6C"/>
<path opacity="0.17" d="M384.886 96.3757C384.387 96.3757 384.387 102.354 383.014 109.866C382.172 114.435 380.457 123.731 376.308 130.21C368.916 141.759 353.82 144.357 348.081 145.045C353.009 145.734 360.589 145.89 367.981 141.947C384.012 133.371 385.572 112.682 385.852 108.927C386.289 102.604 385.385 96.3757 384.886 96.3757Z" fill="#6D6C6C"/>
<path d="M115.559 214.811C128.472 203.293 141.447 191.837 154.485 180.476C179.062 159.036 203.858 137.878 228.904 116.97C226.939 111.118 224.413 100.977 225.91 88.645C226.378 84.7326 230.37 55.9064 256.694 41.0082C258.878 39.7562 289.101 23.3556 317.421 41.4463C336.104 53.3712 345.773 75.1239 343.496 96.3758C340.128 127.956 312.181 141.947 310.56 142.729C290.411 152.369 266.176 149.521 248.117 135.437C220.982 157.847 193.909 180.288 166.867 202.792C155.015 212.651 143.194 222.51 131.373 232.4C128.909 231.211 124.823 228.832 121.142 224.482C118.055 220.851 116.433 217.221 115.559 214.811Z" fill="#161616"/>
<path d="M285.327 138.692C312.647 138.692 334.794 117.392 334.794 91.1175C334.794 64.843 312.647 43.5433 285.327 43.5433C258.007 43.5433 235.859 64.843 235.859 91.1175C235.859 117.392 258.007 138.692 285.327 138.692Z" fill="white" stroke="#161616" stroke-width="2" stroke-miterlimit="10"/>
<path d="M289.35 46.1725C280.305 65.39 270.792 84.4197 260.843 103.199C258.036 108.488 255.197 113.778 252.328 119.036C252.047 119.568 252.858 120.038 253.139 119.506C263.338 100.852 273.1 81.9784 282.395 62.8548C285.015 57.4714 287.604 52.0567 290.192 46.6107C290.442 46.1099 289.631 45.6404 289.35 46.1725Z" fill="#E8E8E8"/>
<path d="M304.602 50.8359C294.684 66.5479 285.264 82.5416 276.313 98.817C276.032 99.3491 276.843 99.8186 277.124 99.2865C286.075 83.0111 295.495 67.0174 305.413 51.3054C305.725 50.8046 304.914 50.3351 304.602 50.8359Z" fill="#E8E8E8"/>
<path d="M274.66 104.326C270.543 112.369 266.145 120.288 261.435 128.019C261.123 128.551 261.934 129.02 262.246 128.488C266.925 120.757 271.354 112.839 275.471 104.795C275.751 104.263 274.94 103.762 274.66 104.326Z" fill="#E8E8E8"/>
<path d="M291.97 80.8515C286.73 90.7419 281.522 100.632 276.282 110.523C276.001 111.055 276.812 111.524 277.093 110.992C282.332 101.102 287.541 91.2114 292.781 81.321C293.062 80.7889 292.251 80.3194 291.97 80.8515Z" fill="#E8E8E8"/>
<path opacity="0.08" d="M283.861 43.3868C280.399 44.6388 257.599 53.2147 250.3 76.188C249.458 78.8484 246.838 87.4243 248.803 97.346C252.577 116.25 271.416 131.556 296.056 136.689C294.185 137.315 291.565 138.066 288.321 138.473C268.734 140.945 253.544 127.549 251.766 125.953C247.899 122.416 235.953 110.398 235.735 91.3679C235.703 89.7091 235.797 70.9298 249.989 57.3774C258.254 49.4901 267.923 46.6106 271.978 45.4526C276.718 44.1067 280.867 43.6059 283.861 43.3868Z" fill="#6D6C6C"/>
<path d="M101.337 139.944C103.582 139.662 106.951 139.631 109.415 141.634C114.717 145.953 110.631 155.343 113.251 165.264C114.655 170.585 118.366 177.753 129.158 184.857C133.431 187.017 136.987 188.645 139.451 189.771C142.975 191.368 145.221 192.275 145.19 193.496C145.159 194.717 142.944 195.624 141.353 196.156C143.256 197.94 144.223 200.194 143.568 201.915C143.069 203.261 141.697 203.918 140.168 204.67C138.422 205.546 136.956 205.734 135.271 205.953C132.121 206.36 130.562 206.547 129.127 205.953C126.912 205.014 125.914 202.948 124.448 199.975C123.637 198.347 122.639 195.812 122.109 192.526C118.585 190.898 113.532 188.081 108.51 183.355C106.545 181.508 88.3304 163.981 94.0693 148.832C94.9426 146.704 96.7829 143.261 101.337 139.944Z" fill="white" stroke="#161616" stroke-width="2" stroke-miterlimit="10"/>
<path d="M129.22 202.072C130 203.793 131.185 205.233 132.714 206.391C133.182 206.767 133.649 205.953 133.182 205.577C131.809 204.544 130.749 203.167 130.031 201.602C129.782 201.07 128.971 201.54 129.22 202.072Z" fill="#161616"/>
<path d="M132.963 201.571C133.899 203.386 135.303 204.889 137.018 206.015C137.517 206.328 137.985 205.515 137.486 205.202C135.895 204.2 134.616 202.792 133.743 201.101C133.494 200.569 132.683 201.039 132.963 201.571Z" fill="#161616"/>
<path d="M136.893 199.443C137.767 201.289 139.264 202.76 141.104 203.637C141.634 203.887 142.133 203.073 141.572 202.823C139.856 202.009 138.515 200.695 137.704 198.973C137.424 198.41 136.644 198.879 136.893 199.443Z" fill="#161616"/>
<path opacity="0.2" d="M102.116 140.006C101.43 143.104 100.682 147.987 101.337 153.871C103.052 168.769 112.659 178.597 114.249 180.194C122.171 188.081 127.349 187.017 130.499 194.059C131.341 195.937 132.838 200.193 136.893 202.416C138.484 203.261 139.981 203.574 140.979 203.699C140.449 204.137 139.576 204.732 138.421 205.233C136.488 206.078 134.803 206.109 132.152 206.14C130.187 206.172 129.189 206.172 128.316 205.765C126.476 204.92 125.602 203.167 125.259 202.29C124.012 198.91 122.795 195.53 121.548 192.15C115.466 189.02 106.857 183.449 100.058 173.902C97.2194 169.928 92.4786 163.104 92.884 154.904C93.0712 151.18 94.2564 148.582 94.5371 147.956C96.7516 143.355 100.432 140.976 102.116 140.006Z" fill="#6D6C6C"/>
<path opacity="0.32" d="M93.2895 156.814C93.4766 156.751 94.6618 160.507 97.0011 164.889C102.709 175.718 110.943 182.354 116.838 186.986C119.52 189.083 121.797 190.648 123.232 191.618C124.979 194.56 125.977 197.095 126.569 198.942C127.068 200.476 127.349 201.853 128.503 203.293C129.688 204.857 131.217 205.734 132.339 206.235C131.497 206.266 130.219 206.203 128.877 205.577C126.32 204.388 125.197 201.915 124.012 199.286C123.326 197.784 122.515 195.53 122.078 192.62C105.797 184.357 99.6834 173.934 97.3754 168.989C95.0049 163.919 93.04 156.939 93.2895 156.814Z" fill="#6D6C6C"/>
<path d="M119.115 111.368C116.9 112.244 118.21 116.626 114.655 120.601C112.908 122.573 110.787 123.512 109.321 124.044C110.257 125.452 112.097 127.737 115.123 129.552C117.275 130.867 119.333 131.493 120.768 131.775C121.236 130.93 122.016 129.615 122.983 128.05C126.445 122.573 127.692 121.978 127.879 120.163C128.347 115.718 121.953 110.241 119.115 111.368Z" fill="white" stroke="#161616" stroke-width="2" stroke-miterlimit="10"/>
<path d="M118.71 119.819C119.988 122.385 121.33 124.92 123.45 126.892C123.887 127.299 124.542 126.642 124.105 126.235C122.047 124.326 120.768 121.822 119.52 119.349C119.24 118.817 118.429 119.286 118.71 119.819Z" fill="#161616"/>
<path d="M117.774 118.128C119.209 120.945 120.768 123.731 123.513 125.452C123.981 125.734 124.448 125.108 124.074 124.701C123.17 123.731 122.234 122.76 121.361 121.79C121.142 122.009 120.924 122.228 120.706 122.447C121.236 123.011 121.797 123.543 122.421 123.981C122.639 124.138 123.326 124.451 123.45 124.638C123.638 124.951 123.45 125.452 123.357 125.765C123.669 125.859 123.949 125.922 124.261 126.016C124.293 125.859 124.293 125.703 124.324 125.577C124.386 125.17 123.887 124.732 123.544 125.108C123.544 124.764 123.45 124.419 123.232 124.138C122.951 124.294 122.702 124.451 122.421 124.607C122.764 125.077 123.107 125.546 123.45 126.016C123.7 125.828 123.949 125.64 124.199 125.452C123.918 125.139 123.7 124.826 123.482 124.482C123.201 124.075 122.421 124.325 122.639 124.857C122.827 125.264 122.889 125.421 123.17 125.765C123.544 126.235 124.199 125.577 123.825 125.108C123.731 124.951 123.638 124.795 123.544 124.607C123.263 124.732 122.983 124.857 122.702 124.983C122.983 125.39 123.263 125.765 123.575 126.141C123.918 126.548 124.636 126.016 124.324 125.577C123.981 125.108 123.638 124.638 123.294 124.169C122.951 123.668 122.234 124.106 122.484 124.638C122.795 125.264 123.419 126.735 124.261 125.796C124.012 125.64 123.731 125.483 123.482 125.327C123.45 125.483 123.45 125.64 123.419 125.765C123.326 126.36 124.168 126.61 124.324 126.016C124.542 125.264 125.072 124.92 124.449 124.169C124.168 123.825 123.7 123.668 123.357 123.449C122.639 122.98 122.016 122.416 121.423 121.79C121.018 121.352 120.363 122.009 120.768 122.447C121.673 123.418 122.577 124.388 123.482 125.358C123.669 125.108 123.856 124.857 124.043 124.607C121.454 122.98 120.02 120.288 118.647 117.627C118.304 117.095 117.493 117.596 117.774 118.128Z" fill="#161616"/>
<path d="M147.81 103.074C147.186 105.859 145.907 109.991 142.975 114.247C137.829 121.728 130.842 124.889 127.848 126.047C126.133 125.39 123.887 124.232 121.766 122.26C115.965 116.845 115.528 109.427 115.466 107.518C114.842 107.362 113.937 107.017 113.158 106.266C111.161 104.326 110.694 100.476 112.534 98.8795C114.623 97.0642 118.616 99.2864 119.052 99.5055C120.019 100.038 120.706 100.695 121.142 101.196C122.858 96 126.975 92.0877 131.872 91.2739C138.546 90.1785 145.845 95.0611 147.81 103.074Z" fill="white" stroke="#161616" stroke-width="2" stroke-miterlimit="10"/>
<path d="M140.262 110.554C139.014 113.371 137.174 115.781 134.804 117.753C134.336 118.128 134.991 118.786 135.459 118.41C137.923 116.407 139.794 113.934 141.073 111.023C141.322 110.46 140.511 109.991 140.262 110.554Z" fill="#161616"/>
<path d="M133.618 115.656C133.494 116.72 133.868 117.753 134.585 118.535C134.991 118.973 135.646 118.316 135.24 117.878C134.679 117.252 134.461 116.501 134.554 115.656C134.616 115.061 133.681 115.061 133.618 115.656Z" fill="#161616"/>
<path d="M131.716 110.304C132.527 109.177 133.493 108.175 134.585 107.268C134.336 107.111 134.055 106.955 133.805 106.798C133.4 108.05 132.527 109.052 131.373 109.678C131.56 109.928 131.747 110.178 131.934 110.429C132.651 109.552 133.369 108.707 134.086 107.831C134.46 107.362 133.805 106.704 133.431 107.174C132.714 108.05 131.996 108.895 131.279 109.772C130.936 110.178 131.373 110.773 131.84 110.523C133.213 109.772 134.211 108.551 134.71 107.08C134.866 106.579 134.273 106.36 133.93 106.61C132.776 107.549 131.778 108.614 130.936 109.834C130.562 110.335 131.373 110.804 131.716 110.304Z" fill="#161616"/>
<path d="M142.071 113.058C142.476 112.369 143.007 111.775 143.599 111.243C143.35 111.086 143.069 110.93 142.819 110.773C142.539 111.712 141.977 112.557 141.166 113.152C141.385 113.34 141.634 113.496 141.853 113.684C142.04 113.183 142.32 112.714 142.664 112.307C143.038 111.837 142.383 111.18 142.009 111.649C141.572 112.213 141.229 112.776 140.979 113.433C140.823 113.809 141.354 114.216 141.665 113.966C142.664 113.214 143.381 112.244 143.724 111.055C143.88 110.585 143.287 110.304 142.944 110.585C142.289 111.149 141.728 111.837 141.26 112.588C140.917 113.089 141.728 113.559 142.071 113.058Z" fill="#161616"/>
<path d="M128.503 107.987C128.971 109.083 129.22 110.21 129.22 111.368C129.22 111.681 129.688 111.681 129.688 111.368C129.688 110.116 129.408 108.895 128.909 107.737C128.784 107.455 128.378 107.706 128.503 107.987Z" fill="#161616"/>
<path d="M127.193 107.174C127.505 107.674 127.724 108.175 127.911 108.707C128.004 108.989 128.441 108.864 128.347 108.582C128.16 107.987 127.911 107.455 127.599 106.923C127.443 106.673 127.037 106.923 127.193 107.174Z" fill="#161616"/>
<path d="M134.398 104.607C135.552 104.263 136.644 105.045 136.675 106.266C136.675 106.704 137.392 106.735 137.392 106.266C137.33 104.607 135.833 103.48 134.211 103.919C133.774 104.044 133.961 104.732 134.398 104.607Z" fill="#161616"/>
<path d="M142.757 109.208C143.256 108.895 143.849 108.864 144.379 109.177C144.753 109.427 145.127 108.801 144.722 108.582C144.005 108.144 143.1 108.144 142.414 108.613C142.04 108.864 142.383 109.459 142.757 109.208Z" fill="#161616"/>
<path d="M127.536 117.252C128.285 118.598 129.564 119.568 131.061 119.975C131.653 120.131 131.903 119.224 131.31 119.067C130.031 118.723 129.002 117.941 128.347 116.783C128.035 116.25 127.224 116.72 127.536 117.252Z" fill="#161616"/>
<path d="M121.111 102.448C121.797 101.258 123.45 98.7231 126.632 96.9703C128.815 95.7497 130.874 95.4054 132.121 95.2802C132.807 96.1879 133.93 97.3772 135.583 98.1284C139.482 99.9124 142.632 97.565 144.94 99.1299C146.157 99.9437 147.373 101.916 146.905 107.299C148.964 109.427 150.336 109.552 151.085 109.396C154.204 108.77 156.449 101.728 154.485 96.5947C153.892 95.0611 153.112 94.1847 146.5 88.8952C137.174 81.4461 136.02 81.0079 134.804 80.7262C128.378 79.2239 122.702 82.479 121.735 83.0424C120.487 83.7622 120.207 84.1065 113.064 91.6495C107.512 97.5024 106.982 98.0345 106.483 99.4742C105.173 103.105 105.423 108.363 108.76 112.213C111.91 115.812 116.152 116.344 117.244 116.469C116.776 115.405 116.277 113.903 116.027 112.056C115.715 109.678 116.027 107.706 116.308 106.423C116.09 106.266 114.842 105.233 114.748 103.48C114.686 102.197 115.279 100.57 116.651 100.038C118.179 99.4429 120.269 100.351 121.111 102.448Z" fill="#1C56B2"/>
<path d="M119.77 86.7044C118.491 84.1692 114.748 83.7936 114.093 83.731C108.885 83.1989 104.705 87.8624 102.241 90.5854C97.8745 95.4367 99.1221 96.8765 94.8803 102.729C89.2661 110.491 85.0554 110.836 84.1821 116.188C84.1197 116.595 83.34 121.978 86.8956 125.233C89.9523 128.05 94.8803 128.081 98.124 126.391C102.522 124.106 102.148 119.505 105.329 111.775C111.567 96.6887 122.234 91.587 119.77 86.7044Z" fill="#1C56B2"/>
<path opacity="0.12" d="M124.791 98.097C123.793 100.601 122.608 104.576 122.671 109.552C122.764 117.502 126.008 123.324 127.63 125.828C125.852 125.077 122.889 123.48 120.3 120.351C119.24 119.067 116.744 116.031 116.089 111.368C115.778 109.271 115.965 107.518 116.152 106.329C115.965 106.172 114.686 105.014 114.748 103.199C114.779 102.009 115.403 100.413 116.744 99.9437C118.242 99.4116 120.3 100.382 121.111 102.479C121.423 101.853 121.86 101.07 122.515 100.257C123.326 99.2864 124.137 98.5978 124.791 98.097Z" fill="#6D6C6C"/>
<path opacity="0.13" d="M119.302 121.008C119.053 121.571 118.772 122.135 118.429 122.698C116.869 125.327 114.842 127.08 113.251 128.144C112.69 127.8 111.941 127.268 111.193 126.454C110.382 125.577 109.883 124.701 109.602 124.075C110.818 123.7 113.844 122.541 115.902 119.505C116.62 118.41 117.056 117.346 117.306 116.469C117.961 118.003 118.616 119.505 119.302 121.008Z" fill="#6D6C6C"/>
<path opacity="0.18" d="M116.557 105.797C116.713 107.956 117.119 110.773 118.179 113.934C119.645 118.222 121.766 121.383 123.388 123.387C121.766 122.072 119.832 120.1 118.273 117.346C117.244 115.499 115.715 112.839 115.902 109.208C115.965 107.8 116.277 106.61 116.557 105.797Z" fill="#6D6C6C"/>
<path opacity="0.32" d="M121.33 83.8248C120.02 85.1081 111.848 93.371 112.971 105.108C113.438 110.116 115.435 113.903 116.869 116.125C115.871 116.063 113.937 115.844 111.848 114.623C109.758 113.402 108.573 111.806 108.043 110.992C107.637 110.335 107.138 109.271 106.826 107.925C106.826 107.925 106.265 105.296 107.294 102.041C108.386 98.4727 113.314 91.5243 121.33 83.8248Z" fill="#32198E"/>
<path opacity="0.33" d="M104.456 88.8953C105.173 89.3647 101.212 97.7215 96.8455 105.014C92.9156 111.556 90.9818 113.371 90.7011 117.377C90.4204 121.54 92.167 125.108 93.7265 127.518C92.9468 127.581 90.0149 127.675 87.4573 125.64C86.0538 124.513 85.3052 123.199 84.9621 122.385C84.2136 120.194 83.5586 117.002 84.8686 113.997C85.7419 111.962 86.7712 111.806 89.9837 108.551C92.822 105.671 95.6291 102.823 97.6877 98.5979C98.7481 96.4383 99.1224 94.8733 100.931 92.432C102.117 90.8045 104.05 88.6136 104.456 88.8953Z" fill="#32198E"/>
<defs>
<linearGradient id="paint0_linear" x1="366" y1="-69" x2="180.591" y2="400.201" gradientUnits="userSpaceOnUse">
<stop stop-color="#1C56B2"/>
<stop offset="1" stop-color="#1C56B2" stop-opacity="0"/>
</linearGradient>
</defs>
</svg>
