<svg width="124" height="52" viewBox="0 0 124 52" fill="none" xmlns="http://www.w3.org/2000/svg">
<path d="M6.4036 5.44976C6.4036 8.18643 6.25666 10.6479 5.96277 12.8341C5.68436 15.0045 5.25126 16.6402 4.66349 17.7412C4.04479 18.9051 3.1554 19.487 1.99533 19.487C1.20648 19.487 0.610972 19.4398 0.208813 19.3455L0 17.2222C0.618706 17.2851 1.20648 17.3165 1.76331 17.3165C2.07266 17.3165 2.33561 17.2458 2.55216 17.1042C2.78417 16.9627 2.98525 16.711 3.1554 16.3493C3.65036 15.4685 4.02932 14.1238 4.29227 12.315C4.57069 10.5063 4.7099 8.06847 4.7099 5.00151V3.58599L1.92572 3.27929V1.81659H16.2874V3.27929L14.1529 3.58599V17.694L16.4034 17.9299V19.3455H8.39893V17.9299L10.7887 17.6704L10.8119 3.58599H6.4036V5.44976Z" fill="black"/>
<path d="M24.5914 6.22829V7.62022L22.8049 7.92692V15.0517L24.1041 13.3059L28.6052 8.42235V7.92692L27.0507 7.62022V6.22829H33.4775V7.62022L31.8998 7.92692V17.7176L33.5471 17.9299V19.3455H26.8651V17.9299L28.6052 17.7176V10.4749L27.2595 12.433L22.8049 17.2222V17.7648L24.3362 17.9299V19.3455H17.9093V17.9299L19.5335 17.7176V7.92692L17.9558 7.62022V6.22829H24.5914Z" fill="black"/>
<path d="M43.4962 18.4018C42.7383 19.2196 41.6942 19.6286 40.364 19.6286C39.4205 19.6286 38.5698 19.4005 37.8118 18.9444C37.0694 18.4883 36.4739 17.7727 36.0253 16.7975C35.5768 15.8224 35.3525 14.5956 35.3525 13.1172C35.3525 11.7174 35.5922 10.4749 36.0717 9.38963C36.5667 8.30439 37.2859 7.45508 38.2295 6.84169C39.173 6.22829 40.2944 5.9216 41.5937 5.9216C41.9185 5.9216 42.2588 5.96878 42.6146 6.06315C42.9703 6.14179 43.2642 6.23616 43.4962 6.34625L43.4266 4.45889V2.05251L41.6865 1.7694V0.519025L45.886 0L46.582 0.424657V4.45889L46.5356 7.12479C47.3244 6.32266 48.3608 5.9216 49.6446 5.9216C50.5881 5.9216 51.4388 6.14965 52.1968 6.60577C52.9547 7.06188 53.5579 7.7775 54.0065 8.75264C54.455 9.72778 54.6793 10.9546 54.6793 12.433C54.6793 13.8328 54.4318 15.0753 53.9369 16.1605C53.4419 17.2458 52.7226 18.0951 51.7791 18.7085C50.8511 19.3219 49.7374 19.6286 48.4381 19.6286C48.0824 19.6286 47.7343 19.5892 47.394 19.5106C47.0692 19.432 46.8063 19.3297 46.6052 19.2039L46.6516 20.7138V23.4033L48.5773 23.71V25.0783H41.5705V23.71L43.4266 23.4033V20.7138L43.4962 18.4018ZM43.4266 8.04488C43.3183 7.90333 43.125 7.76178 42.8466 7.62022C42.5681 7.47867 42.2433 7.40789 41.8721 7.40789C40.975 7.40789 40.2325 7.86401 39.6448 8.77623C39.0725 9.67273 38.7863 11.0489 38.7863 12.9048C38.7863 14.5091 39.0493 15.728 39.5752 16.5616C40.1011 17.3952 40.7816 17.812 41.6169 17.812C42.019 17.812 42.3748 17.7569 42.6842 17.6468C42.9935 17.5367 43.241 17.3952 43.4266 17.2222V8.04488ZM46.582 17.4581C46.6903 17.5996 46.8913 17.7412 47.1852 17.8828C47.4791 18.0243 47.8039 18.0951 48.1597 18.0951C49.0568 18.0951 49.7915 17.6547 50.3638 16.7739C50.9516 15.8932 51.2455 14.5248 51.2455 12.6689C51.2455 11.0647 50.9748 9.83787 50.4334 8.98856C49.9075 8.12352 49.227 7.691 48.3917 7.691C47.9896 7.691 47.6338 7.74605 47.3244 7.85614C47.0151 7.95051 46.7676 8.0842 46.582 8.25721V17.4581Z" fill="black"/>
<path d="M69.6959 6.22829L69.9047 11.6073H67.9094L67.2133 7.87974L64.754 7.691V17.694L67.8166 17.9299V19.3455H58.4432V17.9299L61.4594 17.694V7.691L58.8608 7.87974L58.188 11.6073H56.1927L56.3783 6.22829H69.6959Z" fill="black"/>
<path d="M4.89551 32.9612C6.00918 32.8983 6.87537 32.8669 7.49407 32.8669C9.56673 32.8669 10.9975 33.1264 11.7863 33.6454C12.5752 34.1644 12.9696 34.9115 12.9696 35.8867C12.9696 36.6416 12.7608 37.2786 12.3432 37.7976C11.9255 38.3166 11.3068 38.702 10.4871 38.9536C11.6626 39.0637 12.552 39.4097 13.1552 39.9917C13.7585 40.5579 14.0601 41.2499 14.0601 42.0678C14.0601 43.4204 13.5497 44.4584 12.5288 45.1819C11.5234 45.9054 9.78328 46.2671 7.30846 46.2671C6.79803 46.2671 6.34173 46.2593 5.93957 46.2435C5.53741 46.2278 5.20486 46.2121 4.94191 46.1964C4.2768 46.1492 3.68903 46.1256 3.1786 46.1256H0.510432V44.7101L2.06493 44.4506V34.7071L0.510432 34.4004V33.0084H3.34101L4.89551 32.9612ZM7.09965 38.4818C8.01224 38.4818 8.66961 38.2616 9.07177 37.8212C9.4894 37.3808 9.69821 36.8225 9.69821 36.1462C9.69821 35.5485 9.50486 35.1003 9.11817 34.8014C8.74695 34.5026 8.08184 34.3532 7.12285 34.3532C6.27213 34.3532 5.66116 34.361 5.28993 34.3768V38.4818H7.09965ZM5.28993 44.5921C5.41367 44.6393 5.66116 44.6786 6.03238 44.7101C6.41907 44.7415 6.76709 44.7573 7.07644 44.7573C8.26745 44.7573 9.11044 44.5607 9.6054 44.1675C10.1004 43.7585 10.3478 43.1451 10.3478 42.3273C10.3478 41.5094 10.1081 40.9039 9.6286 40.5107C9.14911 40.1018 8.38346 39.8973 7.33166 39.8973H5.28993V44.5921Z" fill="black"/>
<path d="M32.3287 28.0305C32.2668 28.4709 32.1276 28.8012 31.9111 29.0214C31.71 29.2416 31.4006 29.3595 30.983 29.3753C29.7456 29.4224 28.5933 29.5561 27.526 29.7763C26.4742 29.9965 25.7008 30.3032 25.2058 30.6964C24.3551 31.3884 23.8679 32.7411 23.7442 34.7542C24.1927 34.2195 24.8037 33.7476 25.5771 33.3387C26.3659 32.9298 27.2012 32.7253 28.0828 32.7253C29.8771 32.7253 31.1764 33.2522 31.9807 34.306C32.785 35.344 33.1871 36.9247 33.1871 39.048C33.1871 41.3128 32.6612 43.0901 31.6094 44.3798C30.5731 45.6695 29.096 46.3143 27.178 46.3143C25.1826 46.3143 23.6436 45.5594 22.5609 44.0495C21.4936 42.5239 20.96 40.2512 20.96 37.2314C20.96 35.2339 21.2693 33.5825 21.888 32.2771C22.5222 30.9559 23.3111 29.9021 24.2546 29.1157C24.8733 28.6124 25.6312 28.2035 26.5283 27.889C27.4255 27.5587 28.2916 27.3542 29.1269 27.2756C29.6219 27.2441 29.9853 27.1812 30.2174 27.0868C30.4494 26.9767 30.6118 26.788 30.7046 26.5206L31.0294 25.5533H32.6999L32.3287 28.0305ZM27.2244 34.5183C26.5438 34.5183 25.956 34.6835 25.4611 35.0137C24.9661 35.3283 24.6258 35.6586 24.4402 36.0046C24.4402 38.2223 24.5253 39.9759 24.6954 41.2656C24.8656 42.5396 25.144 43.4754 25.5307 44.0731C25.9174 44.655 26.451 44.946 27.1316 44.946C28.1215 44.946 28.8098 44.4427 29.1965 43.4361C29.5832 42.4295 29.7765 40.9432 29.7765 38.9772C29.7765 37.8133 29.6837 36.909 29.4981 36.2641C29.328 35.6193 29.0573 35.171 28.6861 34.9194C28.3303 34.652 27.8431 34.5183 27.2244 34.5183Z" fill="black"/>
<path d="M36.9913 52C36.7129 52 36.4112 51.9764 36.0864 51.9292C35.7771 51.882 35.5528 51.827 35.4136 51.7641V49.2397C35.5219 49.3027 35.7384 49.3656 36.0632 49.4285C36.388 49.4914 36.6819 49.5228 36.9449 49.5228C37.7183 49.5228 38.3524 49.2633 38.8474 48.7443C39.3578 48.2253 39.8296 47.3524 40.2627 46.1256H39.0098L34.6479 34.6835L33.6039 34.3768V33.0084H39.9843V34.3768L38.2906 34.6599L40.3555 41.1949L41.1907 43.9787L41.91 41.1949L43.8125 34.6599L42.3508 34.3768V33.0084H47.3855V34.3768L46.2487 34.6599C45.3979 37.3022 44.555 39.8501 43.7197 42.3037C42.8844 44.7573 42.3972 46.1335 42.258 46.4323C41.763 47.7534 41.2913 48.8072 40.8427 49.5936C40.3942 50.38 39.8605 50.9777 39.2418 51.3866C38.6231 51.7955 37.8729 52 36.9913 52Z" fill="black"/>
<path d="M61.7528 45.7009C61.5672 48.4219 61.4203 50.1126 61.312 50.7732H59.5487C59.4868 50.2542 59.3631 49.397 59.1775 48.2017C58.9919 47.0064 58.8527 46.3143 58.7599 46.1256H50.3377C50.2449 46.3301 50.067 47.0535 49.8041 48.2961C49.5411 49.5386 49.3787 50.3643 49.3169 50.7732H47.3447L47.5304 44.5685H48.876C49.5411 44.2854 50.0825 43.3575 50.5001 41.7847C50.9332 40.1961 51.1498 37.8369 51.1498 34.7071L48.9688 34.4004V33.0084H61.7993V34.4004L59.7807 34.7071V44.6157H61.8225L61.7528 45.7009ZM52.8899 35.9338C52.8899 37.8998 52.743 39.685 52.4491 41.2892C52.1552 42.8778 51.8072 43.9866 51.405 44.6157H56.4861V34.6363H52.8899V35.9338Z" fill="black"/>
<path d="M65.472 52C65.1936 52 64.8919 51.9764 64.5671 51.9292C64.2578 51.882 64.0335 51.827 63.8943 51.7641V49.2397C64.0025 49.3027 64.2191 49.3656 64.5439 49.4285C64.8687 49.4914 65.1626 49.5228 65.4256 49.5228C66.199 49.5228 66.8331 49.2633 67.3281 48.7443C67.8385 48.2253 68.3103 47.3524 68.7434 46.1256H67.4905L63.1286 34.6835L62.0846 34.3768V33.0084H68.465V34.3768L66.7712 34.6599L68.8362 41.1949L69.6714 43.9787L70.3907 41.1949L72.2932 34.6599L70.8315 34.3768V33.0084H75.8662V34.3768L74.7293 34.6599C73.8786 37.3022 73.0356 39.8501 72.2004 42.3037C71.3651 44.7573 70.8779 46.1335 70.7387 46.4323C70.2437 47.7534 69.772 48.8072 69.3234 49.5936C68.8748 50.38 68.3412 50.9777 67.7225 51.3866C67.1038 51.7955 66.3536 52 65.472 52Z" fill="black"/>
<path d="M99.0733 44.5921C99.0114 45.4729 98.9109 46.6053 98.7717 47.9894C98.6325 49.3734 98.5242 50.3092 98.4469 50.7968H96.6835L96.6371 50.2778C96.6217 50.0891 96.5443 49.397 96.4051 48.2017C96.2659 47.0221 96.1499 46.3301 96.0571 46.1256H76.5447V44.7573L78.2848 44.4977V34.7306L76.5911 34.4004V33.0084H83.2035V34.4004L81.5098 34.7071V44.6157H85.8949V34.7071L84.2476 34.4004V33.0084H90.6976V34.4004L89.0967 34.7071V44.6157H93.505V34.7071L91.8344 34.4004V33.0084H98.3773V34.4004L96.73 34.7071V44.5921H99.0733Z" fill="black"/>
<path d="M106.186 46.3851C104.144 46.3851 102.621 45.7796 101.615 44.5685C100.625 43.3417 100.13 41.6746 100.13 39.567C100.13 38.1515 100.385 36.9247 100.896 35.8867C101.422 34.8486 102.156 34.0543 103.1 33.5039C104.044 32.9534 105.134 32.6781 106.371 32.6781C107.918 32.6781 109.109 33.0949 109.944 33.9285C110.78 34.7464 111.213 35.9181 111.244 37.4437C111.244 38.4818 111.182 39.2524 111.058 39.7557H103.518C103.58 41.187 103.912 42.3037 104.515 43.1058C105.119 43.8922 105.977 44.2854 107.091 44.2854C107.694 44.2854 108.313 44.1832 108.947 43.9787C109.596 43.7743 110.107 43.5305 110.478 43.2474L111.058 44.5449C110.64 45.001 109.96 45.4257 109.016 45.8189C108.088 46.1964 107.145 46.3851 106.186 46.3851ZM107.996 38.3402C108.026 37.8998 108.042 37.5617 108.042 37.3258C108.042 35.2339 107.354 34.188 105.977 34.188C105.219 34.188 104.631 34.4947 104.214 35.1081C103.796 35.7215 103.564 36.7989 103.518 38.3402H107.996Z" fill="black"/>
<path d="M118.942 46.3851C116.9 46.3851 115.377 45.7796 114.371 44.5685C113.381 43.3417 112.886 41.6746 112.886 39.567C112.886 38.1515 113.142 36.9247 113.652 35.8867C114.178 34.8486 114.913 34.0543 115.856 33.5039C116.8 32.9534 117.89 32.6781 119.128 32.6781C120.674 32.6781 121.865 33.0949 122.701 33.9285C123.536 34.7464 123.969 35.9181 124 37.4437C124 38.4818 123.938 39.2524 123.814 39.7557H116.274C116.336 41.187 116.668 42.3037 117.272 43.1058C117.875 43.8922 118.733 44.2854 119.847 44.2854C120.45 44.2854 121.069 44.1832 121.703 43.9787C122.353 43.7743 122.863 43.5305 123.234 43.2474L123.814 44.5449C123.397 45.001 122.716 45.4257 121.773 45.8189C120.845 46.1964 119.901 46.3851 118.942 46.3851ZM120.752 38.3402C120.783 37.8998 120.798 37.5617 120.798 37.3258C120.798 35.2339 120.11 34.188 118.733 34.188C117.975 34.188 117.388 34.4947 116.97 35.1081C116.552 35.7215 116.32 36.7989 116.274 38.3402H120.752Z" fill="black"/>
</svg>
