<svg id="Слой_1" data-name="Слой 1" xmlns="http://www.w3.org/2000/svg" viewBox="0 0 280.29 96.2"><defs><style>.cls-1,.cls-3{fill:#f26921;}.cls-2{fill:#333132;}.cls-3{font-size:14px;font-family:Merriweather-Light, Merriweather;font-weight:300;letter-spacing:0em;}</style></defs><path class="cls-1" d="M84.65,38.39v20A23.54,23.54,0,0,1,61.18,81.83H39.47A23.54,23.54,0,0,1,16,58.85H47.08a7.91,7.91,0,0,0,5.38-2.05L68.6,40.66A8.31,8.31,0,0,1,75,38.39Z"/><path class="cls-1" d="M16,56.62v-20A23.55,23.55,0,0,1,39.48,13.17h21.7a23.55,23.55,0,0,1,23.47,23H53.57a7.87,7.87,0,0,0-5.37,2L32.06,54.35a8.33,8.33,0,0,1-6.37,2.27Z"/><path class="cls-2" d="M112.44,36.84a26.15,26.15,0,0,1-2.65,9,6.51,6.51,0,0,1-2.06,2.28,5.08,5.08,0,0,1-2.76.73,16.13,16.13,0,0,1-3.06-.21l-.3-3.49a29.63,29.63,0,0,0,3.23.13,2.61,2.61,0,0,0,1.42-.37,3.39,3.39,0,0,0,1.12-1.27q3.27-5.09,3.28-20.93v-3.4l-5-.52V16.62h24.9v2.15l-4,.52V46.08l4.26.43v2.11H117.59V46.51L122,46l0-26.74h-8.74v3.87A93.52,93.52,0,0,1,112.44,36.84Z"/><path class="cls-2" d="M145.45,24.71v2.11l-3.53.61V41.86l2.59-3.41,9.73-10.29v-.73l-3.19-.61V24.71h10.77v2.11l-3.1.61V46.12l3.23.39v2.11H150.79V46.51l3.45-.39V31.48l-2.84,4-9.48,9.86v.86l2.84.35v2.11h-10.5V46.51l3.23-.39V27.43l-3.19-.61V24.71Z"/><path class="cls-2" d="M175,49.09A8.46,8.46,0,0,1,167,44a15.57,15.57,0,0,1-1.29-6.77,15.75,15.75,0,0,1,1.38-6.71,11.09,11.09,0,0,1,3.94-4.7,10.39,10.39,0,0,1,6-1.72,7.89,7.89,0,0,1,2.11.28,8.75,8.75,0,0,1,1.77.67l-.13-3.58v-5L177.28,16V14.16l6.89-.82,1,.65v7.45l-.13,4.7a8.47,8.47,0,0,1,6-2.07,8.46,8.46,0,0,1,7.92,5.12A15.57,15.57,0,0,1,200.23,36a15.9,15.9,0,0,1-1.37,6.71,11.08,11.08,0,0,1-4,4.7,10.5,10.5,0,0,1-6,1.72,8.77,8.77,0,0,1-2.11-.26,6.42,6.42,0,0,1-1.68-.64l.13,3.31v5L189,57v2.16h-11.8V57l3.58-.51v-5l.13-4.43A8.25,8.25,0,0,1,175,49.09Zm4.44-22.31a5.22,5.22,0,0,0-2.24-.47,5.56,5.56,0,0,0-4.76,2.63q-1.83,2.63-1.83,7.92,0,4.78,1.75,7.11a5.32,5.32,0,0,0,4.45,2.32,7.59,7.59,0,0,0,2.33-.34,5.47,5.47,0,0,0,1.68-.82V27.73A4.08,4.08,0,0,0,179.39,26.78Zm7.17,19.6a5.18,5.18,0,0,0,2.26.47,5.6,5.6,0,0,0,4.76-2.58q1.83-2.6,1.83-7.75,0-4.87-1.74-7.26a5.27,5.27,0,0,0-4.42-2.39,7.94,7.94,0,0,0-2.39.34,5.49,5.49,0,0,0-1.7.82v17.4A4.68,4.68,0,0,0,186.56,46.38Z"/><path class="cls-2" d="M227.32,24.71l.26,9.09h-2.84l-1.16-6.5-5.73-.22v19l5.86.43v2.11H207.56V46.51l5.81-.43v-19l-5.81.22-1.17,6.5h-2.84l.26-9.09Z"/><path class="cls-2" d="M105.23,65.23l2.06-.06a7.06,7.06,0,0,1,3.63.67,2.24,2.24,0,0,1,1,2,2.4,2.4,0,0,1-.59,1.65,3.29,3.29,0,0,1-1.66,1,3.84,3.84,0,0,1,2.35.89,2.41,2.41,0,0,1,.82,1.83,3.09,3.09,0,0,1-1.33,2.69,7.87,7.87,0,0,1-4.37.94l-1.12,0-.9-.05-1.4,0h-2.1v-1l1.44-.24V66.57l-1.42-.29v-1h2.27Zm3.93,4.29a2,2,0,0,0,.63-1.55,1.44,1.44,0,0,0-.6-1.25,3.78,3.78,0,0,0-2.08-.42h-1.92v3.81h2A2.83,2.83,0,0,0,109.16,69.52ZM106,75.6a10.16,10.16,0,0,0,1,.05,5.13,5.13,0,0,0,2.67-.51,1.87,1.87,0,0,0,.79-1.71,2,2,0,0,0-.72-1.69,3.75,3.75,0,0,0-2.27-.56h-2.33v4.31A4.7,4.7,0,0,0,106,75.6Z"/><path class="cls-2" d="M133.22,61.58a.94.94,0,0,1-.74.29q-4,.3-5.11,1.18a3.5,3.5,0,0,0-1,1.35,6.74,6.74,0,0,0-.52,2.46,5.12,5.12,0,0,1,1.79-1.3,5.33,5.33,0,0,1,2.27-.53c3,0,4.49,1.77,4.49,5.33a7.61,7.61,0,0,1-1.34,4.83,4.61,4.61,0,0,1-3.83,1.68,4.45,4.45,0,0,1-3.84-2c-.94-1.32-1.41-3.35-1.41-6.06a10,10,0,0,1,.74-4.17A8,8,0,0,1,126.63,62a5.69,5.69,0,0,1,1.92-1.07,9.86,9.86,0,0,1,2.29-.54,7.16,7.16,0,0,0,1.2-.21.61.61,0,0,0,.42-.43l.29-.88h1.15l-.33,1.83A2,2,0,0,1,133.22,61.58Zm-5.23,5a4.62,4.62,0,0,0-1.08.61,2.51,2.51,0,0,0-.61.64,28.21,28.21,0,0,0,.31,4.61,5.91,5.91,0,0,0,1,2.57,2,2,0,0,0,1.67.81,2.26,2.26,0,0,0,2.21-1.38,9.91,9.91,0,0,0,.65-4.1,5.67,5.67,0,0,0-.63-3.11,2.37,2.37,0,0,0-2.09-.91A3.72,3.72,0,0,0,128,66.6Z"/><path class="cls-2" d="M139.33,81.79a1.56,1.56,0,0,1-.48-.12V79.88a1.34,1.34,0,0,0,.48.12,5.53,5.53,0,0,0,.69,0,2.49,2.49,0,0,0,1.74-.69,6.73,6.73,0,0,0,1.45-2.65h-1l-3.92-10.19-.95-.27v-1h5v1l-1.59.25,2,6.07,1,3,.88-3,1.84-6.05-1.38-.25v-1h4.14v1l-1,.25q-3,9.27-3.57,10.52a21.19,21.19,0,0,1-1.27,2.77A4.55,4.55,0,0,1,142,81.31a3.4,3.4,0,0,1-1.94.52A5.32,5.32,0,0,1,139.33,81.79Z"/><path class="cls-2" d="M163.52,77.71c-.09,1.16-.19,2.1-.29,2.82h-1.29c0-.5-.09-1.25-.18-2.24a11.71,11.71,0,0,0-.19-1.59h-7.79c-.05.13-.21.88-.45,2.25L153,80.53h-1.38c0-1.94.11-3.61.18-5H153c.66-.26,1.18-1.16,1.56-2.69a26.67,26.67,0,0,0,.58-6.29l-1.92-.29v-1h10.57v1l-1.83.29v9h1.81Zm-7.64-5.13a8.32,8.32,0,0,1-1,3h4.94V66.49h-3.46v1.3A23.7,23.7,0,0,1,155.88,72.58Z"/><path class="cls-2" d="M168.64,81.79a1.48,1.48,0,0,1-.48-.12V79.88a1.34,1.34,0,0,0,.48.12,5.53,5.53,0,0,0,.69,0,2.49,2.49,0,0,0,1.74-.69,6.73,6.73,0,0,0,1.45-2.65h-1l-3.91-10.19-1-.27v-1h5v1l-1.59.25,2,6.07,1,3,.88-3,1.84-6.05-1.38-.25v-1h4.14v1l-1,.25q-3,9.27-3.57,10.52a21.19,21.19,0,0,1-1.27,2.77,4.55,4.55,0,0,1-1.36,1.53,3.43,3.43,0,0,1-1.94.52A5.32,5.32,0,0,1,168.64,81.79Z"/><path class="cls-2" d="M200.62,76.89c-.17,1.74-.3,3-.39,3.67H199a6.47,6.47,0,0,0-.06-.7c-.15-2-.25-3.07-.29-3.16h-17v-1l1.75-.23V66.57l-1.71-.29v-1h5.54v1l-1.71.29v9H190v-9l-1.73-.29v-1h5.46v1l-1.63.29v9h4.51v-9l-1.73-.29v-1h5.48v1l-1.65.29v9h2.1Z"/><path class="cls-2" d="M205.67,75.3a6.72,6.72,0,0,1-1.3-4.34,6.83,6.83,0,0,1,.68-3.15A5,5,0,0,1,207,65.7a5.34,5.34,0,0,1,2.79-.74,4.06,4.06,0,0,1,3,1.06,4.3,4.3,0,0,1,1.12,3A10.17,10.17,0,0,1,213.7,71h-7.09a5.62,5.62,0,0,0,.95,3.28,3,3,0,0,0,2.57,1.25,5.37,5.37,0,0,0,1.72-.3,4.38,4.38,0,0,0,1.39-.71l.4.91a4.88,4.88,0,0,1-1.78,1.07,6.62,6.62,0,0,1-2.39.45A4.59,4.59,0,0,1,205.67,75.3Zm5.91-5.41a6.54,6.54,0,0,0,.06-.89,3.77,3.77,0,0,0-.57-2.11,2,2,0,0,0-1.72-.77,2.33,2.33,0,0,0-1.9.86,5,5,0,0,0-.82,2.91Z"/><path class="cls-2" d="M219.21,75.3A6.67,6.67,0,0,1,217.9,71a7,7,0,0,1,.68-3.15,5.06,5.06,0,0,1,1.9-2.11,5.34,5.34,0,0,1,2.79-.74,4.06,4.06,0,0,1,3,1.06,4.3,4.3,0,0,1,1.12,3,10.17,10.17,0,0,1-.14,1.92h-7.09a5.69,5.69,0,0,0,1,3.28,3,3,0,0,0,2.58,1.25,5.42,5.42,0,0,0,1.72-.3,4.49,4.49,0,0,0,1.39-.71l.39.91a4.91,4.91,0,0,1-1.77,1.07,6.66,6.66,0,0,1-2.39.45A4.56,4.56,0,0,1,219.21,75.3Zm5.9-5.41a6.54,6.54,0,0,0,.06-.89,3.62,3.62,0,0,0-.57-2.11,1.93,1.93,0,0,0-1.72-.77A2.35,2.35,0,0,0,221,67a5,5,0,0,0-.82,2.91Z"/><text class="cls-3" transform="translate(242.18 76.61)">beta</text></svg>